<svg xmlns="http://www.w3.org/2000/svg" xmlns:xlink="http://www.w3.org/1999/xlink" viewBox="0 0 216 216"><defs><pattern id="f1938d85-1462-4cb4-b35e-e2b483849747" data-name="New Pattern 7" width="15.06" height="15.84" patternTransform="translate(-226.68 16.89) scale(1.2 0.75)" patternUnits="userSpaceOnUse" viewBox="0 0 15.06 15.84"><rect width="15.06" height="15.84" style="fill:none"/><polygon points="15.06 13.2 15.06 18.48 18.83 21.13 22.59 18.48 22.59 13.2 18.83 10.55 15.06 13.2" style="fill:#00012d"/><polygon points="7.53 13.2 7.53 18.48 11.3 21.13 15.06 18.48 15.06 13.2 11.3 10.55 7.53 13.2" style="fill:#00012d"/><polygon points="7.57 13.26 11.27 10.62 15 13.2 15.03 18.42 11.32 21.06 7.59 18.48 7.57 13.26" style="fill:#00012e"/><polygon points="7.6 13.32 11.25 10.69 14.94 13.21 14.99 18.36 11.35 20.99 7.65 18.47 7.6 13.32" style="fill:#00022e"/><polygon points="7.64 13.39 11.22 10.76 14.88 13.22 14.95 18.3 11.37 20.93 7.71 18.46 7.64 13.39" style="fill:#00022f"/><polygon points="7.68 13.45 11.2 10.82 14.82 13.22 14.92 18.23 11.4 20.86 7.78 18.46 7.68 13.45" style="fill:#00032f"/><polygon points="7.71 13.51 11.17 10.89 14.76 13.23 14.88 18.17 11.42 20.79 7.84 18.45 7.71 13.51" style="fill:#00032f"/><polygon points="7.75 13.57 11.15 10.96 14.69 13.23 14.84 18.11 11.45 20.72 7.9 18.45 7.75 13.57" style="fill:#000430"/><polygon points="7.79 13.64 11.12 11.02 14.63 13.24 14.8 18.04 11.47 20.66 7.96 18.44 7.79 13.64" style="fill:#000430"/><polygon points="7.83 13.7 11.1 11.09 14.57 13.25 14.77 17.98 11.5 20.59 8.02 18.43 7.83 13.7" style="fill:#000531"/><polygon points="7.86 13.76 11.07 11.16 14.51 13.25 14.73 17.92 11.52 20.52 8.09 18.43 7.86 13.76" style="fill:#000531"/><polygon points="7.9 13.83 11.05 11.22 14.45 13.26 14.7 17.85 11.54 20.46 8.15 18.42 7.9 13.83" style="fill:#000531"/><polygon points="7.94 13.89 11.02 11.29 14.38 13.27 14.66 17.79 11.57 20.39 8.21 18.41 7.94 13.89" style="fill:#000632"/><polygon points="7.97 13.95 11 11.36 14.32 13.27 14.62 17.73 11.6 20.32 8.27 18.41 7.97 13.95" style="fill:#000632"/><polygon points="8.01 14.02 10.97 11.43 14.26 13.28 14.58 17.66 11.62 20.25 8.33 18.4 8.01 14.02" style="fill:#000633"/><polygon points="8.05 14.08 10.95 11.49 14.2 13.29 14.55 17.6 11.64 20.19 8.39 18.39 8.05 14.08" style="fill:#000733"/><polygon points="8.08 14.14 10.92 11.56 14.14 13.29 14.51 17.54 11.67 20.12 8.46 18.39 8.08 14.14" style="fill:#000733"/><polygon points="8.12 14.2 10.9 11.63 14.08 13.3 14.47 17.48 11.7 20.05 8.52 18.38 8.12 14.2" style="fill:#000734"/><polygon points="8.16 14.27 10.87 11.69 14.01 13.3 14.44 17.41 11.72 19.99 8.58 18.38 8.16 14.27" style="fill:#000834"/><polygon points="8.19 14.33 10.85 11.76 13.95 13.31 14.4 17.35 11.74 19.92 8.64 18.37 8.19 14.33" style="fill:#000834"/><polygon points="8.23 14.39 10.82 11.83 13.89 13.32 14.36 17.29 11.77 19.85 8.7 18.36 8.23 14.39" style="fill:#000835"/><polygon points="8.27 14.46 10.8 11.89 13.83 13.32 14.33 17.23 11.79 19.79 8.77 18.36 8.27 14.46" style="fill:#000835"/><polygon points="8.3 14.52 10.78 11.96 13.77 13.33 14.29 17.16 11.82 19.72 8.83 18.35 8.3 14.52" style="fill:#000935"/><polygon points="8.34 14.58 10.75 12.03 13.71 13.34 14.25 17.1 11.84 19.65 8.89 18.34 8.34 14.58" style="fill:#000936"/><polygon points="8.38 14.64 10.72 12.1 13.64 13.34 14.21 17.04 11.87 19.58 8.95 18.34 8.38 14.64" style="fill:#000936"/><polygon points="8.41 14.71 10.7 12.16 13.58 13.35 14.18 16.97 11.89 19.52 9.01 18.33 8.41 14.71" style="fill:#000936"/><polygon points="8.45 14.77 10.68 12.23 13.52 13.35 14.14 16.91 11.92 19.45 9.07 18.33 8.45 14.77" style="fill:#000937"/><polygon points="8.49 14.83 10.65 12.3 13.46 13.36 14.11 16.85 11.94 19.38 9.13 18.32 8.49 14.83" style="fill:#000937"/><polygon points="8.53 14.9 10.63 12.37 13.4 13.37 14.07 16.79 11.97 19.32 9.2 18.31 8.53 14.9" style="fill:#000a37"/><polygon points="8.56 14.96 10.6 12.43 13.34 13.37 14.03 16.72 11.99 19.25 9.26 18.31 8.56 14.96" style="fill:#000a38"/><polygon points="8.6 15.02 10.58 12.5 13.27 13.38 13.99 16.66 12.02 19.18 9.32 18.3 8.6 15.02" style="fill:#000a38"/><polygon points="8.64 15.09 10.55 12.57 13.21 13.39 13.96 16.6 12.04 19.11 9.38 18.3 8.64 15.09" style="fill:#000a38"/><polygon points="8.67 15.15 10.53 12.63 13.15 13.39 13.92 16.53 12.07 19.05 9.44 18.29 8.67 15.15" style="fill:#000a38"/><polygon points="8.71 15.21 10.5 12.7 13.09 13.4 13.88 16.47 12.09 18.98 9.51 18.28 8.71 15.21" style="fill:#000a39"/><polygon points="8.75 15.27 10.48 12.77 13.03 13.4 13.85 16.41 12.12 18.91 9.57 18.28 8.75 15.27" style="fill:#000a39"/><polygon points="8.78 15.34 10.45 12.83 12.96 13.41 13.81 16.34 12.14 18.85 9.63 18.27 8.78 15.34" style="fill:#000a39"/><polygon points="8.82 15.4 10.43 12.9 12.9 13.42 13.77 16.28 12.17 18.78 9.69 18.26 8.82 15.4" style="fill:#000a39"/><polygon points="8.86 15.46 10.4 12.97 12.84 13.42 13.74 16.22 12.19 18.71 9.75 18.26 8.86 15.46" style="fill:#000a3a"/><polygon points="8.89 15.53 10.38 13.04 12.78 13.43 13.7 16.16 12.22 18.64 9.81 18.25 8.89 15.53" style="fill:#000a3a"/><polygon points="8.93 15.59 10.35 13.1 12.72 13.44 13.66 16.09 12.24 18.58 9.88 18.24 8.93 15.59" style="fill:#000a3a"/><polygon points="8.97 15.65 10.33 13.17 12.65 13.44 13.63 16.03 12.27 18.51 9.94 18.24 8.97 15.65" style="fill:#000a3a"/><polygon points="9.01 15.71 10.3 13.24 12.59 13.45 13.59 15.97 12.29 18.44 10 18.23 9.01 15.71" style="fill:#000a3a"/><polygon points="9.04 15.78 10.28 13.3 12.53 13.46 13.55 15.9 12.32 18.38 10.06 18.23 9.04 15.78" style="fill:#000a3b"/><polygon points="9.08 15.84 10.25 13.37 12.47 13.46 13.51 15.84 12.34 18.31 10.12 18.22 9.08 15.84" style="fill:#000a3b"/><polygon points="9.12 15.9 10.23 13.44 12.41 13.47 13.48 15.78 12.37 18.24 10.19 18.21 9.12 15.9" style="fill:#000a3b"/><polygon points="9.15 15.97 10.2 13.51 12.35 13.47 13.44 15.71 12.39 18.18 10.25 18.21 9.15 15.97" style="fill:#000a3b"/><polygon points="9.19 16.03 10.18 13.57 12.29 13.48 13.4 15.65 12.42 18.11 10.31 18.2 9.19 16.03" style="fill:#00093b"/><polygon points="9.23 16.09 10.15 13.64 12.22 13.49 13.37 15.59 12.44 18.04 10.37 18.19 9.23 16.09" style="fill:#00093c"/><polygon points="9.26 16.15 10.13 13.71 12.16 13.49 13.33 15.53 12.46 17.97 10.43 18.19 9.26 16.15" style="fill:#00093c"/><polygon points="9.3 16.22 10.1 13.77 12.1 13.5 13.29 15.46 12.49 17.91 10.49 18.18 9.3 16.22" style="fill:#00093c"/><polygon points="9.34 16.28 10.08 13.84 12.04 13.51 13.26 15.4 12.52 17.84 10.56 18.18 9.34 16.28" style="fill:#00093c"/><polygon points="9.37 16.34 10.05 13.91 11.98 13.51 13.22 15.34 12.54 17.77 10.62 18.17 9.37 16.34" style="fill:#00083c"/><polygon points="9.41 16.41 10.03 13.97 11.91 13.52 13.18 15.27 12.56 17.71 10.68 18.16 9.41 16.41" style="fill:#00083c"/><polygon points="9.45 16.47 10 14.04 11.85 13.52 13.14 15.21 12.59 17.64 10.74 18.16 9.45 16.47" style="fill:#00083d"/><polygon points="9.48 16.53 9.98 14.11 11.79 13.53 13.11 15.15 12.62 17.57 10.8 18.15 9.48 16.53" style="fill:#00083d"/><polygon points="9.52 16.59 9.95 14.18 11.73 13.54 13.07 15.09 12.64 17.5 10.87 18.14 9.52 16.59" style="fill:#00073d"/><polygon points="9.56 16.66 9.93 14.24 11.67 13.54 13.04 15.02 12.66 17.44 10.93 18.14 9.56 16.66" style="fill:#00073d"/><polygon points="9.6 16.72 9.9 14.31 11.61 13.55 13 14.96 12.69 17.37 10.99 18.13 9.6 16.72" style="fill:#00073d"/><polygon points="9.63 16.78 9.88 14.38 11.54 13.56 12.96 14.9 12.71 17.3 11.05 18.13 9.63 16.78" style="fill:#00063d"/><polygon points="9.67 16.85 9.86 14.44 11.48 13.56 12.92 14.83 12.74 17.24 11.11 18.12 9.67 16.85" style="fill:#00063d"/><polygon points="9.71 16.91 9.83 14.51 11.42 13.57 12.89 14.77 12.76 17.17 11.17 18.11 9.71 16.91" style="fill:#00063e"/><polygon points="9.74 16.97 9.8 14.58 11.36 13.57 12.85 14.71 12.79 17.1 11.23 18.11 9.74 16.97" style="fill:#00053e"/><polygon points="9.78 17.04 9.78 14.64 11.3 13.58 12.81 14.64 12.81 17.04 11.3 18.1 9.78 17.04" style="fill:#00053e"/><polygon points="0 13.2 0 18.48 3.77 21.13 7.53 18.48 7.53 13.2 3.77 10.55 0 13.2" style="fill:#00012d"/><polygon points="0.04 13.26 3.74 10.62 7.47 13.2 7.5 18.42 3.79 21.06 0.06 18.48 0.04 13.26" style="fill:#00012e"/><polygon points="0.07 13.32 3.72 10.69 7.41 13.21 7.46 18.36 3.81 20.99 0.12 18.47 0.07 13.32" style="fill:#00022e"/><polygon points="0.11 13.39 3.69 10.76 7.35 13.22 7.42 18.3 3.84 20.93 0.18 18.46 0.11 13.39" style="fill:#00022f"/><polygon points="0.15 13.45 3.67 10.82 7.29 13.22 7.38 18.23 3.87 20.86 0.25 18.46 0.15 13.45" style="fill:#00032f"/><polygon points="0.18 13.51 3.64 10.89 7.22 13.23 7.35 18.17 3.89 20.79 0.31 18.45 0.18 13.51" style="fill:#00032f"/><polygon points="0.22 13.57 3.62 10.96 7.16 13.23 7.31 18.11 3.92 20.72 0.37 18.45 0.22 13.57" style="fill:#000430"/><polygon points="0.26 13.64 3.59 11.02 7.1 13.24 7.27 18.04 3.94 20.66 0.43 18.44 0.26 13.64" style="fill:#000430"/><polygon points="0.29 13.7 3.57 11.09 7.04 13.25 7.24 17.98 3.96 20.59 0.49 18.43 0.29 13.7" style="fill:#000531"/><polygon points="0.33 13.76 3.54 11.16 6.98 13.25 7.2 17.92 3.99 20.52 0.55 18.43 0.33 13.76" style="fill:#000531"/><polygon points="0.37 13.83 3.52 11.22 6.92 13.26 7.16 17.85 4.01 20.46 0.62 18.42 0.37 13.83" style="fill:#000531"/><polygon points="0.4 13.89 3.49 11.29 6.85 13.27 7.13 17.79 4.04 20.39 0.68 18.41 0.4 13.89" style="fill:#000632"/><polygon points="0.44 13.95 3.47 11.36 6.79 13.27 7.09 17.73 4.06 20.32 0.74 18.41 0.44 13.95" style="fill:#000632"/><polygon points="0.48 14.02 3.44 11.43 6.73 13.28 7.05 17.66 4.09 20.25 0.8 18.4 0.48 14.02" style="fill:#000633"/><polygon points="0.52 14.08 3.42 11.49 6.67 13.29 7.02 17.6 4.11 20.19 0.86 18.39 0.52 14.08" style="fill:#000733"/><polygon points="0.55 14.14 3.39 11.56 6.61 13.29 6.98 17.54 4.14 20.12 0.93 18.39 0.55 14.14" style="fill:#000733"/><polygon points="0.59 14.2 3.37 11.63 6.54 13.3 6.94 17.48 4.16 20.05 0.99 18.38 0.59 14.2" style="fill:#000734"/><polygon points="0.63 14.27 3.34 11.69 6.48 13.3 6.91 17.41 4.19 19.99 1.05 18.38 0.63 14.27" style="fill:#000834"/><polygon points="0.66 14.33 3.32 11.76 6.42 13.31 6.87 17.35 4.21 19.92 1.11 18.37 0.66 14.33" style="fill:#000834"/><polygon points="0.7 14.39 3.29 11.83 6.36 13.32 6.83 17.29 4.24 19.85 1.17 18.36 0.7 14.39" style="fill:#000835"/><polygon points="0.74 14.46 3.27 11.89 6.3 13.32 6.79 17.23 4.26 19.79 1.23 18.36 0.74 14.46" style="fill:#000835"/><polygon points="0.77 14.52 3.24 11.96 6.24 13.33 6.76 17.16 4.29 19.72 1.29 18.35 0.77 14.52" style="fill:#000935"/><polygon points="0.81 14.58 3.22 12.03 6.17 13.34 6.72 17.1 4.31 19.65 1.36 18.34 0.81 14.58" style="fill:#000936"/><polygon points="0.85 14.64 3.19 12.1 6.11 13.34 6.68 17.04 4.34 19.58 1.42 18.34 0.85 14.64" style="fill:#000936"/><polygon points="0.88 14.71 3.17 12.16 6.05 13.35 6.65 16.97 4.36 19.52 1.48 18.33 0.88 14.71" style="fill:#000936"/><polygon points="0.92 14.77 3.14 12.23 5.99 13.35 6.61 16.91 4.39 19.45 1.54 18.33 0.92 14.77" style="fill:#000937"/><polygon points="0.96 14.83 3.12 12.3 5.93 13.36 6.57 16.85 4.41 19.38 1.6 18.32 0.96 14.83" style="fill:#000937"/><polygon points="0.99 14.9 3.09 12.37 5.87 13.37 6.54 16.79 4.44 19.32 1.67 18.31 0.99 14.9" style="fill:#000a37"/><polygon points="1.03 14.96 3.07 12.43 5.8 13.37 6.5 16.72 4.46 19.25 1.73 18.31 1.03 14.96" style="fill:#000a38"/><polygon points="1.07 15.02 3.04 12.5 5.74 13.38 6.46 16.66 4.49 19.18 1.79 18.3 1.07 15.02" style="fill:#000a38"/><polygon points="1.1 15.09 3.02 12.57 5.68 13.39 6.43 16.6 4.51 19.11 1.85 18.3 1.1 15.09" style="fill:#000a38"/><polygon points="1.14 15.15 3 12.63 5.62 13.39 6.39 16.53 4.54 19.05 1.91 18.29 1.14 15.15" style="fill:#000a38"/><polygon points="1.18 15.21 2.97 12.7 5.56 13.4 6.35 16.47 4.56 18.98 1.98 18.28 1.18 15.21" style="fill:#000a39"/><polygon points="1.22 15.27 2.94 12.77 5.5 13.4 6.32 16.41 4.59 18.91 2.04 18.28 1.22 15.27" style="fill:#000a39"/><polygon points="1.25 15.34 2.92 12.83 5.43 13.41 6.28 16.34 4.61 18.85 2.1 18.27 1.25 15.34" style="fill:#000a39"/><polygon points="1.29 15.4 2.9 12.9 5.37 13.42 6.24 16.28 4.64 18.78 2.16 18.26 1.29 15.4" style="fill:#000a39"/><polygon points="1.33 15.46 2.87 12.97 5.31 13.42 6.21 16.22 4.66 18.71 2.22 18.26 1.33 15.46" style="fill:#000a3a"/><polygon points="1.36 15.53 2.85 13.04 5.25 13.43 6.17 16.16 4.69 18.64 2.28 18.25 1.36 15.53" style="fill:#000a3a"/><polygon points="1.4 15.59 2.82 13.1 5.19 13.44 6.13 16.09 4.71 18.58 2.35 18.24 1.4 15.59" style="fill:#000a3a"/><polygon points="1.44 15.65 2.8 13.17 5.12 13.44 6.09 16.03 4.74 18.51 2.41 18.24 1.44 15.65" style="fill:#000a3a"/><polygon points="1.47 15.71 2.77 13.24 5.06 13.45 6.06 15.97 4.76 18.44 2.47 18.23 1.47 15.71" style="fill:#000a3a"/><polygon points="1.51 15.78 2.75 13.3 5 13.46 6.02 15.9 4.79 18.38 2.53 18.23 1.51 15.78" style="fill:#000a3b"/><polygon points="1.55 15.84 2.72 13.37 4.94 13.46 5.98 15.84 4.81 18.31 2.59 18.22 1.55 15.84" style="fill:#000a3b"/><polygon points="1.58 15.9 2.7 13.44 4.88 13.47 5.95 15.78 4.83 18.24 2.65 18.21 1.58 15.9" style="fill:#000a3b"/><polygon points="1.62 15.97 2.67 13.51 4.82 13.47 5.91 15.71 4.86 18.18 2.72 18.21 1.62 15.97" style="fill:#000a3b"/><polygon points="1.66 16.03 2.65 13.57 4.75 13.48 5.87 15.65 4.88 18.11 2.78 18.2 1.66 16.03" style="fill:#00093b"/><polygon points="1.7 16.09 2.62 13.64 4.69 13.49 5.84 15.59 4.91 18.04 2.84 18.19 1.7 16.09" style="fill:#00093c"/><polygon points="1.73 16.15 2.6 13.71 4.63 13.49 5.8 15.53 4.93 17.97 2.9 18.19 1.73 16.15" style="fill:#00093c"/><polygon points="1.77 16.22 2.57 13.77 4.57 13.5 5.76 15.46 4.96 17.91 2.96 18.18 1.77 16.22" style="fill:#00093c"/><polygon points="1.81 16.28 2.55 13.84 4.51 13.51 5.72 15.4 4.98 17.84 3.02 18.18 1.81 16.28" style="fill:#00093c"/><polygon points="1.84 16.34 2.52 13.91 4.45 13.51 5.69 15.34 5.01 17.77 3.09 18.17 1.84 16.34" style="fill:#00083c"/><polygon points="1.88 16.41 2.5 13.97 4.38 13.52 5.65 15.27 5.03 17.71 3.15 18.16 1.88 16.41" style="fill:#00083c"/><polygon points="1.92 16.47 2.47 14.04 4.32 13.52 5.61 15.21 5.06 17.64 3.21 18.16 1.92 16.47" style="fill:#00083d"/><polygon points="1.95 16.53 2.45 14.11 4.26 13.53 5.58 15.15 5.08 17.57 3.27 18.15 1.95 16.53" style="fill:#00083d"/><polygon points="1.99 16.59 2.42 14.18 4.2 13.54 5.54 15.09 5.11 17.5 3.33 18.14 1.99 16.59" style="fill:#00073d"/><polygon points="2.03 16.66 2.4 14.24 4.14 13.54 5.5 15.02 5.13 17.44 3.4 18.14 2.03 16.66" style="fill:#00073d"/><polygon points="2.06 16.72 2.37 14.31 4.07 13.55 5.47 14.96 5.16 17.37 3.46 18.13 2.06 16.72" style="fill:#00073d"/><polygon points="2.1 16.78 2.35 14.38 4.01 13.56 5.43 14.9 5.18 17.3 3.52 18.13 2.1 16.78" style="fill:#00063d"/><polygon points="2.14 16.85 2.32 14.44 3.95 13.56 5.39 14.83 5.21 17.24 3.58 18.12 2.14 16.85" style="fill:#00063d"/><polygon points="2.17 16.91 2.3 14.51 3.89 13.57 5.36 14.77 5.23 17.17 3.64 18.11 2.17 16.91" style="fill:#00063e"/><polygon points="2.21 16.97 2.27 14.58 3.83 13.57 5.32 14.71 5.26 17.1 3.7 18.11 2.21 16.97" style="fill:#00053e"/><polygon points="2.25 17.04 2.25 14.64 3.77 13.58 5.28 14.64 5.28 17.04 3.77 18.1 2.25 17.04" style="fill:#00053e"/><polygon points="-7.53 13.2 -7.53 18.48 -3.77 21.13 0 18.48 0 13.2 -3.77 10.55 -7.53 13.2" style="fill:#00012d"/><polygon points="11.29 5.28 11.29 10.56 15.06 13.21 18.83 10.56 18.83 5.28 15.06 2.63 11.29 5.28" style="fill:#00012d"/><polygon points="11.33 5.34 15.04 2.7 18.77 5.28 18.79 10.5 15.09 13.14 11.36 10.56 11.33 5.34" style="fill:#00012e"/><polygon points="11.37 5.4 15.01 2.77 18.71 5.29 18.76 10.44 15.11 13.07 11.42 10.55 11.37 5.4" style="fill:#00022e"/><polygon points="11.41 5.47 14.99 2.83 18.64 5.3 18.72 10.38 15.14 13.01 11.48 10.54 11.41 5.47" style="fill:#00022f"/><polygon points="11.44 5.53 14.96 2.9 18.58 5.3 18.68 10.31 15.16 12.94 11.54 10.54 11.44 5.53" style="fill:#00032f"/><polygon points="11.48 5.59 14.94 2.97 18.52 5.31 18.64 10.25 15.19 12.87 11.6 10.53 11.48 5.59" style="fill:#00032f"/><polygon points="11.52 5.65 14.91 3.04 18.46 5.32 18.61 10.19 15.21 12.8 11.67 10.53 11.52 5.65" style="fill:#000430"/><polygon points="11.55 5.72 14.89 3.1 18.4 5.32 18.57 10.12 15.24 12.74 11.73 10.52 11.55 5.72" style="fill:#000430"/><polygon points="11.59 5.78 14.86 3.17 18.34 5.33 18.53 10.06 15.26 12.67 11.79 10.51 11.59 5.78" style="fill:#000531"/><polygon points="11.63 5.84 14.84 3.24 18.27 5.33 18.5 10 15.29 12.6 11.85 10.51 11.63 5.84" style="fill:#000531"/><polygon points="11.66 5.91 14.81 3.3 18.21 5.34 18.46 9.93 15.31 12.54 11.91 10.5 11.66 5.91" style="fill:#000531"/><polygon points="11.7 5.97 14.79 3.37 18.15 5.35 18.42 9.87 15.34 12.47 11.97 10.49 11.7 5.97" style="fill:#000632"/><polygon points="11.74 6.03 14.76 3.44 18.09 5.35 18.39 9.81 15.36 12.4 12.04 10.49 11.74 6.03" style="fill:#000632"/><polygon points="11.78 6.09 14.74 3.5 18.03 5.36 18.35 9.74 15.39 12.34 12.1 10.48 11.78 6.09" style="fill:#000633"/><polygon points="11.81 6.16 14.71 3.57 17.96 5.37 18.31 9.68 15.41 12.27 12.16 10.47 11.81 6.16" style="fill:#000733"/><polygon points="11.85 6.22 14.69 3.64 17.9 5.37 18.28 9.62 15.44 12.2 12.22 10.47 11.85 6.22" style="fill:#000733"/><polygon points="11.89 6.28 14.66 3.71 17.84 5.38 18.24 9.56 15.46 12.13 12.28 10.46 11.89 6.28" style="fill:#000734"/><polygon points="11.92 6.35 14.64 3.77 17.78 5.38 18.2 9.49 15.48 12.07 12.35 10.46 11.92 6.35" style="fill:#000834"/><polygon points="11.96 6.41 14.62 3.84 17.72 5.39 18.16 9.43 15.51 12 12.41 10.45 11.96 6.41" style="fill:#000834"/><polygon points="12 6.47 14.59 3.91 17.66 5.4 18.13 9.37 15.54 11.93 12.47 10.44 12 6.47" style="fill:#000835"/><polygon points="12.03 6.54 14.56 3.98 17.59 5.4 18.09 9.3 15.56 11.87 12.53 10.44 12.03 6.54" style="fill:#000835"/><polygon points="12.07 6.6 14.54 4.04 17.53 5.41 18.05 9.24 15.59 11.8 12.59 10.43 12.07 6.6" style="fill:#000935"/><polygon points="12.11 6.66 14.52 4.11 17.47 5.42 18.02 9.18 15.61 11.73 12.65 10.43 12.11 6.66" style="fill:#000936"/><polygon points="12.14 6.72 14.49 4.18 17.41 5.42 17.98 9.12 15.63 11.66 12.72 10.42 12.14 6.72" style="fill:#000936"/><polygon points="12.18 6.79 14.47 4.24 17.35 5.43 17.94 9.05 15.66 11.6 12.78 10.41 12.18 6.79" style="fill:#000936"/><polygon points="12.22 6.85 14.44 4.31 17.29 5.43 17.91 8.99 15.68 11.53 12.84 10.41 12.22 6.85" style="fill:#000937"/><polygon points="12.26 6.91 14.42 4.38 17.22 5.44 17.87 8.93 15.71 11.46 12.9 10.4 12.26 6.91" style="fill:#000937"/><polygon points="12.29 6.98 14.39 4.45 17.16 5.45 17.83 8.87 15.73 11.4 12.96 10.39 12.29 6.98" style="fill:#000a37"/><polygon points="12.33 7.04 14.37 4.51 17.1 5.45 17.8 8.8 15.76 11.33 13.03 10.39 12.33 7.04" style="fill:#000a38"/><polygon points="12.37 7.1 14.34 4.58 17.04 5.46 17.76 8.74 15.78 11.26 13.09 10.38 12.37 7.1" style="fill:#000a38"/><polygon points="12.4 7.17 14.32 4.65 16.98 5.47 17.72 8.68 15.81 11.2 13.15 10.38 12.4 7.17" style="fill:#000a38"/><polygon points="12.44 7.23 14.29 4.71 16.91 5.47 17.69 8.61 15.83 11.13 13.21 10.37 12.44 7.23" style="fill:#000a38"/><polygon points="12.48 7.29 14.27 4.78 16.85 5.48 17.65 8.55 15.86 11.06 13.27 10.36 12.48 7.29" style="fill:#000a39"/><polygon points="12.51 7.35 14.24 4.85 16.79 5.49 17.61 8.49 15.88 10.99 13.33 10.36 12.51 7.35" style="fill:#000a39"/><polygon points="12.55 7.42 14.22 4.91 16.73 5.49 17.57 8.42 15.91 10.93 13.39 10.35 12.55 7.42" style="fill:#000a39"/><polygon points="12.59 7.48 14.19 4.98 16.67 5.5 17.54 8.36 15.93 10.86 13.46 10.34 12.59 7.48" style="fill:#000a39"/><polygon points="12.62 7.54 14.17 5.05 16.61 5.5 17.5 8.3 15.96 10.79 13.52 10.34 12.62 7.54" style="fill:#000a3a"/><polygon points="12.66 7.61 14.14 5.12 16.54 5.51 17.46 8.23 15.98 10.72 13.58 10.33 12.66 7.61" style="fill:#000a3a"/><polygon points="12.7 7.67 14.12 5.18 16.48 5.52 17.43 8.17 16.01 10.66 13.64 10.32 12.7 7.67" style="fill:#000a3a"/><polygon points="12.73 7.73 14.09 5.25 16.42 5.52 17.39 8.11 16.03 10.59 13.7 10.32 12.73 7.73" style="fill:#000a3a"/><polygon points="12.77 7.79 14.07 5.32 16.36 5.53 17.35 8.05 16.06 10.52 13.77 10.31 12.77 7.79" style="fill:#000a3a"/><polygon points="12.81 7.86 14.04 5.38 16.3 5.54 17.32 7.98 16.08 10.46 13.83 10.31 12.81 7.86" style="fill:#000a3b"/><polygon points="12.85 7.92 14.02 5.45 16.24 5.54 17.28 7.92 16.11 10.39 13.89 10.3 12.85 7.92" style="fill:#000a3b"/><polygon points="12.88 7.98 13.99 5.52 16.17 5.55 17.24 7.86 16.13 10.32 13.95 10.29 12.88 7.98" style="fill:#000a3b"/><polygon points="12.92 8.05 13.97 5.58 16.11 5.55 17.21 7.79 16.16 10.26 14.01 10.29 12.92 8.05" style="fill:#000a3b"/><polygon points="12.96 8.11 13.94 5.65 16.05 5.56 17.17 7.73 16.18 10.19 14.07 10.28 12.96 8.11" style="fill:#00093b"/><polygon points="12.99 8.17 13.92 5.72 15.99 5.57 17.13 7.67 16.21 10.12 14.14 10.27 12.99 8.17" style="fill:#00093c"/><polygon points="13.03 8.23 13.89 5.79 15.93 5.57 17.1 7.61 16.23 10.05 14.2 10.27 13.03 8.23" style="fill:#00093c"/><polygon points="13.07 8.3 13.87 5.85 15.87 5.58 17.06 7.54 16.26 9.99 14.26 10.26 13.07 8.3" style="fill:#00093c"/><polygon points="13.1 8.36 13.84 5.92 15.8 5.58 17.02 7.48 16.28 9.92 14.32 10.26 13.1 8.36" style="fill:#00093c"/><polygon points="13.14 8.42 13.82 5.99 15.74 5.59 16.98 7.42 16.31 9.85 14.38 10.25 13.14 8.42" style="fill:#00083c"/><polygon points="13.18 8.49 13.79 6.05 15.68 5.6 16.95 7.35 16.33 9.79 14.45 10.24 13.18 8.49" style="fill:#00083c"/><polygon points="13.21 8.55 13.77 6.12 15.62 5.6 16.91 7.29 16.36 9.72 14.51 10.24 13.21 8.55" style="fill:#00083d"/><polygon points="13.25 8.61 13.74 6.19 15.56 5.61 16.87 7.23 16.38 9.65 14.57 10.23 13.25 8.61" style="fill:#00083d"/><polygon points="13.29 8.68 13.72 6.26 15.49 5.62 16.84 7.17 16.41 9.59 14.63 10.22 13.29 8.68" style="fill:#00073d"/><polygon points="13.32 8.74 13.7 6.32 15.43 5.62 16.8 7.1 16.43 9.52 14.69 10.22 13.32 8.74" style="fill:#00073d"/><polygon points="13.36 8.8 13.67 6.39 15.37 5.63 16.76 7.04 16.45 9.45 14.75 10.21 13.36 8.8" style="fill:#00073d"/><polygon points="13.4 8.86 13.64 6.46 15.31 5.64 16.73 6.98 16.48 9.38 14.81 10.21 13.4 8.86" style="fill:#00063d"/><polygon points="13.44 8.93 13.62 6.52 15.25 5.64 16.69 6.91 16.5 9.32 14.88 10.2 13.44 8.93" style="fill:#00063d"/><polygon points="13.47 8.99 13.6 6.59 15.19 5.65 16.65 6.85 16.53 9.25 14.94 10.19 13.47 8.99" style="fill:#00063e"/><polygon points="13.51 9.05 13.57 6.66 15.12 5.65 16.62 6.79 16.55 9.18 15 10.19 13.51 9.05" style="fill:#00053e"/><polygon points="13.55 9.12 13.55 6.72 15.06 5.66 16.58 6.72 16.58 9.12 15.06 10.18 13.55 9.12" style="fill:#00053e"/><polygon points="3.76 5.28 3.76 10.56 7.53 13.21 11.3 10.56 11.3 5.28 7.53 2.63 3.76 5.28" style="fill:#00012d"/><polygon points="3.8 5.34 7.51 2.7 11.24 5.28 11.26 10.5 7.56 13.14 3.83 10.56 3.8 5.34" style="fill:#00012e"/><polygon points="3.84 5.4 7.48 2.77 11.18 5.29 11.22 10.44 7.58 13.07 3.89 10.55 3.84 5.4" style="fill:#00022e"/><polygon points="3.88 5.47 7.46 2.83 11.11 5.3 11.19 10.38 7.61 13.01 3.95 10.54 3.88 5.47" style="fill:#00022f"/><polygon points="3.91 5.53 7.43 2.9 11.05 5.3 11.15 10.31 7.63 12.94 4.01 10.54 3.91 5.53" style="fill:#00032f"/><polygon points="3.95 5.59 7.41 2.97 10.99 5.31 11.11 10.25 7.66 12.87 4.07 10.53 3.95 5.59" style="fill:#00032f"/><polygon points="3.99 5.65 7.38 3.04 10.93 5.32 11.08 10.19 7.68 12.8 4.13 10.53 3.99 5.65" style="fill:#000430"/><polygon points="4.02 5.72 7.36 3.1 10.87 5.32 11.04 10.12 7.71 12.74 4.2 10.52 4.02 5.72" style="fill:#000430"/><polygon points="4.06 5.78 7.33 3.17 10.8 5.33 11 10.06 7.73 12.67 4.26 10.51 4.06 5.78" style="fill:#000531"/><polygon points="4.1 5.84 7.31 3.24 10.74 5.33 10.97 10 7.75 12.6 4.32 10.51 4.1 5.84" style="fill:#000531"/><polygon points="4.13 5.91 7.28 3.3 10.68 5.34 10.93 9.93 7.78 12.54 4.38 10.5 4.13 5.91" style="fill:#000531"/><polygon points="4.17 5.97 7.26 3.37 10.62 5.35 10.89 9.87 7.8 12.47 4.44 10.49 4.17 5.97" style="fill:#000632"/><polygon points="4.21 6.03 7.23 3.44 10.56 5.35 10.86 9.81 7.83 12.4 4.5 10.49 4.21 6.03" style="fill:#000632"/><polygon points="4.24 6.09 7.21 3.5 10.49 5.36 10.82 9.74 7.85 12.34 4.57 10.48 4.24 6.09" style="fill:#000633"/><polygon points="4.28 6.16 7.18 3.57 10.43 5.37 10.78 9.68 7.88 12.27 4.63 10.47 4.28 6.16" style="fill:#000733"/><polygon points="4.32 6.22 7.16 3.64 10.37 5.37 10.74 9.62 7.9 12.2 4.69 10.47 4.32 6.22" style="fill:#000733"/><polygon points="4.36 6.28 7.13 3.71 10.31 5.38 10.71 9.56 7.93 12.13 4.75 10.46 4.36 6.28" style="fill:#000734"/><polygon points="4.39 6.35 7.11 3.77 10.25 5.38 10.67 9.49 7.95 12.07 4.81 10.46 4.39 6.35" style="fill:#000834"/><polygon points="4.43 6.41 7.08 3.84 10.19 5.39 10.63 9.43 7.98 12 4.88 10.45 4.43 6.41" style="fill:#000834"/><polygon points="4.46 6.47 7.06 3.91 10.13 5.4 10.6 9.37 8 11.93 4.94 10.44 4.46 6.47" style="fill:#000835"/><polygon points="4.5 6.54 7.03 3.98 10.06 5.4 10.56 9.3 8.03 11.87 5 10.44 4.5 6.54" style="fill:#000835"/><polygon points="4.54 6.6 7.01 4.04 10 5.41 10.52 9.24 8.05 11.8 5.06 10.43 4.54 6.6" style="fill:#000935"/><polygon points="4.58 6.66 6.98 4.11 9.94 5.42 10.49 9.18 8.08 11.73 5.12 10.43 4.58 6.66" style="fill:#000936"/><polygon points="4.61 6.72 6.96 4.18 9.88 5.42 10.45 9.12 8.1 11.66 5.18 10.42 4.61 6.72" style="fill:#000936"/><polygon points="4.65 6.79 6.93 4.24 9.82 5.43 10.41 9.05 8.13 11.6 5.25 10.41 4.65 6.79" style="fill:#000936"/><polygon points="4.69 6.85 6.91 4.31 9.75 5.43 10.38 8.99 8.15 11.53 5.31 10.41 4.69 6.85" style="fill:#000937"/><polygon points="4.72 6.91 6.88 4.38 9.69 5.44 10.34 8.93 8.18 11.46 5.37 10.4 4.72 6.91" style="fill:#000937"/><polygon points="4.76 6.98 6.86 4.45 9.63 5.45 10.3 8.87 8.2 11.4 5.43 10.39 4.76 6.98" style="fill:#000a37"/><polygon points="4.8 7.04 6.83 4.51 9.57 5.45 10.27 8.8 8.23 11.33 5.49 10.39 4.8 7.04" style="fill:#000a38"/><polygon points="4.83 7.1 6.81 4.58 9.51 5.46 10.23 8.74 8.25 11.26 5.55 10.38 4.83 7.1" style="fill:#000a38"/><polygon points="4.87 7.17 6.79 4.65 9.45 5.47 10.19 8.68 8.28 11.2 5.62 10.38 4.87 7.17" style="fill:#000a38"/><polygon points="4.91 7.23 6.76 4.71 9.38 5.47 10.15 8.61 8.3 11.13 5.68 10.37 4.91 7.23" style="fill:#000a38"/><polygon points="4.95 7.29 6.74 4.78 9.32 5.48 10.12 8.55 8.33 11.06 5.74 10.36 4.95 7.29" style="fill:#000a39"/><polygon points="4.98 7.35 6.71 4.85 9.26 5.49 10.08 8.49 8.35 10.99 5.8 10.36 4.98 7.35" style="fill:#000a39"/><polygon points="5.02 7.42 6.69 4.91 9.2 5.49 10.04 8.42 8.38 10.93 5.86 10.35 5.02 7.42" style="fill:#000a39"/><polygon points="5.05 7.48 6.66 4.98 9.14 5.5 10.01 8.36 8.4 10.86 5.93 10.34 5.05 7.48" style="fill:#000a39"/><polygon points="5.09 7.54 6.64 5.05 9.07 5.5 9.97 8.3 8.43 10.79 5.99 10.34 5.09 7.54" style="fill:#000a3a"/><polygon points="5.13 7.61 6.61 5.12 9.01 5.51 9.93 8.23 8.45 10.72 6.05 10.33 5.13 7.61" style="fill:#000a3a"/><polygon points="5.17 7.67 6.59 5.18 8.95 5.52 9.9 8.17 8.48 10.66 6.11 10.32 5.17 7.67" style="fill:#000a3a"/><polygon points="5.2 7.73 6.56 5.25 8.89 5.52 9.86 8.11 8.5 10.59 6.17 10.32 5.2 7.73" style="fill:#000a3a"/><polygon points="5.24 7.79 6.54 5.32 8.83 5.53 9.82 8.05 8.53 10.52 6.23 10.31 5.24 7.79" style="fill:#000a3a"/><polygon points="5.28 7.86 6.51 5.38 8.77 5.54 9.79 7.98 8.55 10.46 6.3 10.31 5.28 7.86" style="fill:#000a3b"/><polygon points="5.31 7.92 6.49 5.45 8.71 5.54 9.75 7.92 8.57 10.39 6.36 10.3 5.31 7.92" style="fill:#000a3b"/><polygon points="5.35 7.98 6.46 5.52 8.64 5.55 9.71 7.86 8.6 10.32 6.42 10.29 5.35 7.98" style="fill:#000a3b"/><polygon points="5.39 8.05 6.44 5.58 8.58 5.55 9.68 7.79 8.63 10.26 6.48 10.29 5.39 8.05" style="fill:#000a3b"/><polygon points="5.42 8.11 6.41 5.65 8.52 5.56 9.64 7.73 8.65 10.19 6.54 10.28 5.42 8.11" style="fill:#00093b"/><polygon points="5.46 8.17 6.39 5.72 8.46 5.57 9.6 7.67 8.68 10.12 6.61 10.27 5.46 8.17" style="fill:#00093c"/><polygon points="5.5 8.23 6.36 5.79 8.4 5.57 9.56 7.61 8.7 10.05 6.67 10.27 5.5 8.23" style="fill:#00093c"/><polygon points="5.54 8.3 6.34 5.85 8.33 5.58 9.53 7.54 8.72 9.99 6.73 10.26 5.54 8.3" style="fill:#00093c"/><polygon points="5.57 8.36 6.31 5.92 8.27 5.58 9.49 7.48 8.75 9.92 6.79 10.26 5.57 8.36" style="fill:#00093c"/><polygon points="5.61 8.42 6.29 5.99 8.21 5.59 9.45 7.42 8.77 9.85 6.85 10.25 5.61 8.42" style="fill:#00083c"/><polygon points="5.65 8.49 6.26 6.05 8.15 5.6 9.42 7.35 8.8 9.79 6.91 10.24 5.65 8.49" style="fill:#00083c"/><polygon points="5.68 8.55 6.24 6.12 8.09 5.6 9.38 7.29 8.82 9.72 6.97 10.24 5.68 8.55" style="fill:#00083d"/><polygon points="5.72 8.61 6.21 6.19 8.03 5.61 9.34 7.23 8.85 9.65 7.04 10.23 5.72 8.61" style="fill:#00083d"/><polygon points="5.76 8.68 6.19 6.26 7.96 5.62 9.31 7.17 8.87 9.59 7.1 10.22 5.76 8.68" style="fill:#00073d"/><polygon points="5.79 8.74 6.16 6.32 7.9 5.62 9.27 7.1 8.9 9.52 7.16 10.22 5.79 8.74" style="fill:#00073d"/><polygon points="5.83 8.8 6.14 6.39 7.84 5.63 9.23 7.04 8.92 9.45 7.22 10.21 5.83 8.8" style="fill:#00073d"/><polygon points="5.87 8.86 6.11 6.46 7.78 5.64 9.2 6.98 8.95 9.38 7.28 10.21 5.87 8.86" style="fill:#00063d"/><polygon points="5.9 8.93 6.09 6.52 7.72 5.64 9.16 6.91 8.97 9.32 7.35 10.2 5.9 8.93" style="fill:#00063d"/><polygon points="5.94 8.99 6.06 6.59 7.66 5.65 9.12 6.85 9 9.25 7.41 10.19 5.94 8.99" style="fill:#00063e"/><polygon points="5.98 9.05 6.04 6.66 7.59 5.65 9.09 6.79 9.02 9.18 7.47 10.19 5.98 9.05" style="fill:#00053e"/><polygon points="6.01 9.12 6.01 6.72 7.53 5.66 9.05 6.72 9.05 9.12 7.53 10.18 6.01 9.12" style="fill:#00053e"/><polygon points="-3.77 5.28 -3.77 10.56 0 13.21 3.77 10.56 3.77 5.28 0 2.63 -3.77 5.28" style="fill:#00012d"/><polygon points="-3.73 5.34 -0.03 2.7 3.71 5.28 3.73 10.5 0.03 13.14 -3.71 10.56 -3.73 5.34" style="fill:#00012e"/><polygon points="-3.69 5.4 -0.05 2.77 3.64 5.29 3.69 10.44 0.05 13.07 -3.64 10.55 -3.69 5.4" style="fill:#00022e"/><polygon points="-3.66 5.47 -0.07 2.83 3.58 5.3 3.66 10.38 0.07 13.01 -3.58 10.54 -3.66 5.47" style="fill:#00022f"/><polygon points="-3.62 5.53 -0.1 2.9 3.52 5.3 3.62 10.31 0.1 12.94 -3.52 10.54 -3.62 5.53" style="fill:#00032f"/><polygon points="-3.58 5.59 -0.12 2.97 3.46 5.31 3.58 10.25 0.12 12.87 -3.46 10.53 -3.58 5.59" style="fill:#00032f"/><polygon points="-3.55 5.65 -0.15 3.04 3.4 5.32 3.55 10.19 0.15 12.8 -3.4 10.53 -3.55 5.65" style="fill:#000430"/><polygon points="-3.51 5.72 -0.17 3.1 3.33 5.32 3.51 10.12 0.17 12.74 -3.33 10.52 -3.51 5.72" style="fill:#000430"/><polygon points="-3.47 5.78 -0.2 3.17 3.27 5.33 3.47 10.06 0.2 12.67 -3.27 10.51 -3.47 5.78" style="fill:#000531"/><polygon points="-3.44 5.84 -0.22 3.24 3.21 5.33 3.44 10 0.22 12.6 -3.21 10.51 -3.44 5.84" style="fill:#000531"/><polygon points="-3.4 5.91 -0.25 3.3 3.15 5.34 3.4 9.93 0.25 12.54 -3.15 10.5 -3.4 5.91" style="fill:#000531"/><polygon points="-3.36 5.97 -0.27 3.37 3.09 5.35 3.36 9.87 0.27 12.47 -3.09 10.49 -3.36 5.97" style="fill:#000632"/><polygon points="-3.32 6.03 -0.3 3.44 3.03 5.35 3.32 9.81 0.3 12.4 -3.03 10.49 -3.32 6.03" style="fill:#000632"/><polygon points="-3.29 6.09 -0.32 3.5 2.96 5.36 3.29 9.74 0.32 12.34 -2.96 10.48 -3.29 6.09" style="fill:#000633"/><polygon points="-3.25 6.16 -0.35 3.57 2.9 5.37 3.25 9.68 0.35 12.27 -2.9 10.47 -3.25 6.16" style="fill:#000733"/><polygon points="-3.21 6.22 -0.37 3.64 2.84 5.37 3.21 9.62 0.37 12.2 -2.84 10.47 -3.21 6.22" style="fill:#000733"/><polygon points="-3.18 6.28 -0.4 3.71 2.78 5.38 3.18 9.56 0.4 12.13 -2.78 10.46 -3.18 6.28" style="fill:#000734"/><polygon points="-3.14 6.35 -0.42 3.77 2.72 5.38 3.14 9.49 0.42 12.07 -2.72 10.46 -3.14 6.35" style="fill:#000834"/><polygon points="-3.1 6.41 -0.45 3.84 2.65 5.39 3.1 9.43 0.45 12 -2.65 10.45 -3.1 6.41" style="fill:#000834"/><polygon points="-3.07 6.47 -0.47 3.91 2.59 5.4 3.07 9.37 0.47 11.93 -2.59 10.44 -3.07 6.47" style="fill:#000835"/><polygon points="-3.03 6.54 -0.5 3.98 2.53 5.4 3.03 9.3 0.5 11.87 -2.53 10.44 -3.03 6.54" style="fill:#000835"/><polygon points="-2.99 6.6 -0.52 4.04 2.47 5.41 2.99 9.24 0.52 11.8 -2.47 10.43 -2.99 6.6" style="fill:#000935"/><polygon points="-2.96 6.66 -0.55 4.11 2.41 5.42 2.96 9.18 0.55 11.73 -2.41 10.43 -2.96 6.66" style="fill:#000936"/><polygon points="-2.92 6.72 -0.57 4.18 2.35 5.42 2.92 9.12 0.57 11.66 -2.35 10.42 -2.92 6.72" style="fill:#000936"/><polygon points="-2.88 6.79 -0.6 4.24 2.29 5.43 2.88 9.05 0.6 11.6 -2.29 10.41 -2.88 6.79" style="fill:#000936"/><polygon points="-2.85 6.85 -0.62 4.31 2.22 5.43 2.85 8.99 0.62 11.53 -2.22 10.41 -2.85 6.85" style="fill:#000937"/><polygon points="-2.81 6.91 -0.65 4.38 2.16 5.44 2.81 8.93 0.65 11.46 -2.16 10.4 -2.81 6.91" style="fill:#000937"/><polygon points="-2.77 6.98 -0.67 4.45 2.1 5.45 2.77 8.87 0.67 11.4 -2.1 10.39 -2.77 6.98" style="fill:#000a37"/><polygon points="-2.73 7.04 -0.7 4.51 2.04 5.45 2.73 8.8 0.7 11.33 -2.04 10.39 -2.73 7.04" style="fill:#000a38"/><polygon points="-2.7 7.1 -0.72 4.58 1.98 5.46 2.7 8.74 0.72 11.26 -1.98 10.38 -2.7 7.1" style="fill:#000a38"/><polygon points="-2.66 7.17 -0.75 4.65 1.91 5.47 2.66 8.68 0.75 11.2 -1.91 10.38 -2.66 7.17" style="fill:#000a38"/><polygon points="-2.62 7.23 -0.77 4.71 1.85 5.47 2.62 8.61 0.77 11.13 -1.85 10.37 -2.62 7.23" style="fill:#000a38"/><polygon points="-2.59 7.29 -0.8 4.78 1.79 5.48 2.59 8.55 0.8 11.06 -1.79 10.36 -2.59 7.29" style="fill:#000a39"/><polygon points="-2.55 7.35 -0.82 4.85 1.73 5.49 2.55 8.49 0.82 10.99 -1.73 10.36 -2.55 7.35" style="fill:#000a39"/><polygon points="-2.51 7.42 -0.84 4.91 1.67 5.49 2.51 8.42 0.84 10.93 -1.67 10.35 -2.51 7.42" style="fill:#000a39"/><polygon points="-2.48 7.48 -0.87 4.98 1.61 5.5 2.48 8.36 0.87 10.86 -1.61 10.34 -2.48 7.48" style="fill:#000a39"/><polygon points="-2.44 7.54 -0.9 5.05 1.54 5.5 2.44 8.3 0.9 10.79 -1.54 10.34 -2.44 7.54" style="fill:#000a3a"/><polygon points="-2.4 7.61 -0.92 5.12 1.48 5.51 2.4 8.23 0.92 10.72 -1.48 10.33 -2.4 7.61" style="fill:#000a3a"/><polygon points="-2.37 7.67 -0.94 5.18 1.42 5.52 2.37 8.17 0.94 10.66 -1.42 10.32 -2.37 7.67" style="fill:#000a3a"/><polygon points="-2.33 7.73 -0.97 5.25 1.36 5.52 2.33 8.11 0.97 10.59 -1.36 10.32 -2.33 7.73" style="fill:#000a3a"/><polygon points="-2.29 7.79 -0.99 5.32 1.3 5.53 2.29 8.05 0.99 10.52 -1.3 10.31 -2.29 7.79" style="fill:#000a3a"/><polygon points="-2.25 7.86 -1.02 5.38 1.24 5.54 2.25 7.98 1.02 10.46 -1.24 10.31 -2.25 7.86" style="fill:#000a3b"/><polygon points="-2.22 7.92 -1.04 5.45 1.17 5.54 2.22 7.92 1.04 10.39 -1.17 10.3 -2.22 7.92" style="fill:#000a3b"/><polygon points="-2.18 7.98 -1.07 5.52 1.11 5.55 2.18 7.86 1.07 10.32 -1.11 10.29 -2.18 7.98" style="fill:#000a3b"/><polygon points="-2.14 8.05 -1.09 5.58 1.05 5.55 2.14 7.79 1.09 10.26 -1.05 10.29 -2.14 8.05" style="fill:#000a3b"/><polygon points="-2.11 8.11 -1.12 5.65 0.99 5.56 2.11 7.73 1.12 10.19 -0.99 10.28 -2.11 8.11" style="fill:#00093b"/><polygon points="-2.07 8.17 -1.14 5.72 0.93 5.57 2.07 7.67 1.14 10.12 -0.93 10.27 -2.07 8.17" style="fill:#00093c"/><polygon points="-2.03 8.23 -1.17 5.79 0.86 5.57 2.03 7.61 1.17 10.05 -0.86 10.27 -2.03 8.23" style="fill:#00093c"/><polygon points="-2 8.3 -1.19 5.85 0.8 5.58 2 7.54 1.19 9.99 -0.8 10.26 -2 8.3" style="fill:#00093c"/><polygon points="-1.96 8.36 -1.22 5.92 0.74 5.58 1.96 7.48 1.22 9.92 -0.74 10.26 -1.96 8.36" style="fill:#00093c"/><polygon points="-1.92 8.42 -1.24 5.99 0.68 5.59 1.92 7.42 1.24 9.85 -0.68 10.25 -1.92 8.42" style="fill:#00083c"/><polygon points="-1.89 8.49 -1.27 6.05 0.62 5.6 1.89 7.35 1.27 9.79 -0.62 10.24 -1.89 8.49" style="fill:#00083c"/><polygon points="-1.85 8.55 -1.29 6.12 0.56 5.6 1.85 7.29 1.29 9.72 -0.56 10.24 -1.85 8.55" style="fill:#00083d"/><polygon points="-1.81 8.61 -1.32 6.19 0.49 5.61 1.81 7.23 1.32 9.65 -0.49 10.23 -1.81 8.61" style="fill:#00083d"/><polygon points="-1.77 8.68 -1.34 6.26 0.43 5.62 1.77 7.17 1.34 9.59 -0.43 10.22 -1.77 8.68" style="fill:#00073d"/><polygon points="-1.74 8.74 -1.37 6.32 0.37 5.62 1.74 7.1 1.37 9.52 -0.37 10.22 -1.74 8.74" style="fill:#00073d"/><polygon points="-1.7 8.8 -1.39 6.39 0.31 5.63 1.7 7.04 1.39 9.45 -0.31 10.21 -1.7 8.8" style="fill:#00073d"/><polygon points="-1.66 8.86 -1.42 6.46 0.25 5.64 1.66 6.98 1.42 9.38 -0.25 10.21 -1.66 8.86" style="fill:#00063d"/><polygon points="-1.63 8.93 -1.44 6.52 0.18 5.64 1.63 6.91 1.44 9.32 -0.18 10.2 -1.63 8.93" style="fill:#00063d"/><polygon points="-1.59 8.99 -1.47 6.59 0.12 5.65 1.59 6.85 1.47 9.25 -0.12 10.19 -1.59 8.99" style="fill:#00063e"/><polygon points="-1.55 9.05 -1.49 6.66 0.06 5.65 1.55 6.79 1.49 9.18 -0.06 10.19 -1.55 9.05" style="fill:#00053e"/><polygon points="-1.52 9.12 -1.52 6.72 0 5.66 1.52 6.72 1.52 9.12 0 10.18 -1.52 9.12" style="fill:#00053e"/><polygon points="15.06 -2.64 15.06 2.64 18.83 5.29 22.59 2.64 22.59 -2.64 18.83 -5.29 15.06 -2.64" style="fill:#00012d"/><polygon points="7.53 -2.64 7.53 2.64 11.3 5.29 15.06 2.64 15.06 -2.64 11.3 -5.29 7.53 -2.64" style="fill:#00012d"/><polygon points="7.57 -2.58 11.27 -5.22 15 -2.64 15.03 2.58 11.32 5.22 7.59 2.64 7.57 -2.58" style="fill:#00012e"/><polygon points="7.6 -2.52 11.25 -5.15 14.94 -2.63 14.99 2.52 11.35 5.15 7.65 2.63 7.6 -2.52" style="fill:#00022e"/><polygon points="7.64 -2.45 11.22 -5.08 14.88 -2.62 14.95 2.46 11.37 5.09 7.71 2.63 7.64 -2.45" style="fill:#00022f"/><polygon points="7.68 -2.39 11.2 -5.02 14.82 -2.62 14.92 2.39 11.4 5.02 7.78 2.62 7.68 -2.39" style="fill:#00032f"/><polygon points="7.71 -2.33 11.17 -4.95 14.76 -2.61 14.88 2.33 11.42 4.95 7.84 2.61 7.71 -2.33" style="fill:#00032f"/><polygon points="7.75 -2.27 11.15 -4.88 14.69 -2.6 14.84 2.27 11.45 4.88 7.9 2.61 7.75 -2.27" style="fill:#000430"/><polygon points="7.79 -2.2 11.12 -4.82 14.63 -2.6 14.8 2.2 11.47 4.82 7.96 2.6 7.79 -2.2" style="fill:#000430"/><polygon points="7.83 -2.14 11.1 -4.75 14.57 -2.59 14.77 2.14 11.5 4.75 8.02 2.59 7.83 -2.14" style="fill:#000531"/><polygon points="7.86 -2.08 11.07 -4.68 14.51 -2.59 14.73 2.08 11.52 4.68 8.09 2.59 7.86 -2.08" style="fill:#000531"/><polygon points="7.9 -2.01 11.05 -4.62 14.45 -2.58 14.7 2.01 11.54 4.62 8.15 2.58 7.9 -2.01" style="fill:#000531"/><polygon points="7.94 -1.95 11.02 -4.55 14.38 -2.57 14.66 1.95 11.57 4.55 8.21 2.57 7.94 -1.95" style="fill:#000632"/><polygon points="7.97 -1.89 11 -4.48 14.32 -2.57 14.62 1.89 11.6 4.48 8.27 2.57 7.97 -1.89" style="fill:#000632"/><polygon points="8.01 -1.82 10.97 -4.42 14.26 -2.56 14.58 1.82 11.62 4.42 8.33 2.56 8.01 -1.82" style="fill:#000633"/><polygon points="8.05 -1.76 10.95 -4.35 14.2 -2.56 14.55 1.76 11.64 4.35 8.39 2.56 8.05 -1.76" style="fill:#000733"/><polygon points="8.08 -1.7 10.92 -4.28 14.14 -2.55 14.51 1.7 11.67 4.28 8.46 2.55 8.08 -1.7" style="fill:#000733"/><polygon points="8.12 -1.64 10.9 -4.21 14.08 -2.54 14.47 1.64 11.7 4.21 8.52 2.54 8.12 -1.64" style="fill:#000734"/><polygon points="8.16 -1.57 10.87 -4.15 14.01 -2.54 14.44 1.57 11.72 4.15 8.58 2.54 8.16 -1.57" style="fill:#000834"/><polygon points="8.19 -1.51 10.85 -4.08 13.95 -2.53 14.4 1.51 11.74 4.08 8.64 2.53 8.19 -1.51" style="fill:#000834"/><polygon points="8.23 -1.45 10.82 -4.01 13.89 -2.52 14.36 1.45 11.77 4.01 8.7 2.52 8.23 -1.45" style="fill:#000835"/><polygon points="8.27 -1.39 10.8 -3.94 13.83 -2.52 14.33 1.39 11.79 3.94 8.77 2.52 8.27 -1.39" style="fill:#000835"/><polygon points="8.3 -1.32 10.78 -3.88 13.77 -2.51 14.29 1.32 11.82 3.88 8.83 2.51 8.3 -1.32" style="fill:#000935"/><polygon points="8.34 -1.26 10.75 -3.81 13.71 -2.5 14.25 1.26 11.84 3.81 8.89 2.5 8.34 -1.26" style="fill:#000936"/><polygon points="8.38 -1.2 10.72 -3.74 13.64 -2.5 14.21 1.2 11.87 3.74 8.95 2.5 8.38 -1.2" style="fill:#000936"/><polygon points="8.41 -1.13 10.7 -3.68 13.58 -2.49 14.18 1.13 11.89 3.68 9.01 2.49 8.41 -1.13" style="fill:#000936"/><polygon points="8.45 -1.07 10.68 -3.61 13.52 -2.49 14.14 1.07 11.92 3.61 9.07 2.49 8.45 -1.07" style="fill:#000937"/><polygon points="8.49 -1.01 10.65 -3.54 13.46 -2.48 14.11 1.01 11.94 3.54 9.13 2.48 8.49 -1.01" style="fill:#000937"/><polygon points="8.53 -0.94 10.63 -3.48 13.4 -2.47 14.07 0.94 11.97 3.48 9.2 2.47 8.53 -0.94" style="fill:#000a37"/><polygon points="8.56 -0.88 10.6 -3.41 13.34 -2.47 14.03 0.88 11.99 3.41 9.26 2.47 8.56 -0.88" style="fill:#000a38"/><polygon points="8.6 -0.82 10.58 -3.34 13.27 -2.46 13.99 0.82 12.02 3.34 9.32 2.46 8.6 -0.82" style="fill:#000a38"/><polygon points="8.64 -0.76 10.55 -3.27 13.21 -2.45 13.96 0.76 12.04 3.27 9.38 2.46 8.64 -0.76" style="fill:#000a38"/><polygon points="8.67 -0.69 10.53 -3.21 13.15 -2.45 13.92 0.69 12.07 3.21 9.44 2.45 8.67 -0.69" style="fill:#000a38"/><polygon points="8.71 -0.63 10.5 -3.14 13.09 -2.44 13.88 0.63 12.09 3.14 9.51 2.44 8.71 -0.63" style="fill:#000a39"/><polygon points="8.75 -0.57 10.48 -3.07 13.03 -2.44 13.85 0.57 12.12 3.07 9.57 2.44 8.75 -0.57" style="fill:#000a39"/><polygon points="8.78 -0.5 10.45 -3.01 12.96 -2.43 13.81 0.5 12.14 3.01 9.63 2.43 8.78 -0.5" style="fill:#000a39"/><polygon points="8.82 -0.44 10.43 -2.94 12.9 -2.42 13.77 0.44 12.17 2.94 9.69 2.42 8.82 -0.44" style="fill:#000a39"/><polygon points="8.86 -0.38 10.4 -2.87 12.84 -2.42 13.74 0.38 12.19 2.87 9.75 2.42 8.86 -0.38" style="fill:#000a3a"/><polygon points="8.89 -0.32 10.38 -2.81 12.78 -2.41 13.7 0.32 12.22 2.81 9.81 2.41 8.89 -0.32" style="fill:#000a3a"/><polygon points="8.93 -0.25 10.35 -2.74 12.72 -2.4 13.66 0.25 12.24 2.74 9.88 2.4 8.93 -0.25" style="fill:#000a3a"/><polygon points="8.97 -0.19 10.33 -2.67 12.65 -2.4 13.63 0.19 12.27 2.67 9.94 2.4 8.97 -0.19" style="fill:#000a3a"/><polygon points="9.01 -0.13 10.3 -2.6 12.59 -2.39 13.59 0.13 12.29 2.6 10 2.39 9.01 -0.13" style="fill:#000a3a"/><polygon points="9.04 -0.06 10.28 -2.54 12.53 -2.38 13.55 0.06 12.32 2.54 10.06 2.39 9.04 -0.06" style="fill:#000a3b"/><polygon points="9.08 0 10.25 -2.47 12.47 -2.38 13.51 0 12.34 2.47 10.12 2.38 9.08 0" style="fill:#000a3b"/><polygon points="9.12 0.06 10.23 -2.4 12.41 -2.37 13.48 -0.06 12.37 2.4 10.19 2.37 9.12 0.06" style="fill:#000a3b"/><polygon points="9.15 0.13 10.2 -2.33 12.35 -2.37 13.44 -0.13 12.39 2.34 10.25 2.37 9.15 0.13" style="fill:#000a3b"/><polygon points="9.19 0.19 10.18 -2.27 12.29 -2.36 13.4 -0.19 12.42 2.27 10.31 2.36 9.19 0.19" style="fill:#00093b"/><polygon points="9.23 0.25 10.15 -2.2 12.22 -2.35 13.37 -0.25 12.44 2.2 10.37 2.35 9.23 0.25" style="fill:#00093c"/><polygon points="9.26 0.31 10.13 -2.13 12.16 -2.35 13.33 -0.31 12.46 2.13 10.43 2.35 9.26 0.31" style="fill:#00093c"/><polygon points="9.3 0.38 10.1 -2.07 12.1 -2.34 13.29 -0.38 12.49 2.07 10.49 2.34 9.3 0.38" style="fill:#00093c"/><polygon points="9.34 0.44 10.08 -2 12.04 -2.33 13.26 -0.44 12.52 2 10.56 2.33 9.34 0.44" style="fill:#00093c"/><polygon points="9.37 0.5 10.05 -1.93 11.98 -2.33 13.22 -0.5 12.54 1.93 10.62 2.33 9.37 0.5" style="fill:#00083c"/><polygon points="9.41 0.57 10.03 -1.87 11.91 -2.32 13.18 -0.57 12.56 1.87 10.68 2.32 9.41 0.57" style="fill:#00083c"/><polygon points="9.45 0.63 10 -1.8 11.85 -2.32 13.14 -0.63 12.59 1.8 10.74 2.32 9.45 0.63" style="fill:#00083d"/><polygon points="9.48 0.69 9.98 -1.73 11.79 -2.31 13.11 -0.69 12.62 1.73 10.8 2.31 9.48 0.69" style="fill:#00083d"/><polygon points="9.52 0.76 9.95 -1.66 11.73 -2.3 13.07 -0.75 12.64 1.67 10.87 2.3 9.52 0.76" style="fill:#00073d"/><polygon points="9.56 0.82 9.93 -1.6 11.67 -2.3 13.04 -0.82 12.66 1.6 10.93 2.3 9.56 0.82" style="fill:#00073d"/><polygon points="9.6 0.88 9.9 -1.53 11.61 -2.29 13 -0.88 12.69 1.53 10.99 2.29 9.6 0.88" style="fill:#00073d"/><polygon points="9.63 0.94 9.88 -1.46 11.54 -2.28 12.96 -0.94 12.71 1.46 11.05 2.29 9.63 0.94" style="fill:#00063d"/><polygon points="9.67 1.01 9.86 -1.4 11.48 -2.28 12.92 -1.01 12.74 1.4 11.11 2.28 9.67 1.01" style="fill:#00063d"/><polygon points="9.71 1.07 9.83 -1.33 11.42 -2.27 12.89 -1.07 12.76 1.33 11.17 2.27 9.71 1.07" style="fill:#00063e"/><polygon points="9.74 1.13 9.8 -1.26 11.36 -2.27 12.85 -1.13 12.79 1.26 11.23 2.27 9.74 1.13" style="fill:#00053e"/><polygon points="9.78 1.2 9.78 -1.2 11.3 -2.26 12.81 -1.2 12.81 1.2 11.3 2.26 9.78 1.2" style="fill:#00053e"/><polygon points="0 -2.64 0 2.64 3.77 5.29 7.53 2.64 7.53 -2.64 3.77 -5.29 0 -2.64" style="fill:#00012d"/><polygon points="0.04 -2.58 3.74 -5.22 7.47 -2.64 7.5 2.58 3.79 5.22 0.06 2.64 0.04 -2.58" style="fill:#00012e"/><polygon points="0.07 -2.52 3.72 -5.15 7.41 -2.63 7.46 2.52 3.81 5.15 0.12 2.63 0.07 -2.52" style="fill:#00022e"/><polygon points="0.11 -2.45 3.69 -5.08 7.35 -2.62 7.42 2.46 3.84 5.09 0.18 2.63 0.11 -2.45" style="fill:#00022f"/><polygon points="0.15 -2.39 3.67 -5.02 7.29 -2.62 7.38 2.39 3.87 5.02 0.25 2.62 0.15 -2.39" style="fill:#00032f"/><polygon points="0.18 -2.33 3.64 -4.95 7.22 -2.61 7.35 2.33 3.89 4.95 0.31 2.61 0.18 -2.33" style="fill:#00032f"/><polygon points="0.22 -2.27 3.62 -4.88 7.16 -2.6 7.31 2.27 3.92 4.88 0.37 2.61 0.22 -2.27" style="fill:#000430"/><polygon points="0.26 -2.2 3.59 -4.82 7.1 -2.6 7.27 2.2 3.94 4.82 0.43 2.6 0.26 -2.2" style="fill:#000430"/><polygon points="0.29 -2.14 3.57 -4.75 7.04 -2.59 7.24 2.14 3.96 4.75 0.49 2.59 0.29 -2.14" style="fill:#000531"/><polygon points="0.33 -2.08 3.54 -4.68 6.98 -2.59 7.2 2.08 3.99 4.68 0.55 2.59 0.33 -2.08" style="fill:#000531"/><polygon points="0.37 -2.01 3.52 -4.62 6.92 -2.58 7.16 2.01 4.01 4.62 0.62 2.58 0.37 -2.01" style="fill:#000531"/><polygon points="0.4 -1.95 3.49 -4.55 6.85 -2.57 7.13 1.95 4.04 4.55 0.68 2.57 0.4 -1.95" style="fill:#000632"/><polygon points="0.44 -1.89 3.47 -4.48 6.79 -2.57 7.09 1.89 4.06 4.48 0.74 2.57 0.44 -1.89" style="fill:#000632"/><polygon points="0.48 -1.82 3.44 -4.42 6.73 -2.56 7.05 1.82 4.09 4.42 0.8 2.56 0.48 -1.82" style="fill:#000633"/><polygon points="0.52 -1.76 3.42 -4.35 6.67 -2.56 7.02 1.76 4.11 4.35 0.86 2.56 0.52 -1.76" style="fill:#000733"/><polygon points="0.55 -1.7 3.39 -4.28 6.61 -2.55 6.98 1.7 4.14 4.28 0.93 2.55 0.55 -1.7" style="fill:#000733"/><polygon points="0.59 -1.64 3.37 -4.21 6.54 -2.54 6.94 1.64 4.16 4.21 0.99 2.54 0.59 -1.64" style="fill:#000734"/><polygon points="0.63 -1.57 3.34 -4.15 6.48 -2.54 6.91 1.57 4.19 4.15 1.05 2.54 0.63 -1.57" style="fill:#000834"/><polygon points="0.66 -1.51 3.32 -4.08 6.42 -2.53 6.87 1.51 4.21 4.08 1.11 2.53 0.66 -1.51" style="fill:#000834"/><polygon points="0.7 -1.45 3.29 -4.01 6.36 -2.52 6.83 1.45 4.24 4.01 1.17 2.52 0.7 -1.45" style="fill:#000835"/><polygon points="0.74 -1.39 3.27 -3.94 6.3 -2.52 6.79 1.39 4.26 3.94 1.23 2.52 0.74 -1.39" style="fill:#000835"/><polygon points="0.77 -1.32 3.24 -3.88 6.24 -2.51 6.76 1.32 4.29 3.88 1.29 2.51 0.77 -1.32" style="fill:#000935"/><polygon points="0.81 -1.26 3.22 -3.81 6.17 -2.5 6.72 1.26 4.31 3.81 1.36 2.5 0.81 -1.26" style="fill:#000936"/><polygon points="0.85 -1.2 3.19 -3.74 6.11 -2.5 6.68 1.2 4.34 3.74 1.42 2.5 0.85 -1.2" style="fill:#000936"/><polygon points="0.88 -1.13 3.17 -3.68 6.05 -2.49 6.65 1.13 4.36 3.68 1.48 2.49 0.88 -1.13" style="fill:#000936"/><polygon points="0.92 -1.07 3.14 -3.61 5.99 -2.49 6.61 1.07 4.39 3.61 1.54 2.49 0.92 -1.07" style="fill:#000937"/><polygon points="0.96 -1.01 3.12 -3.54 5.93 -2.48 6.57 1.01 4.41 3.54 1.6 2.48 0.96 -1.01" style="fill:#000937"/><polygon points="0.99 -0.94 3.09 -3.48 5.87 -2.47 6.54 0.94 4.44 3.48 1.67 2.47 0.99 -0.94" style="fill:#000a37"/><polygon points="1.03 -0.88 3.07 -3.41 5.8 -2.47 6.5 0.88 4.46 3.41 1.73 2.47 1.03 -0.88" style="fill:#000a38"/><polygon points="1.07 -0.82 3.04 -3.34 5.74 -2.46 6.46 0.82 4.49 3.34 1.79 2.46 1.07 -0.82" style="fill:#000a38"/><polygon points="1.1 -0.76 3.02 -3.27 5.68 -2.45 6.43 0.76 4.51 3.27 1.85 2.46 1.1 -0.76" style="fill:#000a38"/><polygon points="1.14 -0.69 3 -3.21 5.62 -2.45 6.39 0.69 4.54 3.21 1.91 2.45 1.14 -0.69" style="fill:#000a38"/><polygon points="1.18 -0.63 2.97 -3.14 5.56 -2.44 6.35 0.63 4.56 3.14 1.98 2.44 1.18 -0.63" style="fill:#000a39"/><polygon points="1.22 -0.57 2.94 -3.07 5.5 -2.44 6.32 0.57 4.59 3.07 2.04 2.44 1.22 -0.57" style="fill:#000a39"/><polygon points="1.25 -0.5 2.92 -3.01 5.43 -2.43 6.28 0.5 4.61 3.01 2.1 2.43 1.25 -0.5" style="fill:#000a39"/><polygon points="1.29 -0.44 2.9 -2.94 5.37 -2.42 6.24 0.44 4.64 2.94 2.16 2.42 1.29 -0.44" style="fill:#000a39"/><polygon points="1.33 -0.38 2.87 -2.87 5.31 -2.42 6.21 0.38 4.66 2.87 2.22 2.42 1.33 -0.38" style="fill:#000a3a"/><polygon points="1.36 -0.32 2.85 -2.81 5.25 -2.41 6.17 0.32 4.69 2.81 2.28 2.41 1.36 -0.32" style="fill:#000a3a"/><polygon points="1.4 -0.25 2.82 -2.74 5.19 -2.4 6.13 0.25 4.71 2.74 2.35 2.4 1.4 -0.25" style="fill:#000a3a"/><polygon points="1.44 -0.19 2.8 -2.67 5.12 -2.4 6.09 0.19 4.74 2.67 2.41 2.4 1.44 -0.19" style="fill:#000a3a"/><polygon points="1.47 -0.13 2.77 -2.6 5.06 -2.39 6.06 0.13 4.76 2.6 2.47 2.39 1.47 -0.13" style="fill:#000a3a"/><polygon points="1.51 -0.06 2.75 -2.54 5 -2.38 6.02 0.06 4.79 2.54 2.53 2.39 1.51 -0.06" style="fill:#000a3b"/><polygon points="1.55 0 2.72 -2.47 4.94 -2.38 5.98 0 4.81 2.47 2.59 2.38 1.55 0" style="fill:#000a3b"/><polygon points="1.58 0.06 2.7 -2.4 4.88 -2.37 5.95 -0.06 4.83 2.4 2.65 2.37 1.58 0.06" style="fill:#000a3b"/><polygon points="1.62 0.13 2.67 -2.33 4.82 -2.37 5.91 -0.13 4.86 2.34 2.72 2.37 1.62 0.13" style="fill:#000a3b"/><polygon points="1.66 0.19 2.65 -2.27 4.75 -2.36 5.87 -0.19 4.88 2.27 2.78 2.36 1.66 0.19" style="fill:#00093b"/><polygon points="1.7 0.25 2.62 -2.2 4.69 -2.35 5.84 -0.25 4.91 2.2 2.84 2.35 1.7 0.25" style="fill:#00093c"/><polygon points="1.73 0.31 2.6 -2.13 4.63 -2.35 5.8 -0.31 4.93 2.13 2.9 2.35 1.73 0.31" style="fill:#00093c"/><polygon points="1.77 0.38 2.57 -2.07 4.57 -2.34 5.76 -0.38 4.96 2.07 2.96 2.34 1.77 0.38" style="fill:#00093c"/><polygon points="1.81 0.44 2.55 -2 4.51 -2.33 5.72 -0.44 4.98 2 3.02 2.33 1.81 0.44" style="fill:#00093c"/><polygon points="1.84 0.5 2.52 -1.93 4.45 -2.33 5.69 -0.5 5.01 1.93 3.09 2.33 1.84 0.5" style="fill:#00083c"/><polygon points="1.88 0.57 2.5 -1.87 4.38 -2.32 5.65 -0.57 5.03 1.87 3.15 2.32 1.88 0.57" style="fill:#00083c"/><polygon points="1.92 0.63 2.47 -1.8 4.32 -2.32 5.61 -0.63 5.06 1.8 3.21 2.32 1.92 0.63" style="fill:#00083d"/><polygon points="1.95 0.69 2.45 -1.73 4.26 -2.31 5.58 -0.69 5.08 1.73 3.27 2.31 1.95 0.69" style="fill:#00083d"/><polygon points="1.99 0.76 2.42 -1.66 4.2 -2.3 5.54 -0.75 5.11 1.67 3.33 2.3 1.99 0.76" style="fill:#00073d"/><polygon points="2.03 0.82 2.4 -1.6 4.14 -2.3 5.5 -0.82 5.13 1.6 3.4 2.3 2.03 0.82" style="fill:#00073d"/><polygon points="2.06 0.88 2.37 -1.53 4.07 -2.29 5.47 -0.88 5.16 1.53 3.46 2.29 2.06 0.88" style="fill:#00073d"/><polygon points="2.1 0.94 2.35 -1.46 4.01 -2.28 5.43 -0.94 5.18 1.46 3.52 2.29 2.1 0.94" style="fill:#00063d"/><polygon points="2.14 1.01 2.32 -1.4 3.95 -2.28 5.39 -1.01 5.21 1.4 3.58 2.28 2.14 1.01" style="fill:#00063d"/><polygon points="2.17 1.07 2.3 -1.33 3.89 -2.27 5.36 -1.07 5.23 1.33 3.64 2.27 2.17 1.07" style="fill:#00063e"/><polygon points="2.21 1.13 2.27 -1.26 3.83 -2.27 5.32 -1.13 5.26 1.26 3.7 2.27 2.21 1.13" style="fill:#00053e"/><polygon points="2.25 1.2 2.25 -1.2 3.77 -2.26 5.28 -1.2 5.28 1.2 3.77 2.26 2.25 1.2" style="fill:#00053e"/><polygon points="-7.53 -2.64 -7.53 2.64 -3.77 5.29 0 2.64 0 -2.64 -3.77 -5.29 -7.53 -2.64" style="fill:#00012d"/></pattern><radialGradient id="a0153756-1021-4a12-931e-0bce7c22659a" cx="108" cy="108.41" r="102.36" gradientUnits="userSpaceOnUse"><stop offset="0" stop-color="#d5d6d8" stop-opacity="0"/><stop offset="1" stop-opacity="0.5"/></radialGradient><linearGradient id="f37c4ea1-e95c-46fd-99ff-b1fb04326c0a" x1="64.02" y1="140.9" x2="177.53" y2="140.9" gradientUnits="userSpaceOnUse"><stop offset="0" stop-color="#da9127"/><stop offset="0.04" stop-color="#e5b144"/><stop offset="0.08" stop-color="#efcd5d"/><stop offset="0.12" stop-color="#f6e16f"/><stop offset="0.16" stop-color="#faed79"/><stop offset="0.2" stop-color="#fbf17d"/><stop offset="0.28" stop-color="#e7bd4a"/><stop offset="0.34" stop-color="#d99a28"/><stop offset="0.36" stop-color="#cb8f29"/><stop offset="0.4" stop-color="#b77f29"/><stop offset="0.43" stop-color="#ab762a"/><stop offset="0.47" stop-color="#a7732a"/><stop offset="0.51" stop-color="#ac782e"/><stop offset="0.56" stop-color="#b98738"/><stop offset="0.61" stop-color="#cea04a"/><stop offset="0.67" stop-color="#ecc362"/><stop offset="0.68" stop-color="#f6ce6a"/><stop offset="0.72" stop-color="#f3c963"/><stop offset="0.78" stop-color="#ebba50"/><stop offset="0.85" stop-color="#dda232"/><stop offset="0.87" stop-color="#d99a28"/><stop offset="1" stop-color="#f6ce6a"/></linearGradient><linearGradient id="b8fc914b-bb92-4dad-ac82-9f58c1da5ef2" x1="62.45" y1="108" x2="172.43" y2="108" xlink:href="#f37c4ea1-e95c-46fd-99ff-b1fb04326c0a"/><linearGradient id="b70572cd-aedf-45e3-a08a-bee130c2bd4f" x1="64.02" y1="75.1" x2="177.53" y2="75.1" xlink:href="#f37c4ea1-e95c-46fd-99ff-b1fb04326c0a"/></defs><g style="isolation:isolate"><g id="ff3d2466-ef32-484f-8b29-0ab686a9e2d2" data-name="Business Card Front"><polygon id="a95d60c8-7a93-4427-bca4-8161c4444a3c" data-name="front bg" points="216 0 216 216 0 216 0 0 216 0" style="fill:url(#f1938d85-1462-4cb4-b35e-e2b483849747)"/><g id="b051a211-b61f-4ea8-adc6-70713a06cc7a" data-name="front bg"><rect width="216" height="216" style="mix-blend-mode:multiply;fill:url(#a0153756-1021-4a12-931e-0bce7c22659a)"/></g><g id="b1c421f8-8aa6-4c90-93a0-a60e529296a0" data-name="Front content"><path d="M132.48,146.9c1-.59,11.29-9.92,5.69-5.73l-4.5-9c-.07-.14-4.65,3.48-5,3.78-1.13,1-2.26,1.91-3.33,2.92-.18.17-1.37,1.14-1.27,1.35l4.7,9.4A41,41,0,0,0,132.48,146.9Z" style="fill:url(#f37c4ea1-e95c-46fd-99ff-b1fb04326c0a)"/><path d="M180.26,149.29c-5.35-7.39-20.52.52-26.23,4.64v-5.28c6.44-3.09,15.95-7.27,15-15.84a2,2,0,0,0-1.65-1.27c-4.92-.87-10.6,2.44-10.71,7.75,0,.62-.25,1.58.49,1.86,1.15.35,2.81-1.05,3.64-1.74s.74-2.25-.66-1.81a2.73,2.73,0,0,0-1.49,1.16c-.51.74,1.42.5.79,1.26-.6.19-1.42.64-2,.43a8,8,0,0,1,2-5.37,8.38,8.38,0,0,1,1.25-1.05c1.81-.87,4.93-.95,4.91,1.51.6,6.39-7,8.84-11.56,11.27V90.27a5.92,5.92,0,0,0-6.88-5.8A9.76,9.76,0,0,0,143,86.62,87.58,87.58,0,0,0,135.24,93c0-.86,0-1.72,0-2.58a5.92,5.92,0,0,0-7.62-5.74,13.75,13.75,0,0,0-4,2.43A84,84,0,0,0,116.43,93a10.69,10.69,0,0,0-1.94-7.26c-.91-1.23-1.84-2.45-2.76-3.68a37.26,37.26,0,0,0-6,4.65c-2.54,2.24-5.09,4.67-6.28,5.89l0,0c-.58.54-.66.79-.2.51a4.33,4.33,0,0,0,.39-.26l0,0,0,0h0c.21-.15.41-.29.62-.42a4.8,4.8,0,0,1,3-.74A19,19,0,0,1,106.06,96a12.25,12.25,0,0,1,.75,3.46v.13c0,7.62,0,15.23,0,22.85-2.57,2.17-6.73,1.13-8.38-1.7-1.55-3-.56-7.35-.82-10.74V82c0-.06-1.46,1-1.57,1h0q-3.51,2.69-6.77,5.68C89,89,88,89.7,88,90.1q0,16.14,0,32.29c-3.68,3-9.3-.2-9.19-4.83,0-5.85,0-11.71,0-17.56V65c3.44-1.72,9.78-3.76,11.12-7.62.62-5.73-8.15-3.57-11.12-1.94-.17-3.5.79-3.77-1.56-2.16h0C75.07,55,73,56.72,70.94,58.55c-5.11,2-14,5.64-18.15.43,11-5,22.84-7.5,34.69-9.5,10.78-1.58,22-3.92,30.19-11.65,6.12-5.15,14.31-11.69,13.18-20.57-1.75-4.69-7.46-5.76-11.88-6.16C103.59,9.81,89.25,18,77.6,27.25c-1.44,1.44-9.87,6.8-7.35,8.84,1.1.65,3.65-1,3.54-2.23-.37-.38-1.07-.37-1.42-.79-.24-.89,1-1.49,1.62-2L74,31h0l.32-.23h0l-.4.28.41-.29h0C84.14,23.82,95.84,18.5,108,19.06c5,2.29,9.24,7.7,8.74,13.15-.3,2.07-1.57,3.84-3.23,5.61a98.66,98.66,0,0,1-14.71,3.3c-14.24,2.26-28.47,5.5-41.39,12.08-5.35,2.45-9.89,6.37-14,10.48a2.53,2.53,0,0,0-.43,3c5.36,7.39,20.53-.52,26.23-4.64v5.28c-6.43,3.09-16,7.27-15,15.84a2,2,0,0,0,1.65,1.27c4.91.87,10.59-2.44,10.71-7.75,0-.62.24-1.58-.49-1.86-1.15-.35-2.81,1.05-3.65,1.74s-.73,2.25.67,1.81a2.73,2.73,0,0,0,1.49-1.16c.51-.74-1.43-.5-.8-1.26.61-.19,1.43-.64,2-.43a8,8,0,0,1-2,5.37,7.48,7.48,0,0,1-1.25,1c-1.81.87-4.92,1-4.91-1.51-.59-6.39,7-8.84,11.56-11.27q0,28.28,0,56.54a5.93,5.93,0,0,0,6.89,5.8,9.76,9.76,0,0,0,4.13-2.15A87.58,87.58,0,0,0,88,123c0,.86,0,1.72,0,2.58a5.92,5.92,0,0,0,7.62,5.74,13.75,13.75,0,0,0,4-2.43,84,84,0,0,0,7.17-5.89,10.69,10.69,0,0,0,1.94,7.26c.91,1.23,1.84,2.45,2.76,3.68a37.26,37.26,0,0,0,6-4.65c2.53-2.24,5.09-4.67,6.28-5.89l0,0c.58-.54.66-.79.2-.51a4.33,4.33,0,0,0-.39.26l0,0,0,0h0c-.21.15-.41.29-.62.42a4.8,4.8,0,0,1-3,.74,19,19,0,0,1-2.76-4.26,12.25,12.25,0,0,1-.75-3.46v-.13c0-7.62,0-15.23,0-22.85,2.57-2.17,6.73-1.13,8.38,1.7,1.54,3,.55,7.35.82,10.74V134c0,.06,1.46-1,1.57-1h0q3.51-2.69,6.77-5.68c.28-.27,1.26-1,1.26-1.35q0-16.14,0-32.29c3.68-3,9.3.2,9.19,4.83V151c-3.44,1.72-9.78,3.76-11.12,7.62-.62,5.73,8.15,3.57,11.12,1.94.17,3.5-.79,3.77,1.56,2.16h0c2.17-1.66,4.26-3.42,6.3-5.25,5.1-2,14-5.64,18.15-.43-11,5-22.84,7.5-34.69,9.5-10.79,1.58-22,3.92-30.2,11.65-6.11,5.15-14.3,11.69-13.17,20.57,1.75,4.69,7.46,5.76,11.88,6.16,15.38,1.29,29.72-6.87,41.36-16.15,1.45-1.44,9.87-6.8,7.36-8.84-1.1-.65-3.65,1-3.54,2.23.37.38,1.07.37,1.42.79.24.89-1,1.49-1.62,2l-.05,0h0l-.31.23h0l.4-.28-.41.29h0c-9.74,7-21.44,12.27-33.62,11.71-5-2.29-9.24-7.7-8.75-13.15.31-2.07,1.58-3.84,3.24-5.61a98.66,98.66,0,0,1,14.71-3.3c14.24-2.26,28.47-5.5,41.39-12.08,5.35-2.45,9.88-6.37,14-10.48A2.53,2.53,0,0,0,180.26,149.29Zm-16.48-16.5a5.16,5.16,0,0,1,3.67.46,7.52,7.52,0,0,1-1.43,5.2,9.48,9.48,0,0,0,.32-2.95A2.64,2.64,0,0,0,163.78,132.79ZM85.91,55.18c3.85.22,2.52,2.92.15,4.32,1.8-1.82,1.17-3.57-1.22-4.37A9.58,9.58,0,0,1,85.91,55.18Zm-7.1,1.49a21.07,21.07,0,0,1,3.81-1.28c3.22.46,5.36,1.69,2,4.45-1.6,1.67-3.76,2.48-5.84,3.4Zm39.44-24.24c.59-4.9-2.67-10.1-6.66-13,4.57.5,11,3.28,9.72,8.87-.48,2.79-1.93,7.57-4.91,8.42A10,10,0,0,0,118.25,32.43ZM59.46,83.21a5.19,5.19,0,0,1-3.68-.46,7.58,7.58,0,0,1,1.44-5.2,9.49,9.49,0,0,0-.33,3A2.65,2.65,0,0,0,59.46,83.21Zm27.6,39.88c-.29.22-1,.66.13-.09Zm18.81,0c-.3.22-1,.66.12-.09ZM117.25,93l.12-.09C117.66,92.69,118.37,92.25,117.25,93Zm18.8,0,.12-.09C136.46,92.69,137.17,92.25,136.05,93Zm1.28,67.82c-3.86-.22-2.53-2.92-.16-4.32-1.79,1.82-1.16,3.57,1.23,4.37A9.47,9.47,0,0,1,137.33,160.82Zm7.1-1.49a20.91,20.91,0,0,1-3.82,1.28c-3.21-.46-5.35-1.69-2-4.45,1.6-1.67,3.76-2.48,5.84-3.4ZM105,183.57c-.59,4.9,2.67,10.1,6.66,13-4.57-.5-11-3.28-9.72-8.87.48-2.79,1.93-7.57,4.91-8.42A10,10,0,0,0,105,183.57Z" style="fill:url(#b8fc914b-bb92-4dad-ac82-9f58c1da5ef2)"/><path d="M90.76,69.1c-1,.59-11.29,9.92-5.69,5.73l4.5,9c.07.14,4.65-3.48,5-3.78,1.12-1,2.26-1.91,3.33-2.92.18-.17,1.37-1.14,1.26-1.35l-4.7-9.4A42.35,42.35,0,0,0,90.76,69.1Z" style="fill:url(#b70572cd-aedf-45e3-a08a-bee130c2bd4f)"/></g></g></g></svg>