<svg id="e17b8b2a-4cc0-4f58-8f69-b79e799ff680" data-name="final" xmlns="http://www.w3.org/2000/svg" viewBox="0 0 216 216"><rect width="216" height="216" style="fill:#8bd5ed"/><path d="M203.59,131.78a9.41,9.41,0,0,0-12.78-3.72q-2.44,1.35-4.93,2.61c.45-.51.87-1,1.28-1.56,3.89-5.11,5.68-11.16,7.63-18.53,2.36-9,.72-19.22-4.75-29.66a67.27,67.27,0,0,0-8.63-12.72,39,39,0,0,0-27.5-11.73A43.77,43.77,0,0,0,133.19,62c-.64.34-1.27.7-1.88,1.07a33,33,0,0,0-11.54-2.42c-.85,0-1.7-.05-2.53-.05a60,60,0,0,0-12.72,1.27V57.68a9.45,9.45,0,0,0-4.88-8.28A11.77,11.77,0,0,0,85.77,51a9,9,0,0,0-2.68,8.82c.22.89.42,1.81.61,2.75-.52,0-1-.06-1.37-.06s-.72,0-1,0c-1.27.06-2.5.17-3.67.33a20.44,20.44,0,0,0-7-4.4,24,24,0,0,0-2.86-5.85,10,10,0,0,0-8.47-4c-3.69,0-8.51,1.47-11,5.58A9.38,9.38,0,0,0,47,59.08c-6.69,3.64-10,10.84-10.86,15.21l0,.11,0,.26A16.63,16.63,0,0,1,32.29,82a72,72,0,0,0-9.16,12.83l-.15.28-.13.28c-.43,1-4.23,9.85-3.63,17.58,0,.39.05.86.08,1.35.15,3.23.39,8,3.43,12.78a9.41,9.41,0,0,0-6.61,17.42A191.19,191.19,0,0,0,108,168.14a191.19,191.19,0,0,0,91.88-23.59A9.41,9.41,0,0,0,203.59,131.78ZM153,143.27h.13l-.15,0Z" style="fill:#fff"/><g id="ecf41151-f692-4ff5-87b8-3f20419fa046" data-name="FRUITS"><path d="M75.57,130.77s-9,6-29.18,1.38S27.56,118.37,27.1,112.4s3-13.79,3-13.79a64,64,0,0,1,8-11.25,24.13,24.13,0,0,0,5.75-11.49s2.52-12.41,14-11c0,0-1.15-1.84-2.76-4.82s5.06-4.37,6.21-2.76a19.7,19.7,0,0,1,2.75,7.81s9.42.46,11,9.19.69,9.42,4.37,18.61,6.89,14.93,5.28,22.74S82.23,126.18,75.57,130.77Z" style="fill:#d7df23"/><g style="opacity:0.25"><path d="M49.43,80.91l.19,0a1.91,1.91,0,0,0,2-1.79c.32-4.94,2.21-6.06,3.82-6.49a1.92,1.92,0,0,0-1-3.71c-4.07,1.08-6.31,4.43-6.67,10A1.92,1.92,0,0,0,49.43,80.91Z" style="fill:#fff"/></g><path d="M135.71,129.11a36.36,36.36,0,0,1-10.1-11.68A32.73,32.73,0,0,1,122,107c-1.59-9.38-2.42-28.7,15-38,23.45-12.56,38.62,4.5,38.62,4.5s16.14,17.9,11.61,35.07c-3.59,13.59-5.93,20.06-21.73,25.21A32.85,32.85,0,0,1,135.71,129.11Z" style="fill:#f7941d"/><g style="opacity:0.25"><path d="M177.35,86.57l-.2.12a2.34,2.34,0,0,1-3.15-1c-2.78-5.33-6.5-7.67-8.46-8.19a2.33,2.33,0,1,1,1.2-4.51c4.94,1.31,8.29,4.58,11.4,10.54A2.34,2.34,0,0,1,177.35,86.57Z" style="fill:#fff"/></g><path d="M106.72,141.86a.18.18,0,0,0-.27,0A15.28,15.28,0,0,1,94.3,148c-8.08,0-13.1-7.31-13.22-7.49h0c-.26-.34-22.06-28.45-21.25-46.6S70.72,71,81.89,70.47c0,0,4-.53,11.12,3.88a.2.2,0,0,0,.3-.18A123.42,123.42,0,0,0,90.76,58a1.08,1.08,0,0,1,.33-1.07,3.88,3.88,0,0,1,4.73-.57,1.55,1.55,0,0,1,.79,1.36v15.4a.2.2,0,0,0,.31.16c1.48-1,8.27-5.15,22.59-4.68a25.05,25.05,0,0,1,21.21,13,14,14,0,0,1,1.56,4.15c1,5.05,3.22,19.37-2.06,31.91-6.54,15.53-8.45,20.44-16.07,27,0,0,0,0,0,0C123.76,144.82,116.6,148.74,106.72,141.86Z" style="fill:#ec008c"/><path d="M136.19,96.79l-.28,0a2.88,2.88,0,0,1-3.13-2.61c-.66-7.4-3.23-10.13-5.43-11.34a2.88,2.88,0,0,1,2.78-5c5.54,3,7.65,7.6,8.39,15.87A2.88,2.88,0,0,1,136.19,96.79Z" style="fill:#fff"/><circle cx="121.59" cy="76.44" r="3.25" style="fill:#fff"/></g><path d="M29.65,135.46a.7.7,0,0,1,.7,0,1.64,1.64,0,0,1,.53.38.47.47,0,0,1,.07.52c-.17.37-.42.87-.76,1.52s-.57,1.1-.71,1.41c-.23.49-.51,1.16-.84,2s-.56,1.39-.73,1.75-.24.52-.31.66a.65.65,0,0,1-.46.3,1.32,1.32,0,0,1-.88-.16,1.15,1.15,0,0,1-.44-.31.69.69,0,0,1-.19-.32,31.06,31.06,0,0,1-.77-3.53c-.33-1.82-.6-3.24-.85-4.26a22.27,22.27,0,0,1-1,2.38c-.2.41-.47.93-.81,1.57a13.42,13.42,0,0,1-.7,1.24,1.12,1.12,0,0,1-.55.46.93.93,0,0,1-.72-.11.66.66,0,0,1-.39-.4,1,1,0,0,1,.11-.67c.17-.36.47-.89.89-1.58.07-.1.18-.29.34-.57a8.37,8.37,0,0,0,.41-.73q.46-.9,1-2.13c.38-.88.68-1.53.89-1.94a.61.61,0,0,1,.49-.36,1,1,0,0,1,.65.11,1.66,1.66,0,0,1,.52.42c.32,1.35.71,3.31,1.23,5.88.14.85.3,1.71.46,2.56.07-.14.17-.33.29-.59.21-.46.43-.95.66-1.49l.45-1.08c.35-.89.69-1.66,1-2.32A1.29,1.29,0,0,1,29.65,135.46Z" style="fill:#2e3192"/><path d="M34.48,137.45a.73.73,0,0,1,.1.79.61.61,0,0,1-.52.36,1.49,1.49,0,0,1-.81-.14.76.76,0,0,1-.49-.45.81.81,0,0,1,0-.49,2.28,2.28,0,0,1,.39-.63.42.42,0,0,1,.54-.07A2.18,2.18,0,0,1,34.48,137.45Zm-2.19,5.86-.17.4c-.15.35-.28.69-.39,1s-.21.65-.31,1a.44.44,0,0,1-.34.18.7.7,0,0,1-.44,0,1.74,1.74,0,0,1-.53-.35.6.6,0,0,1-.24-.4,4.58,4.58,0,0,1,.25-.81c.32-.74.66-1.57,1-2.51s.54-1.4.69-1.73a.55.55,0,0,1,.44-.3,1.08,1.08,0,0,1,.62.06.84.84,0,0,1,.51.43.86.86,0,0,1-.07.63Z" style="fill:#2e3192"/><path d="M38,148.69a2.12,2.12,0,0,1-.37-.77,3.16,3.16,0,0,1-1.37.05,6.07,6.07,0,0,1-1.41-.34,2.49,2.49,0,0,1-1.29-1.06,1.75,1.75,0,0,1,0-1.58,1.26,1.26,0,0,1,.52-.6,2.44,2.44,0,0,1,.83-.32,4,4,0,0,1,1.15,0,5.06,5.06,0,0,1,1.1.27,7.59,7.59,0,0,1,1.37.7v0a1.23,1.23,0,0,0,0-1.17,2.25,2.25,0,0,0-1.13-.77,1.31,1.31,0,0,0-1.12.07c-.14.08-.37.05-.69-.08a.42.42,0,0,1-.27-.32.81.81,0,0,1,.05-.42.93.93,0,0,1,.64-.54,2.71,2.71,0,0,1,1-.07,3.58,3.58,0,0,1,1,.24,4.09,4.09,0,0,1,.95.56,3.28,3.28,0,0,1,.78.81,2.8,2.8,0,0,1,.36,1.09,2.5,2.5,0,0,1-.15,1.14c0,.12-.13.29-.24.52s-.22.49-.28.67-.09.18-.15.3a2.73,2.73,0,0,0-.19.4.58.58,0,0,0,0,.39,1.1,1.1,0,0,0,.22.41.54.54,0,0,1,.18.3.63.63,0,0,1,0,.27.64.64,0,0,1-.32.27.6.6,0,0,1-.44.06A1.81,1.81,0,0,1,38,148.69Zm-2.35-3.55a.78.78,0,0,0-.74.54.63.63,0,0,0,0,.52.7.7,0,0,0,.37.35,4,4,0,0,0,1.13.31,5.32,5.32,0,0,0,1.23,0,2.81,2.81,0,0,0,.33-.58,1.91,1.91,0,0,1,.1-.23,11.83,11.83,0,0,0-1.33-.67A2.67,2.67,0,0,0,35.62,145.14Z" style="fill:#2e3192"/><path d="M46.3,152.4a2.19,2.19,0,0,1-.15.94,1.09,1.09,0,0,1-.36.51,1.51,1.51,0,0,1-.5.28,6.67,6.67,0,0,1-3.2-.29,4.27,4.27,0,0,1-1.19-.61,4.84,4.84,0,0,1-.83-.8,1.75,1.75,0,0,1-.29-.76,1.63,1.63,0,0,1,.08-.8,1.3,1.3,0,0,1,.66-.74,2,2,0,0,1,1.12-.2,1.11,1.11,0,0,1,.07-.53,1.67,1.67,0,0,1,.71-.64,2.25,2.25,0,0,1-.85-1.2,2.29,2.29,0,0,1,.08-1.48,1.65,1.65,0,0,1,.54-.75,6.79,6.79,0,0,1,1-.59,2,2,0,0,1,1-.18,4.29,4.29,0,0,1,1.3.29,5,5,0,0,1,1.24.68,3.28,3.28,0,0,1,1.85-.06,1.12,1.12,0,0,1,.38.21,1.57,1.57,0,0,1,.29.29,1.07,1.07,0,0,1-.08.54.44.44,0,0,1-.58.26l-.35-.13-.41-.17-.5-.13a3,3,0,0,1,.24.9,2.67,2.67,0,0,1-.17,1.08,1.79,1.79,0,0,1-.71.87,2.83,2.83,0,0,1-1.16.5,4.34,4.34,0,0,1-2-.23l-.27.13a.29.29,0,0,0-.14.12c0,.1,0,.21.21.34a5.18,5.18,0,0,0,.84.43,6.12,6.12,0,0,1,1,.52,4.19,4.19,0,0,1,.77.63A1.58,1.58,0,0,1,46.3,152.4Zm-3.46-1.24a3.73,3.73,0,0,1-.51-.34c-.6.06-1,.24-1.07.54a.72.72,0,0,0,.25.8,2.71,2.71,0,0,0,1,.6,5.89,5.89,0,0,0,.78.21,3.09,3.09,0,0,0,.87.08,1.21,1.21,0,0,0,.39-.08c.09,0,.16-.13.22-.29a.53.53,0,0,0-.19-.56,2,2,0,0,0-.61-.41C43.43,151.47,43.05,151.28,42.84,151.16Zm2.47-2.77a1.26,1.26,0,0,0,.76-.84,1,1,0,0,0-.1-.92,1.53,1.53,0,0,0-.85-.64,2.91,2.91,0,0,0-.83-.16,1.08,1.08,0,0,0-.73.15,1.32,1.32,0,0,0-.34.36,2,2,0,0,0-.26.44.8.8,0,0,0,0,.56,1.81,1.81,0,0,0,.42.61,1.95,1.95,0,0,0,1.88.44Z" style="fill:#2e3192"/><path d="M54.93,154.27a1.43,1.43,0,0,1-.74,0,2.59,2.59,0,0,1-.88-.4,1.56,1.56,0,0,1-.51-.69,2.53,2.53,0,0,1-1.22.16,5.68,5.68,0,0,1-1.33-.22,2.64,2.64,0,0,1-1.43-1,1.7,1.7,0,0,1-.17-1.58,1.48,1.48,0,0,1,.51-.71,2.27,2.27,0,0,1,.84-.44,2.71,2.71,0,0,1,1-.05,7.59,7.59,0,0,1,1.22.27A3.34,3.34,0,0,1,53,150a3.75,3.75,0,0,1,.62.44l.07-.22a1.27,1.27,0,0,0-.09-1.17,2.24,2.24,0,0,0-1.18-.68,1.57,1.57,0,0,0-.51-.07l-.57.06a1.11,1.11,0,0,1-.55,0,.66.66,0,0,1-.36-.29.47.47,0,0,1-.08-.4c.12-.4.48-.6,1-.62a5.34,5.34,0,0,1,1.69.22,4,4,0,0,1,.91.45,3.2,3.2,0,0,1,.78.72,2.58,2.58,0,0,1,.45,1.05,2.5,2.5,0,0,1-.06,1.15c0,.12-.1.3-.19.54s-.17.48-.23.67l-.12.38a3.64,3.64,0,0,0-.17.49.36.36,0,0,0,0,.32.51.51,0,0,0,.28.22l.44.1a.36.36,0,0,1,.23.2.4.4,0,0,1,0,.3A.66.66,0,0,1,54.93,154.27Zm-3.2-2.05a5.4,5.4,0,0,0,1.21-.14,3.3,3.3,0,0,0,.27-.61,3.89,3.89,0,0,0-1.28-.79c-.34-.1-.62-.18-.84-.22a1.12,1.12,0,0,0-.65.07.83.83,0,0,0-.47.59.55.55,0,0,0,.14.54,1,1,0,0,0,.48.35A3.85,3.85,0,0,0,51.73,152.22Z" style="fill:#2e3192"/><path d="M57.45,149.19a.51.51,0,0,1,.28-.32.82.82,0,0,1,.59,0,1.59,1.59,0,0,1,.7.41,1.14,1.14,0,0,1,.32.72,2.92,2.92,0,0,1,.95-.4,2,2,0,0,1,1,0,2.06,2.06,0,0,1,.94.54.92.92,0,0,1,.26.89.81.81,0,0,1-.39.49.69.69,0,0,1-.58.16.43.43,0,0,1-.22-.12,1.48,1.48,0,0,1-.18-.25,2.88,2.88,0,0,0-.21-.28.46.46,0,0,0-.23-.12,1.54,1.54,0,0,0-.47,0,.64.64,0,0,0-.33.1,3.33,3.33,0,0,0-.53.55,1.82,1.82,0,0,0-.27.58c0,.16-.08.29-.12.38-.08.27-.15.54-.23.81q0,.18-.09.42c0,.15,0,.27-.06.35q-.06.39-.15.75a.56.56,0,0,1-.32.37.71.71,0,0,1-.54.06,1.24,1.24,0,0,1-.64-.35.72.72,0,0,1,0-.66l.23-.92c0-.18.1-.44.19-.77s.19-.62.28-.93.25-.82.33-1.11a.61.61,0,0,0,0-.3.75.75,0,0,0-.2-.33A.72.72,0,0,1,57.45,149.19Z" style="fill:#2e3192"/><path d="M68.91,157.66a1.38,1.38,0,0,1-.73.08,2.92,2.92,0,0,1-.92-.34,1.7,1.7,0,0,1-.54-.65,2.7,2.7,0,0,1-1.22.25,5,5,0,0,1-1.33-.13,2.51,2.51,0,0,1-1.48-.85,1.71,1.71,0,0,1-.28-1.56,1.27,1.27,0,0,1,.41-.68,2.24,2.24,0,0,1,.77-.45,3.91,3.91,0,0,1,1.11-.18,5.1,5.1,0,0,1,1.22.12,3.49,3.49,0,0,1,.74.28,4.31,4.31,0,0,1,.64.4l0-.23a1.3,1.3,0,0,0-.17-1.16A2.17,2.17,0,0,0,66,152a1.4,1.4,0,0,0-.54,0l-.63.14a1.81,1.81,0,0,1-.86,0q-.13,0-.21-.24a.58.58,0,0,1,0-.35.91.91,0,0,1,.59-.62,2.91,2.91,0,0,1,1.1-.22,4.86,4.86,0,0,1,1.06.08,4.13,4.13,0,0,1,1,.4,2.94,2.94,0,0,1,.87.67,2.6,2.6,0,0,1,.52,1,2.43,2.43,0,0,1,0,1.14c0,.12-.08.31-.15.56s-.13.49-.17.68a3.68,3.68,0,0,1-.12.39,4.64,4.64,0,0,0-.13.49.37.37,0,0,0,.08.33.48.48,0,0,0,.3.19l.44.07a.36.36,0,0,1,.24.17.41.41,0,0,1,0,.31A.63.63,0,0,1,68.91,157.66Zm-3.32-1.79a5.73,5.73,0,0,0,1.2-.24A3.06,3.06,0,0,0,67,155a3.77,3.77,0,0,0-1.32-.68,2.75,2.75,0,0,0-1.17,0,.76.76,0,0,0-.67.64.55.55,0,0,0,.14.52.83.83,0,0,0,.47.3A3.79,3.79,0,0,0,65.59,155.87Z" style="fill:#2e3192"/><path d="M82.18,151a.67.67,0,0,1,.65-.23,1.43,1.43,0,0,1,.6.21.47.47,0,0,1,.22.47c-.06.4-.15,1-.29,1.68s-.22,1.21-.26,1.55c-.07.54-.15,1.26-.22,2.16s-.13,1.49-.19,1.89-.08.56-.11.72a.64.64,0,0,1-.33.42,1.64,1.64,0,0,1-1.38,0,.71.71,0,0,1-.26-.26,28.09,28.09,0,0,1-1.73-3.14c-.82-1.65-1.48-2.92-2-3.81a23.63,23.63,0,0,1-.3,2.58c-.08.44-.18,1-.31,1.73s-.24,1.18-.31,1.39a1.12,1.12,0,0,1-.38.6.89.89,0,0,1-.71.12.67.67,0,0,1-.48-.27,1.09,1.09,0,0,1-.09-.67,17.07,17.07,0,0,1,.4-1.77c0-.13.08-.34.16-.65s.13-.58.17-.82c.12-.67.21-1.44.29-2.31s.2-1.67.28-2.12a.61.61,0,0,1,.36-.49,1,1,0,0,1,.64-.09,1.83,1.83,0,0,1,.61.25c.68,1.19,1.6,3,2.81,5.25.38.77.77,1.54,1.16,2.31,0-.15.07-.37.11-.66.07-.49.13-1,.19-1.6s.1-1,.12-1.18c.08-.95.17-1.79.27-2.51A1.29,1.29,0,0,1,82.18,151Z" style="fill:#2e3192"/><path d="M86.78,155.47c0,.1,0,.34-.11.71s-.12.76-.14,1a3.92,3.92,0,0,0,.11,1.69.76.76,0,0,0,.37.36,1.21,1.21,0,0,0,.48.17,1.5,1.5,0,0,0,.53,0,1.14,1.14,0,0,0,.41-.18,2.55,2.55,0,0,0,.38-.29,1.47,1.47,0,0,0,.46-.67,6,6,0,0,0,.2-1.07,7.37,7.37,0,0,1,.13-.82,9.65,9.65,0,0,0,.21-1.19.8.8,0,0,1,.22-.5.66.66,0,0,1,.54-.17,1.05,1.05,0,0,1,.4.15.7.7,0,0,1,.29.27,1,1,0,0,1,.07.49,1.64,1.64,0,0,1-.08.35,1.59,1.59,0,0,0-.13.55c0,.12,0,.32,0,.59a4.58,4.58,0,0,1,0,.64,5.08,5.08,0,0,0,0,1.46,3,3,0,0,0,.4.93q.28.33.39.48a.37.37,0,0,1,.09.25.43.43,0,0,1-.22.32.59.59,0,0,1-.41.13,1.53,1.53,0,0,1-1-.46,2.2,2.2,0,0,1-.55-1c-.13.12-.3.26-.5.42a4.25,4.25,0,0,1-.59.41,2.89,2.89,0,0,1-1.63.25,2.15,2.15,0,0,1-.84-.32,3.3,3.3,0,0,1-.78-.67,2,2,0,0,1-.43-.83,1.73,1.73,0,0,1-.06-.25,1.85,1.85,0,0,1,0-.62c.08-.78.17-1.56.26-2.34a2.68,2.68,0,0,0,0-.66,1.62,1.62,0,0,1,0-.45.5.5,0,0,1,.23-.39.64.64,0,0,1,.48-.1C86.59,154.15,86.88,154.62,86.78,155.47Z" style="fill:#2e3192"/><path d="M93.57,156.11a.56.56,0,0,1-.33-.2.52.52,0,0,1-.11-.36.7.7,0,0,1,.07-.22.65.65,0,0,1,.18-.19,2.25,2.25,0,0,1,.56-.27,1.1,1.1,0,0,0,.53-.29,1.16,1.16,0,0,0,.21-.71,2.4,2.4,0,0,0,0-.38,1,1,0,0,1,0-.25.53.53,0,0,1,.27-.47,1,1,0,0,1,.58-.13.68.68,0,0,1,.53.23,1.33,1.33,0,0,1,.1.72,7.69,7.69,0,0,1-.1.85,2,2,0,0,1-.24.63l.71,0,.94,0a.86.86,0,0,1,.45.15.41.41,0,0,1,.19.36.66.66,0,0,1-.17.44.64.64,0,0,1-.41.17,7.84,7.84,0,0,1-1.81.09c0,.38-.08.8-.11,1.25a7.86,7.86,0,0,0,0,1.74,1.26,1.26,0,0,0,.28.71,1,1,0,0,0,.68.25.92.92,0,0,0,.39,0l.17-.06a.7.7,0,0,1,.35-.08.35.35,0,0,1,.32.15.55.55,0,0,1,.08.35.77.77,0,0,1-.51.66,2.37,2.37,0,0,1-1.24.21,2.18,2.18,0,0,1-1.39-.56,1.83,1.83,0,0,1-.61-1.27,10.08,10.08,0,0,1,0-1.95c0-.37.09-.85.17-1.45Z" style="fill:#2e3192"/><path d="M101.3,161.49a.73.73,0,0,1-.52.17,1.11,1.11,0,0,1-.69-.19.74.74,0,0,1-.2-.64c0-.36,0-.84,0-1.43s0-.9,0-1.24a5.66,5.66,0,0,1,0-.61A4.93,4.93,0,0,0,100,157a.81.81,0,0,0-.21-.48.7.7,0,0,0-.47-.2.27.27,0,0,1-.23-.14.42.42,0,0,1-.08-.26.57.57,0,0,1,.31-.5,1.28,1.28,0,0,1,.69-.15,1.2,1.2,0,0,1,1.13,1,3.36,3.36,0,0,1,.94-.69,2.12,2.12,0,0,1,1-.24,1.9,1.9,0,0,1,1,.32.88.88,0,0,1,.45.8.87.87,0,0,1-.26.57.7.7,0,0,1-.53.28.4.4,0,0,1-.24-.07,1.67,1.67,0,0,1-.24-.2,1.44,1.44,0,0,0-.25-.22.45.45,0,0,0-.25-.07,1.22,1.22,0,0,0-.47.06.53.53,0,0,0-.3.17,4,4,0,0,0-.39.65,1.61,1.61,0,0,0-.13.63c0,.16,0,.3,0,.39,0,.28,0,.56,0,.84,0,.13,0,.27,0,.43a2.93,2.93,0,0,0,0,.36,6.54,6.54,0,0,1,0,.76A.61.61,0,0,1,101.3,161.49Z" style="fill:#2e3192"/><path d="M107.24,152.55a.75.75,0,0,1,.39.69.64.64,0,0,1-.33.54,1.49,1.49,0,0,1-.79.19.71.71,0,0,1-.61-.23.74.74,0,0,1-.17-.45,2.47,2.47,0,0,1,.12-.73.43.43,0,0,1,.47-.29A2.31,2.31,0,0,1,107.24,152.55ZM106,158.36v-.43q0-.74-.06-1.35c0-.41-.07-.66-.08-.76a.42.42,0,0,1,.24-.3.68.68,0,0,1,.38-.15,1.81,1.81,0,0,1,.6.11.63.63,0,0,1,.37.28,6.72,6.72,0,0,1,.08.84c0,.43,0,1.14.06,2.12,0,.19,0,.38,0,.58l0,.56c0,.15,0,.34,0,.56s0,.46,0,.73a.55.55,0,0,1-.29.47,1.1,1.1,0,0,1-.62.19.84.84,0,0,1-.64-.19.87.87,0,0,1-.18-.61C105.93,160.13,106,159.24,106,158.36Z" style="fill:#2e3192"/><path d="M109.12,156.44a.48.48,0,0,1-.13-.35.53.53,0,0,1,.21-.44.35.35,0,0,1,.15-.08l.17-.07a1.91,1.91,0,0,0,.43-.17,1,1,0,0,0,.47-.68c.08-.38.12-.63.14-.77a.77.77,0,0,1,.21-.5.78.78,0,0,1,.48-.18.64.64,0,0,1,.54.19,1.22,1.22,0,0,1,.17.7,2.56,2.56,0,0,1-.31,1.29l.71,0,1-.05a.79.79,0,0,1,.46.11.38.38,0,0,1,.2.35.61.61,0,0,1-.52.68,8.43,8.43,0,0,1-1.79.21c-.06,1-.08,1.73-.06,2.29a3.06,3.06,0,0,0,.06.73,1.21,1.21,0,0,0,.34.67,1,1,0,0,0,.69.19,2.72,2.72,0,0,0,.66-.12,2.55,2.55,0,0,1,.43-.09.41.41,0,0,1,.32.13.53.53,0,0,1,.12.35c0,.26-.17.49-.53.67a3.13,3.13,0,0,1-1.32.29,2.08,2.08,0,0,1-.94-.19,2.83,2.83,0,0,1-.79-.51s-.11-.12-.19-.32-.16-.41-.24-.65a5,5,0,0,1-.06-.85c0-.43,0-1.18.07-2.24v-.33a3.15,3.15,0,0,1-.41,0l-.43,0A.58.58,0,0,1,109.12,156.44Z" style="fill:#2e3192"/><path d="M116.81,152.33a.75.75,0,0,1,.43.66.61.61,0,0,1-.3.56,1.47,1.47,0,0,1-.78.23.72.72,0,0,1-.62-.19.75.75,0,0,1-.19-.45,2.35,2.35,0,0,1,.07-.74.42.42,0,0,1,.45-.3A2.14,2.14,0,0,1,116.81,152.33Zm.6,6.23,0,.43q0,.57.09,1.08c0,.34.1.68.16,1a.47.47,0,0,1-.23.31.75.75,0,0,1-.39.18,1.7,1.7,0,0,1-.62-.09c-.21-.06-.34-.14-.38-.25a4,4,0,0,1-.13-.84c0-.8-.1-1.7-.2-2.7s-.12-1.5-.14-1.86a.56.56,0,0,1,.26-.46,1,1,0,0,1,.58-.22.84.84,0,0,1,.63.16.82.82,0,0,1,.21.59C117.33,156.8,117.37,157.68,117.41,158.56Z" style="fill:#2e3192"/><path d="M125.64,156.76a4.44,4.44,0,0,1,.14.69,5.35,5.35,0,0,1,0,.89c0,.33-.07.59-.1.77a3.48,3.48,0,0,1-3.07,2.12,3.13,3.13,0,0,1-1.66-.37,2.69,2.69,0,0,1-1.21-1,7,7,0,0,1-.53-1.58,3.44,3.44,0,0,1,.2-1.26,4.19,4.19,0,0,1,.62-1.19,2.15,2.15,0,0,1,.92-.65,3.87,3.87,0,0,1,1.21-.33,3.91,3.91,0,0,1,1.86.24,3.19,3.19,0,0,1,1.37,1.14A2.2,2.2,0,0,1,125.64,156.76Zm-1.41.92a2.48,2.48,0,0,0-.24-.82,1.91,1.91,0,0,0-.53-.66l-.18-.09a3.59,3.59,0,0,0-.39-.1,2,2,0,0,0-.56,0,1.4,1.4,0,0,0-1.22.76,2.77,2.77,0,0,0-.3,1.52,3.71,3.71,0,0,0,.13.54,3.86,3.86,0,0,0,.18.52,1.82,1.82,0,0,0,.55.44,1.47,1.47,0,0,0,.86.21,1.83,1.83,0,0,0,1.11-.41,2.11,2.11,0,0,0,.59-.9A2.89,2.89,0,0,0,124.23,157.68Z" style="fill:#2e3192"/><path d="M135,158.75a.9.9,0,0,1,.26.06.14.14,0,0,1,.1.12.65.65,0,0,1-.19.61,1.13,1.13,0,0,1-.66.33,1.44,1.44,0,0,1-1-.18,1.76,1.76,0,0,1-.63-.87,2.62,2.62,0,0,1-.16-.68c0-.16,0-.43-.07-.8s-.06-.71-.09-.94a2.46,2.46,0,0,0-.27-.94c-.12-.21-.35-.29-.7-.25a1.43,1.43,0,0,0-.92.53,3.24,3.24,0,0,0-.57,1.32,10,10,0,0,0-.1,3.08c0,.07-.06.16-.21.27a1,1,0,0,1-.53.2.69.69,0,0,1-.79-.49l0-.25a1.6,1.6,0,0,1,0-.31,9.79,9.79,0,0,0,0-1.81c0-.22,0-.4-.07-.52l-.09-.69a1.35,1.35,0,0,0-.26-.66.54.54,0,0,0-.47-.29.71.71,0,0,0-.21.08.59.59,0,0,1-.23.07.49.49,0,0,1-.34-.11.41.41,0,0,1-.21-.29.64.64,0,0,1,.16-.52,2.8,2.8,0,0,1,.43-.32,1.14,1.14,0,0,1,.5-.16,1.39,1.39,0,0,1,.41,0,2.93,2.93,0,0,1,.43.14,1.11,1.11,0,0,1,.4.38,2.87,2.87,0,0,1,.42.91,4.39,4.39,0,0,1,.9-1.26,2.33,2.33,0,0,1,1.49-.66,1.85,1.85,0,0,1,1.54.44A2.63,2.63,0,0,1,134,156c0,.15,0,.39.07.72a6.2,6.2,0,0,0,.07.84q.14,1,.6,1.2Z" style="fill:#2e3192"/><path d="M142.7,155.15l-1.09.07c.08.51.17,1,.26,1.53,0,.26.09.63.18,1.12a.72.72,0,0,1-.12.62.79.79,0,0,1-.48.31,1.9,1.9,0,0,1-.79,0,.48.48,0,0,1-.33-.4c0-.28-.09-.69-.12-1.21-.08-1.12-.21-2.26-.41-3.43s-.4-2.1-.64-3a1,1,0,0,1,.14-.51.77.77,0,0,1,.47-.38,7.23,7.23,0,0,0,1.07-.31,9.54,9.54,0,0,1,1.17-.33,6.11,6.11,0,0,1,2-.14,4.75,4.75,0,0,1,1.53.49,3.8,3.8,0,0,1,1.08,1.42,3.55,3.55,0,0,1,0,1.81,2.91,2.91,0,0,1-1,1.42,4.14,4.14,0,0,1-1.83.79C143.32,155.07,143,155.12,142.7,155.15Zm-1-4.56-.82.32c.2.89.34,1.53.41,1.94a8.52,8.52,0,0,1,.14,1.05,8.39,8.39,0,0,0,1.08,0,7.67,7.67,0,0,0,.86-.12,2.05,2.05,0,0,0,1.5-.87,2,2,0,0,0,.2-1.39,1.62,1.62,0,0,0-.24-.51,1.89,1.89,0,0,0-.33-.37,2.5,2.5,0,0,0-.89-.31,4,4,0,0,0-1.08.08A5.87,5.87,0,0,0,141.65,150.59Z" style="fill:#2e3192"/><path d="M155.81,155.54a1.69,1.69,0,0,1-.63.39,2.89,2.89,0,0,1-1,.09,1.67,1.67,0,0,1-.79-.35,2.59,2.59,0,0,1-1,.76,5.6,5.6,0,0,1-1.26.47,2.64,2.64,0,0,1-1.71-.13,1.7,1.7,0,0,1-.94-1.28,1.5,1.5,0,0,1,.09-.87,2.09,2.09,0,0,1,.5-.79,2.59,2.59,0,0,1,.86-.57,7.67,7.67,0,0,1,1.19-.37,3.5,3.5,0,0,1,.79-.07,3.68,3.68,0,0,1,.76.08l-.06-.23a1.25,1.25,0,0,0-.66-1,2.26,2.26,0,0,0-1.35,0,1.72,1.72,0,0,0-.48.19c-.13.09-.29.2-.46.34a1,1,0,0,1-.48.26.6.6,0,0,1-.45-.07.47.47,0,0,1-.28-.31c-.09-.4.11-.75.6-1.06a5.09,5.09,0,0,1,1.56-.66,3.94,3.94,0,0,1,1-.06,2.94,2.94,0,0,1,1,.23,2.6,2.6,0,0,1,.92.68,2.45,2.45,0,0,1,.52,1c0,.12.07.31.11.56s.09.5.14.69l.08.39a4.59,4.59,0,0,0,.1.51.38.38,0,0,0,.2.26.47.47,0,0,0,.35,0l.43-.12a.35.35,0,0,1,.3,0,.39.39,0,0,1,.17.25A.63.63,0,0,1,155.81,155.54Zm-3.78-.17a5.43,5.43,0,0,0,1-.73,3.87,3.87,0,0,0-.08-.66,3.81,3.81,0,0,0-1.49,0c-.35.08-.63.16-.84.23a1.07,1.07,0,0,0-.53.39.83.83,0,0,0-.1.74.54.54,0,0,0,.39.4,1,1,0,0,0,.59.06A3.92,3.92,0,0,0,152,155.37Z" style="fill:#2e3192"/><path d="M159.29,154.63a.72.72,0,0,1-.45.32,1.22,1.22,0,0,1-.73,0,.75.75,0,0,1-.38-.55c-.09-.35-.22-.8-.4-1.37s-.26-.86-.35-1.19q-.06-.23-.12-.6c-.05-.24-.08-.41-.11-.52a.79.79,0,0,0-.35-.39.64.64,0,0,0-.51-.06.26.26,0,0,1-.26-.06.42.42,0,0,1-.16-.22.57.57,0,0,1,.15-.58,1.29,1.29,0,0,1,.62-.34,1.2,1.2,0,0,1,1.38.6,3.39,3.39,0,0,1,.7-.93,2.25,2.25,0,0,1,.9-.54,2,2,0,0,1,1.09,0,.91.91,0,0,1,.68.63.92.92,0,0,1-.09.63.74.74,0,0,1-.42.43.42.42,0,0,1-.25,0,1.28,1.28,0,0,1-.29-.12,1.42,1.42,0,0,0-.32-.13.39.39,0,0,0-.26,0,1.54,1.54,0,0,0-.43.2.61.61,0,0,0-.24.25,3.15,3.15,0,0,0-.18.74,1.76,1.76,0,0,0,.06.64q.06.24.09.39l.2.81.13.41.13.33c.1.25.18.49.25.73A.6.6,0,0,1,159.29,154.63Z" style="fill:#2e3192"/><path d="M161.52,148.63a.44.44,0,0,1-.22-.29.54.54,0,0,1,.08-.49.31.31,0,0,1,.13-.12l.14-.11a2.49,2.49,0,0,0,.37-.28,1.06,1.06,0,0,0,.27-.79c0-.38-.06-.64-.08-.78a.75.75,0,0,1,.07-.54.71.71,0,0,1,.41-.3.67.67,0,0,1,.58,0,1.26,1.26,0,0,1,.36.63,2.57,2.57,0,0,1,.05,1.32c.14,0,.37-.12.68-.24l1-.34a.8.8,0,0,1,.48,0,.42.42,0,0,1,.3.29.61.61,0,0,1-.32.8,9,9,0,0,1-1.69.7c.22.94.41,1.68.58,2.22a4.28,4.28,0,0,0,.26.68,1.27,1.27,0,0,0,.52.55,1,1,0,0,0,.72,0,2.54,2.54,0,0,0,.61-.3,1.8,1.8,0,0,1,.39-.2.38.38,0,0,1,.35,0,.54.54,0,0,1,.22.3c.08.26,0,.52-.34.8a3,3,0,0,1-1.19.65,2.11,2.11,0,0,1-1,.08,2.77,2.77,0,0,1-.91-.26s-.14-.1-.27-.26a6.56,6.56,0,0,1-.41-.55,3.92,3.92,0,0,1-.3-.81c-.12-.41-.31-1.14-.56-2.17l-.07-.31-.4.09-.43.09A.51.51,0,0,1,161.52,148.63Z" style="fill:#2e3192"/><path d="M175.94,148.25a.86.86,0,0,1,.27,0,.14.14,0,0,1,.12.1.62.62,0,0,1-.06.64,1.09,1.09,0,0,1-.57.46,1.41,1.41,0,0,1-1,.05,1.7,1.7,0,0,1-.8-.71,2.76,2.76,0,0,1-.3-.62c-.06-.16-.14-.42-.25-.78s-.21-.67-.29-.89a2.48,2.48,0,0,0-.47-.86c-.16-.18-.41-.2-.75-.08a1.39,1.39,0,0,0-.79.72,3.23,3.23,0,0,0-.28,1.41,10.11,10.11,0,0,0,.56,3c0,.07,0,.17-.14.31a1,1,0,0,1-.48.31.7.7,0,0,1-.89-.3l-.09-.23a2.05,2.05,0,0,1-.07-.31,10.37,10.37,0,0,0-.39-1.76c-.08-.22-.14-.38-.19-.5l-.24-.65a1.35,1.35,0,0,0-.4-.59.51.51,0,0,0-.52-.17.56.56,0,0,0-.19.11.63.63,0,0,1-.21.13.56.56,0,0,1-.37,0,.38.38,0,0,1-.26-.23.62.62,0,0,1,.05-.55,2,2,0,0,1,.35-.41,1.21,1.21,0,0,1,.46-.26,1.47,1.47,0,0,1,.4-.09,1.75,1.75,0,0,1,.46.05,1,1,0,0,1,.47.27,2.91,2.91,0,0,1,.61.8,4.54,4.54,0,0,1,.62-1.43,2.39,2.39,0,0,1,1.33-1,1.9,1.9,0,0,1,1.62.09,2.66,2.66,0,0,1,1.13,1.46c.05.14.13.37.22.69s.15.53.25.8c.24.65.52,1,.85,1Z" style="fill:#2e3192"/><path d="M176.31,144.69a3.92,3.92,0,0,1,.17-1.18,2.59,2.59,0,0,1,.78-1.14,3.94,3.94,0,0,1,1.19-.8,5.38,5.38,0,0,1,1.24-.34,1.57,1.57,0,0,1,1,.12,2.47,2.47,0,0,1,1.12,1.15,1.18,1.18,0,0,1,.1.7,3.34,3.34,0,0,1-.25.76,1.44,1.44,0,0,1-.65.65,7.84,7.84,0,0,1-1,.53,7.47,7.47,0,0,1-.86.27,9.64,9.64,0,0,1-1,.22,1.68,1.68,0,0,0,.36.48,1.08,1.08,0,0,0,.44.28,1.43,1.43,0,0,0,.75.08,4.9,4.9,0,0,0,.86-.26,3.12,3.12,0,0,0,.93-.58,2.05,2.05,0,0,1,.56-.37.63.63,0,0,1,.5,0,.65.65,0,0,1,.31.34.69.69,0,0,1-.2.74,3.49,3.49,0,0,1-.86.73,5.81,5.81,0,0,1-.87.48,4.35,4.35,0,0,1-1.46.32,3.14,3.14,0,0,1-1.36-.23,3,3,0,0,1-.93-.71,3.09,3.09,0,0,1-.65-1.08A3,3,0,0,1,176.31,144.69Zm2.08-1.61a1.52,1.52,0,0,0-.4.53,2.28,2.28,0,0,0-.19.56,1,1,0,0,0,0,.48,6.69,6.69,0,0,0,1.58-.5,2.42,2.42,0,0,0,.91-.58.57.57,0,0,0,.15-.61c-.07-.19-.27-.31-.59-.36a1.61,1.61,0,0,0-.9.1A2,2,0,0,0,178.39,143.08Z" style="fill:#2e3192"/><path d="M186.87,144.74a.8.8,0,0,1-.4.39,1.22,1.22,0,0,1-.72.13c-.19,0-.34-.2-.46-.48s-.35-.77-.61-1.3-.39-.81-.52-1.12c-.06-.14-.14-.34-.22-.58s-.14-.39-.18-.5a.82.82,0,0,0-.41-.33.68.68,0,0,0-.52,0,.32.32,0,0,1-.27,0,.52.52,0,0,1-.19-.2.55.55,0,0,1,.07-.59,1.28,1.28,0,0,1,2-.06,3.52,3.52,0,0,1,.57-1,2.23,2.23,0,0,1,.81-.66,2,2,0,0,1,1.09-.18.88.88,0,0,1,.78.52.85.85,0,0,1,0,.63.71.71,0,0,1-.36.49.44.44,0,0,1-.25,0,1.28,1.28,0,0,1-.31-.08l-.33-.08a.48.48,0,0,0-.26.05,1.62,1.62,0,0,0-.4.26.62.62,0,0,0-.21.29,4.46,4.46,0,0,0-.07.76,1.71,1.71,0,0,0,.15.62c.07.16.12.28.15.37l.33.78c.05.11.11.24.19.38s.13.24.17.31a6.43,6.43,0,0,1,.36.68A.6.6,0,0,1,186.87,144.74Z" style="fill:#2e3192"/><path d="M194.07,138.25a1.16,1.16,0,0,1,.67.19,1.94,1.94,0,0,1,.45.6,1.36,1.36,0,0,1,.11,1,2.24,2.24,0,0,1-.5.95,2.57,2.57,0,0,1-.65.52c-.25.15-.55.31-.92.49a6,6,0,0,1-.79.29,4.94,4.94,0,0,1-.71.16,3.46,3.46,0,0,1-1.06-.18,1,1,0,0,1-.63-.5.6.6,0,0,1,0-.52.87.87,0,0,1,.43-.39.77.77,0,0,1,.34-.08.46.46,0,0,1,.29.07,1.15,1.15,0,0,0,.79.25,1.91,1.91,0,0,0,.86-.2c.93-.46,1.31-.84,1.16-1.14a.29.29,0,0,0-.16-.15.76.76,0,0,0-.25-.06,3,3,0,0,0-.66,0,5.75,5.75,0,0,0-.7.09,6,6,0,0,1-1.33.21,2.73,2.73,0,0,1-1.16-.22,1.64,1.64,0,0,1-.79-.81,1.19,1.19,0,0,1,0-.82,2.1,2.1,0,0,1,.4-.82,6.4,6.4,0,0,1,.75-.61,5.84,5.84,0,0,1,.74-.49,4.56,4.56,0,0,1,.74-.29,1.66,1.66,0,0,1,.68-.1,3.32,3.32,0,0,1,.84.12.84.84,0,0,1,.51.4.75.75,0,0,1,.08.35.41.41,0,0,1-.06.29,1.53,1.53,0,0,1-.46.34.34.34,0,0,1-.24,0,2,2,0,0,1-.31-.11A.67.67,0,0,0,192,137l-.55.15a3.28,3.28,0,0,0-.47.15,2.08,2.08,0,0,0-.62.47q-.26.28-.15.51c.09.18.32.25.7.22a4.4,4.4,0,0,0,.77-.1l.52-.1a2.74,2.74,0,0,1,.61-.08,4.41,4.41,0,0,1,.65,0Z" style="fill:#2e3192"/></svg>