<svg id="f005e453-f992-4d10-b2bf-4b5e9b1bfb2f" data-name="Layer 3" xmlns="http://www.w3.org/2000/svg" viewBox="0 0 590 432"><rect x="1" width="589" height="431" style="fill:#fff"/><rect y="144" width="590" height="144"/><path d="M98.57,64.44,99.39,69l.62,6.46.06,6.59v.13l.45,6.28-.42,1.52L97.15,95.6l0,.07,0,.07-2.18,5.1-5.78,0-3.64-4-3.69-5.29-.94-1.45-.36-6.16L80,77.26V77.1l-1-6.53-.41-4.79,4.09-.33.55,6.36L83.86,80l.34,8.27,0,.59.35.49,5.23,7.27,2.1,2.93,1.37-3.33,3.35-8.15.2-.5L96.76,87l-1-8,.16-8.11v-.2l0-.19-1.06-6.1h3.77m1.67-2-7.82,0,1.47,8.44-.16,8.26,1,8.12-3.35,8.16L86.2,88.16l-.35-8.3-.61-8.2-.71-8.36L76.44,64,77,70.8l1,6.6.48,6.65.38,6.66,1.26,1.93,3.78,5.42,4.31,4.74,8,0,2.7-6.31,3-5.85.57-2.06L102.07,82,102,75.32l-.64-6.64-1.13-6.25Z"/><path d="M114.36,63l.19,4.48v.15l.76,6.58.67,6.62v.14l1.13,6.46.39,6.48.07,4.49-3.76.33-.63-4.34-.15-6.55v-.15l0-.15-1.12-6.4,0-6.49v-.21l-.66-6.61v-.09l-.66-4.55,3.75-.19m1.91-2.09-8,.39,1,6.72.66,6.62,0,6.67,1.15,6.58.15,6.67.92,6.32,7.5-.64-.1-6.4-.4-6.64L118,80.58,117.31,74l-.76-6.61-.28-6.49Z"/><path d="M136.35,60.46l7.11.15L146.53,63l.25,6.22v.17l0,.17,1.46,6.87,0,7v.1l.39,7.16v.14l.65,5.11-3.65.5-.19-4.76-.35-6.58v-.12l0-.12-1.1-6.33.06-6.43v-.18l0-.17L143,65.39l-.29-1.73-1.75.06-8.74.3-2.13.08.21,2.12L131,73v.13l1.06,6.33L132,85.93v.21l0,.21,1.21,6.38.32,4.69-3.87.27-.29-5.23v-.23l-1.17-6.9.23-7v-.18l0-.17-1.06-7.1-.93-6.36,2.82-3.29,7.15-.74m-.08-2-8.07.83-3.94,4.59,1.07,7.26,1.06,7.1-.24,7.22,1.2,7.11.4,7.25,7.89-.54-.46-6.8L134,86l.16-6.63L133,72.83,132.33,66l8.74-.3L142.12,72l-.06,6.61,1.13,6.51.36,6.59.26,6.94,7.81-1.08-.91-7.07-.39-7.16,0-7.2-1.5-7.08-.29-7.16-4.33-3.31-7.89-.16Z"/><path d="M171.05,57.87l2.08.56,4.43,4.31,1.37,1.88.66,6.88.8,7.31.27,7-.77,2.1-4.09,4.51-1.87,1-7,1.33-5.59.41-.1-4.87v-.2l-.81-6.59-.74-6.65-.86-6.48-.14-6.55v-.17l-.5-4.71,5.62-.3h.09l7.17-.73m-7.77,12.27.12,6.33v.2l.77,6.31.25,6.39.08,2.13,2.12-.22,5.59-.57.84-.09.52-.66,2.9-3.64.52-.66-.1-.84-.79-6.2-.53-6.18,0-6.34v-1l-.79-.61L171,61.56l-.63-.49-.8.08-5.4.57-2.06.22L162.4,64l.88,6.14m7.93-14.3-7.53.77L156,57l.72,6.8.14,6.66.88,6.59.74,6.61.8,6.61.14,7,7.81-.56,7.43-1.41L177.05,94l4.59-5,1-2.84-.3-7.42-.8-7.38-.71-7.4-1.8-2.46-4.92-4.79-2.94-.79Zm-4.78,33.45-.26-6.47-.77-6.39L165.28,70l-.9-6.26,5.4-.57,3.84,3,0,6.43.54,6.31.79,6.24L172,88.72l-5.59.57Z"/><path d="M194,56.15l.89,4.4.22,6.5v.08l.51,6.59.2,6.6v.17l0,.17L197.2,87l.12,4.63-4.17.44-.38-4.69-.4-6.64v-.09l-.69-6.63-.74-6.54-.34-6.59v-.1l-.47-4.54,3.91-.14m1.62-2.06-7.74.29.69,6.66.35,6.64.74,6.6.7,6.62.39,6.64.55,6.77,8-.84-.16-6.65-1.35-6.56-.2-6.65L197.13,67l-.23-6.66-1.26-6.23Z"/><path d="M223.18,53.45l3.2,2.43.43,5.42-3.94.43-.11-3.1-.08-2.22-2.2.31-8.38,1.21-1.8.26.08,1.81.28,6v.19l.88,6.19.06,6.27v.13l0,.14.88,6,.28,1.87,1.88-.17,8.21-.77,2-.18-.17-2-.22-2.59,3.75-.15.35,5.1-2.48,2.83-7,.84L212,90l-3-2.26-.28-7v-.08l0-.09-1-7.93-1-7.8-.13-7.08,2.32-3.07,7-.24h.21l7.06-1m.55-2.1-7.89,1.13-8,.26-3.31,4.38L204.7,65l1,7.92,1,7.92.32,8,4.37,3.26,7.86-.38,7.82-.94,3.55-4-.55-7.86-7.79.31.41,4.67-8.21.77-.88-6-.07-6.4-.89-6.32-.28-6,8.38-1.21.18,5.26,8-.89-.64-8.24-4.58-3.48Z"/><path d="M254.83,50.65l2.87,2.63.89,6.18.05,7.07v.13l0,.14,1,7.07.86,7.06.35,5.16-3.76.24-.7-5.91-.63-7.9-.16-2-2,.16-8.39.67-1.92.15.08,1.92.34,8v.11l0,.12.94,6-3.91.31-.52-5.26L240,75.6v-.14l-.79-7.12-.72-7.12-.63-6.41,2.62-3.32,7.18-.16h.14l7-.67M243.14,68.18l2-.21,7.95-.83,1.89-.2-.1-1.91-.53-9.35-.12-2.07-2.07.19-8.3.79-2,.19.19,2,.88,9.39.19,2m12.39-19.6-7.93.75-8.12.19-3.7,4.68.7,7.21.73,7.13.79,7.14.29,7.18.72,7.28,8-.65-1.28-8.12-.34-8,8.39-.67.64,7.93.92,7.84L263,88l-.48-7.21-.87-7.13-1-7.11-.06-7.2-1-7-4-3.71ZM244.94,66l-.88-9.4,8.3-.79.53,9.36-7.95.83Z"/><path d="M288,47.41l.25,3.82-6.24.32-2.1.11.21,2.09.84,8.31v.1L282.22,70l-.13,7.94v.18l0,.17,1,6-4.05.41L279,78.55v-.12l-.61-8.05v-.11l-1.07-8-1-7.73L276,52.64l-1.91.17-5.83.52-.11-3.68,5.86-.3h.15l.15,0L282,47.72l6-.31m1.86-2.09-8.15.41-7.87,1.62-7.81.41.24,7.75,7.94-.71,1,7.73,1.07,8,.61,8,.12,8.35,8.34-.84L284.09,78l.13-8.11-1.24-8-.84-8.31,8.27-.43-.52-7.8Z"/><path d="M317.94,45.38l.51,4.31.42,6.59v.13l0,.12,1.22,6.34-.22,6.47v.21l.47,6.63v.09l.5,4.34-5.6.77-7.88.24h-.19l-5.79.71L301.05,79l6-.52L315.4,78l2.09-.11-.21-2.08-.89-8.87L316.2,65l-1.92.11-6.24.36h-.1l-4,.43-.44-3.31,4,0h.17l.18,0,6.07-1,1.76-.3-.1-1.79-.48-8.86-.12-2-2,.17-8.37.69h-.13l-6,.89-.17-3.43,5.88-.4,8-.54h.08l5.72-.61m1.76-2.19L312,44l-8,.54-7.84.54.39,7.59,8.18-1.21,8.37-.69.48,8.86-6.06,1-6.31-.07,1,7.54,5.9-.64,6.24-.37.89,8.87-8.34.45-8.11.71.82,7.43,7.8-.95,8-.24,7.64-1.06L322.37,76l-.46-6.63.23-6.69-1.27-6.57-.43-6.64-.74-6.32Z"/><path d="M342.61,42.69l1.88,1,4.83,4.21,1.42,1.71.22,6.77v.12l0,.11,1.07,7.25.25,7.08-.4,2.27-4.29,4.26-1.91,1.18-7,1-5.58.4L333,75.22v-.16l0-.16-1.23-6.42-.26-6.5v-.09l-.55-6.56-.12-6.59v-.11l0-.11-.55-4.37,5.33-.26h.13l.12,0,6.84-1.18m-7.94,12.4.09,6.38v.1l0,.11.76,6.33.4,6.6.14,2.23,2.2-.38,5.71-1,.61-.1.44-.43,3.43-3.35.77-.74-.19-1-1.14-6.25-.49-6.16L347.34,51V50l-.92-.58-4-2.51-.51-.33-.61,0-5.3.13-2.14,0,.2,2.13.57,6.23m8.26-14.49-7.5,1.29-7.49.36.82,6.52.12,6.67.56,6.62.27,6.65L331,75.28l.2,6.88,7.73-.56,7.49-1.06L348.86,79l4.89-4.87.56-3.1L354,63.64,353,56.29l-.23-7.46-2-2.36L345.63,42l-2.7-1.39Zm-5,33.89-.4-6.66-.78-6.4-.1-6.45-.57-6.3,5.3-.13,3.95,2.51.08,6.42.51,6.33,1.15,6.35-3.43,3.34-5.71,1Z"/><path d="M377.4,23.41l5.11.23L387.64,28l0,0,0,0,5.26,4.2,1.15,6.18.29,7.06.29,7.21v.08l.58,7.17V60l0,.1,1.31,7,.58,7,.19,6.33-4.6,5,0,0,0,0-4.19,5.17-5.14.55h-.09l-.09,0-5.76,1.16-5.87-.2h-.15l-.15,0-6.88.82-6.6.3h-.1L351,94h-.09l-.1,0-6.48,1.23-6.45.58h-6.79l-.17,0-6.43,1.19-7.85.16h-.13l-.12,0-7,1-7.14-.13H302l-.21,0-7.07,1.41-7.1.72-7.14.44-7.22-.07h-.2l-7.23.66h-.09l-.1,0-7,1.33-7.1.18h-.06l-7.26.4h-.11l-.11,0-7.08,1.21-7.12.47-7.23.26h-.14l-.14,0-7.06,1.26-7.1.41-7.26.31h-.06l-7.24.52-7.24.52h-.1l-7.13.89-7.17.29h-.1l-.1,0-7.11,1-7.16.35h-.11l-7.18.76-7.23.64h-.08l-.08,0-7,1.2-7.13.11h-.13l-.13,0-7.07,1-7.89.21h-.09l-.1,0-6.58.81-6.58.48-6.65.4h-.13l-.13,0-6.46,1.25-6.43.46-6.6-.19h-.2l-.19,0-6.77,1.14-5.93.05H60.4l-.17,0-5.89,1.11-5.2.41-5.35-4.34L38.89,112l-.19-5.36v-.15l0-.15L37.46,100l0-6.51v-.13l0-.12-.86-6.62v-.06L35.49,80l-.38-6.59-.5-6.55.06-3.32,4.48-5.11.07-.08.06-.08,3.91-5.52,5.13.05h.14l6.06-.38h.12l.12,0,5.87-1.09L67.51,51l6.66-.44h.07l6.59-.68,6.65-.52h.17l6.48-1.09,6.55-.38h.07l6.57-.59,8-.24h.13l.12,0,7-1.09,7.14,0h.17l.17,0,7.15-1.21,7-.91h7.38l7.26-.79,7.18-.92,7.16-.73,7.17-.5,7.23-.2h0l7.26-.41h.15l.14,0,6.94-1.44,7.08.11h.19l.2,0,7-1.27,7.11.09h.16l.16,0,7.15-1.07,7.13-.8,7.2-.44h.05l7.23-.66h.08l7.11-.92,7.17-.25h.1l.1,0,7.08-1,7.16-.14h.18l7.19-.8,7.24-.75,7.18-.83,7.15-.57,8-.45h.09l.09,0,6.49-1,6.57-.17h.09l6.6-.49,6.66-.33h.13l.14,0,6.5-1.22,6.46-.67,6.92-.09h.16l6-.56h.13l5.81-.92m6.47,13,.35,6.84v.13l0,.13,1.25,6.8.7,6.74.08,6.88v.16l.63,6.92v.12L388,78l.54,4.1.56,4.24,2.89-3.14,2.73-3,.66-.72-.16-1-.37-2.35.12,0-.26-1.85-.92-6.49-.1-6.56v-.19l-.75-6.62-.7-6.65-.77-6.55-.3-6.6,0-.84-.63-.56-4.08-3.65-4.22-3.77.92,5.59.81,5m-8.32,21.74.73,7.05.1,7.18v.15l.66,7.21v.1l1,7,.24,1.71H380l4.13,0h2.3l-.31-2.28-1-7.43-1-7.08L384,64.7v-.18l-.8-7.2-.75-7.23-.83-7.17-.56-7.16-.39-7.22-.11-2.18-2.16.31-3.62.51-1.78.25.06,1.8.26,7.07v.07l.54,7.19.38,7.25v.12l0,.12,1.27,7.1M364.42,44.44l.14,7.15v.18l.8,7.2.75,7.23.83,7.17.57,7.16.38,7.22L368,90l2.21-.37,2.94-.49,1.74-.29-.07-1.76-.29-7V80L374,72.79l-.38-7.25v-.12l0-.13-1.27-7.09-.73-7.05L371.49,44v-.15l-.66-7.22v-.09l-1-7-.22-1.64L368,27.8l-3.43-.18-2.39-.13.31,2.39,1,7.49,1,7.07M352.06,29.33l-6.53.13h-.07l-6.66.35h-.12l-.13,0L332.08,31l-6.49.41-6.83.28-2.23.09.34,2.21.51,3.33-4.09.27-.17-3.25-.11-2-2,.14-7.35.5-7.25.53h-.1l-7.13.89-7.18.28h-.2l-7.11,1L267.5,36h-.11l-7.18.75-7.24.64h-.16l-7,1.21-7.13.11h-.13l-.13,0-7.07,1.06-7.15.14H224l-7.17.86-7.17.53-7.25.46h-.12l-.12,0-7.06,1.31-7,.51-7.2-.14h-.19l-.18,0-7,1.17-7.13.14h-.15l-.14,0-7.09,1.22-7.19.58-7.15.73-7.22.22-7.25.32H130l-.14,0-7,1.26-7.29.13-2.21,0,.27,2.2L114,54.9l-4.11.58-.21-3-.15-2-2,.18-6.42.54-6.62.14h-.09l-6.65.44H87.6l-.12,0L81.1,53l-6.5,0h-.18l-7,.61-2.12.18.31,2.11,1.11,7.41.41,7.18.49,7.23v.07l.73,7.17L69,92.13v.16l1.15,7.07.42,7.19.6,7.13.16,1.88,1.89,0,6.58-.16h.13l.13,0,6.44-1,6.53.07h.19l.18,0,6.54-1.15,6.44-.86h8.93l-.24-2.21L114.7,107l4-.48.29,2.87.2,1.94,1.94-.14,7-.54,7.23-.21h.05l7.26-.4h.15l.14,0,7-1.45,7.08.12h.19l.2,0,7-1.27,7.1.08h.16l.16,0,7.16-1.07,7.13-.79,7.2-.45h.06l7.23-.66h.07l7.12-.91,7.17-.26h.1l.1,0,7.09-1,7.15-.15h.18l7.2-.8,7.25-.75,7.17-.83,7.18-.57,7.22-.38h.09l.09,0,7.09-1,7.15-.23h.09l7.19-.54,7.25-.39h.12l.13,0,7.09-1.27,7.06-.73,7.25-.13,2.15,0-.2-2.14-.28-3.09,3.92-.51,0,3.41v2.19L324,94l6.92-.67,6.64-.62h.09l.09,0,6.49-1.23,6.45-.58h6.76l.17,0,6.25-1,1.72-.28-.05-1.75-.19-6.95v-.12l0-.11-1-7,.13-7.12v-.22l0-.21L363,59l-.71-7.08-.45-7.12.07-7.21v-.23l-.78-7.46-.22-2.13-2.11.37-6.71,1.19m-294,41.91.15,7.15v.18l.8,7.2L59.78,93l.82,7.17.57,7.16.39,7.22.11,2.23,2.21-.37,2.94-.49,1.74-.29-.07-1.76-.28-7v-.06l-.54-7.19-.38-7.25v-.12l0-.12L66,85l-.73-7-.1-7.18v-.15l-.66-7.21v-.1l-1-7-.23-1.64-1.65-.08-3.43-.18-2.4-.12.31,2.38,1,7.49,1,7.07m-9.55.84.14,7.15v.18l.8,7.19.75,7.24.83,7.16.57,7.17.38,7.21.12,2.22,2.2-.35,2.61-.42,1.75-.28-.07-1.77-.26-7.07v-.07l-.54-7.19-.38-7.24v-.13l0-.12-1.27-7.1-.73-7-.11-7.17v-.15l-.66-7.22v-.1l-1-7-.24-1.65-1.67-.07-3.13-.11-2.38-.09.32,2.36,1,7.42,1,7.08m-9.25,7.8L40,86.34l0,6.58v.17l.61,6.64v.11l1,6.34-.39,3.33-.13,1.06.81.7,3.69,3.14,3.74,3.18-.45-4.88-.47-5.22-.11-6.85v-.18l-.76-6.85-.72-6.88L46,79.91l-.54-6.81-.35-6.86v-.09l0-.09-.75-5.26-.74-5.12L40.68,60,38,63.91l-.36.52,0,.64,0,1.31v.06L38,73.1v.14l0,.13,1.21,6.51m338-58.47-6,.94-6,.55-7,.09-6.63.69L345,24.92l-6.66.33-6.65.49-6.68.18-6.61,1-8,.45-7.23.57-7.22.83-7.21.75-7.21.8-7.28.15-7.19,1-7.27.26-7.2.92-7.23.66-7.24.45-7.22.8-7.19,1.08-7.3-.09-7.17,1.3-7.3-.11-7.15,1.48-7.26.41-7.27.21-7.24.5-7.22.73-7.21.93-7.22.78H144.1l-7.21.93-7.18,1.22-7.3,0L115.21,45l-8,.25-6.63.59-6.66.38-6.59,1.1-6.65.53L74,48.52,67.38,49l-7,.4-6,1.11-6.06.37-6.17-.06-4.52,6.37-5,5.66L32.61,67l.51,6.64.37,6.66,1.09,6.59.86,6.62,0,6.69,1.24,6.59.22,6.19,5.56,5.18,6,4.88,6.1-.48,6-1.12,6.08-.05,6.93-1.16,6.7.19,6.65-.47,6.58-1.28,6.66-.41,6.65-.48,6.63-.82,8-.21,7.19-1.08,7.27-.11,7.17-1.23,7.23-.64,7.22-.76,7.25-.36,7.2-1,7.26-.29,7.21-.9,7.23-.53,7.25-.52,7.25-.3,7.25-.42,7.18-1.28,7.27-.27,7.24-.47,7.18-1.23,7.26-.39,7.27-.19,7.16-1.35,7.23-.67,7.3.07,7.25-.45,7.23-.73,7.16-1.43,7.31.13,7.2-1.06,8-.17,6.58-1.21H338l6.63-.6L351.22,96l6.64-.62,6.67-.29,7-.83,6.11.21,6-1.21,5.95-.64,4.71-5.81,5.15-5.6L399.18,74l-.59-7.17-1.33-7.11-.59-7.18-.3-7.2-.28-7.21-1.32-7-5.84-4.66-5.65-4.78-6-.27Zm6.87,65.21-4.13,0-1-7-.66-7.21-.1-7.27-.75-7.21-1.28-7.17-.38-7.24-.55-7.24-.26-7.06,3.62-.51.38,7.24.57,7.22.84,7.21.74,7.21.8,7.21.15,7.26,1,7.2,1,7.42Zm-14.26,1-.39-7.24-.57-7.23-.83-7.2-.75-7.21-.8-7.21-.14-7.26-1-7.2-1-7.47,3.43.17,1,7,.65,7.22.11,7.27.74,7.21,1.29,7.17.38,7.24.54,7.23.29,7-2.94.49ZM311.4,39.71l8.29-.55-.84-5.49,6.82-.27,6.65-.42,6.58-1.18,6.67-.34,6.68-.14,6.86-1.21.78,7.46-.07,7.28.45,7.23L361,59.3l1.43,7.15-.13,7.29,1.06,7.19.19,6.95-6.25,1h-6.69l-6.64.6-6.58,1.25-6.63.62-6.93.67,0-5.68-8.07,1.06.45,5-7.33.13-7.22.74-7.17,1.29L287.2,95l-7.23.54-7.27.23-7.19,1-7.25.39-7.24.57-7.21.84-7.22.74-7.22.8-7.27.15-7.2,1-7.27.26-7.2.93-7.23.66-7.25.44-7.22.81-7.19,1.07-7.3-.08-7.17,1.3-7.3-.12L142.61,108l-7.26.4-7.27.21-7.08.54-.49-4.89-8,1,.54,5.09h-6.83l-6.61.88L93,112.36l-6.7-.07-6.6,1.06-6.58.16-.6-7.13-.43-7.24L70.94,92l-.57-7.23-.74-7.21-.49-7.24-.42-7.24L67.6,55.54l7-.61,6.69,0,6.58-1.25,6.65-.44,6.69-.14,6.48-.55.36,5.18,8.18-1.15-.62-5.2,7.45-.13L130.22,50l7.25-.32,7.26-.23,7.23-.73,7.23-.58,7.18-1.24,7.27-.15,7.18-1.18,7.29.14,7.25-.52,7.17-1.33,7.24-.46,7.24-.54,7.21-.87,7.28-.14,7.19-1.08,7.28-.11,7.18-1.24,7.23-.63L267.6,38l7.26-.36,7.2-1,7.27-.29,7.21-.9,7.25-.52,7.33-.5.28,5.27Zm79.07,42.11-.54-4.1-1-6.89-.63-6.92-.08-7L387.48,50l-1.26-6.87-.35-7L385,31.1l4.08,3.65.31,6.67.78,6.63.69,6.62.75,6.63.1,6.69.94,6.61-.15,0,.67,4.23-2.73,3ZM63.55,114.44l-.38-7.24L62.6,100l-.84-7.2L61,85.56l-.8-7.21-.15-7.26-1-7.2-1-7.47,3.43.17,1,7,.66,7.21.1,7.27L64,85.28l1.28,7.17.38,7.24.55,7.24.28,7-2.94.49Zm-9.55.84L53.61,108,53,100.81l-.83-7.2-.75-7.21-.8-7.21-.14-7.27-1-7.19-1-7.42,3.14.11,1,7,.65,7.22.11,7.26.74,7.21,1.29,7.17.38,7.24.54,7.24.27,7.07-2.62.42Zm-7.13-2.39-3.69-3.14.43-3.6-1-6.6L42,92.91l0-6.68-.7-6.64L40,73l-.33-6.67,0-1.31,2.67-3.94.75,5.25.36,6.89L44,80.11l.8,6.85.72,6.86.77,6.86.11,6.92.48,5.29Z"/><polygon points="100.24 206.93 92.42 206.96 93.89 215.4 93.73 223.66 94.78 231.78 91.43 239.93 86.2 232.66 85.85 224.36 85.24 216.16 84.53 207.79 76.44 208.45 77.03 215.3 78.02 221.9 78.5 228.55 78.88 235.21 80.14 237.13 83.92 242.55 88.23 247.3 96.22 247.34 98.92 241.03 101.97 235.18 102.54 233.11 102.07 226.5 102.01 219.82 101.37 213.18 100.24 206.93" style="fill:#fff"/><polygon points="117.31 218.46 116.55 211.85 116.27 205.35 108.32 205.75 109.29 212.47 109.95 219.09 109.91 225.76 111.06 232.34 111.21 239 112.13 245.33 119.63 244.68 119.53 238.28 119.13 231.65 117.98 225.08 117.31 218.46" style="fill:#fff"/><polygon points="150.28 220.67 148.78 213.59 148.49 206.43 144.16 203.12 136.27 202.96 128.2 203.79 124.27 208.38 125.33 215.63 126.39 222.74 126.15 229.96 127.35 237.06 127.75 244.32 135.64 243.78 135.18 236.98 133.95 230.48 134.11 223.85 133.02 217.33 132.33 210.52 141.07 210.22 142.12 216.53 142.06 223.14 143.19 229.65 143.55 236.24 143.81 243.18 151.62 242.1 150.71 235.03 150.32 227.87 150.28 220.67" style="fill:#fff"/><path d="M180.87,208.38l-1.8-2.46-4.92-4.79-2.94-.79-7.53.77-7.72.41.72,6.81.14,6.66.88,6.59.74,6.61.8,6.61.14,7,7.81-.57,7.43-1.4,2.43-1.34,4.59-5,1-2.84-.3-7.42-.8-7.38Zm-6,21.19L172,233.22l-5.59.57-.26-6.47-.77-6.4-.12-6.45-.9-6.26,5.4-.57,3.84,3,0,6.43.54,6.31Z" style="fill:#fff"/><polygon points="197.13 211.48 196.9 204.82 195.64 198.58 187.9 198.87 188.59 205.53 188.94 212.18 189.68 218.78 190.38 225.4 190.77 232.04 191.32 238.81 199.36 237.96 199.2 231.31 197.85 224.76 197.65 218.11 197.13 211.48" style="fill:#fff"/><polygon points="215.84 196.97 207.87 197.24 204.56 201.62 204.7 209.5 205.71 217.42 206.72 225.34 207.04 233.3 211.41 236.56 219.27 236.18 227.09 235.24 230.64 231.2 230.09 223.34 222.3 223.65 222.71 228.32 214.5 229.08 213.62 223.1 213.56 216.71 212.66 210.39 212.38 204.41 220.76 203.2 220.94 208.45 228.95 207.57 228.31 199.33 223.73 195.85 215.84 196.97" style="fill:#fff"/><path d="M260.64,211l-.06-7.2-1-7-4-3.7-7.93.75-8.12.18-3.7,4.69.7,7.21.73,7.13.79,7.14.29,7.18.72,7.27,8-.64-1.28-8.12-.34-8,8.39-.67.64,7.93.92,7.84,7.65-.49-.48-7.22-.87-7.12Zm-7.75-1.37-7.95.83-.88-9.39,8.3-.79Z" style="fill:#fff"/><polygon points="273.88 191.85 266.06 192.26 266.3 200.01 274.24 199.3 275.28 207.03 276.35 215.03 276.96 223.08 277.08 231.42 285.42 230.59 284.1 222.46 284.22 214.35 282.98 206.36 282.14 198.04 290.41 197.62 289.89 189.81 281.75 190.23 273.88 191.85" style="fill:#fff"/><polygon points="320.44 194.01 319.7 187.69 312.01 188.5 304.04 189.04 296.2 189.58 296.59 197.17 304.77 195.96 313.14 195.27 313.62 204.13 307.56 205.15 301.25 205.08 302.26 212.61 308.16 211.98 314.4 211.61 315.29 220.47 306.95 220.93 298.84 221.63 299.65 229.07 307.46 228.12 315.45 227.87 323.09 226.82 322.37 220.54 321.91 213.91 322.14 207.22 320.87 200.65 320.44 194.01" style="fill:#fff"/><path d="M352.72,193.33l-2-2.37-5.12-4.47-2.7-1.39-7.5,1.29-7.49.36.82,6.52.12,6.66.56,6.62.27,6.66,1.26,6.57.2,6.88,7.73-.56,7.49-1.06,2.47-1.52,4.89-4.87.56-3.1-.27-7.41L353,200.79ZM343.65,218l-5.71,1-.4-6.67-.78-6.39-.1-6.45-.57-6.31,5.3-.12,3.95,2.51.08,6.42.51,6.33,1.15,6.35Z" style="fill:#fff"/><path d="M396.67,197.08l-.3-7.2-.28-7.21-1.32-7L388.93,171l-5.65-4.78-6-.27-6,.94-6,.55-7,.09-6.63.69L345,169.41l-6.66.33-6.65.5-6.68.18-6.61,1-8,.45-7.23.58-7.22.83-7.21.75-7.21.8-7.28.14-7.19,1-7.27.25-7.2.93-7.23.66-7.24.45-7.22.8-7.19,1.08-7.3-.09-7.17,1.3-7.3-.12-7.15,1.49-7.26.41-7.27.2-7.24.5-7.22.74-7.21.93-7.22.78H144.1l-7.21.93-7.18,1.21-7.3,0-7.2,1.11-8,.24-6.63.6-6.66.37-6.59,1.11-6.65.52L74,193l-6.66.44-7,.4-6,1.11-6.06.37-6.17-.06-4.52,6.37-5,5.66-.07,4.14.51,6.65.37,6.66,1.09,6.59.86,6.62,0,6.69,1.24,6.59.22,6.18,5.56,5.19,6,4.88,6.1-.48,6-1.13,6.08,0,6.93-1.17,6.7.2,6.65-.47,6.58-1.28,6.66-.41,6.65-.48,6.63-.82,8-.21,7.19-1.08L136,260l7.17-1.23,7.23-.64,7.22-.76,7.25-.36,7.2-1,7.26-.28,7.21-.9,7.23-.53,7.25-.52,7.25-.3,7.25-.43,7.18-1.28,7.27-.26,7.24-.47,7.18-1.23,7.26-.4,7.27-.18,7.16-1.36,7.23-.66,7.3.07,7.25-.45,7.23-.73,7.16-1.44,7.31.14,7.2-1.07,8-.16,6.58-1.21H338l6.63-.6,6.59-1.25,6.64-.62,6.67-.3,7-.82,6.11.2,6-1.2,5.95-.65,4.71-5.8,5.15-5.6-.21-7.19-.59-7.18-1.33-7.11ZM49.29,259.74l-6.12-5.52.44-3.57-1-6.61L42,237.41l0-6.69-.7-6.63L40,217.5l-.33-6.67,0-1.3,4.6-6.23.66,6.7.37,7.12.56,7.1.82,7.08.74,7.08.79,7.08.13,7.15Zm7.82-14.8.55,7.23.28,7-4.64.64-.38-7.25-.58-7.22-.83-7.2L50.76,231l-.8-7.21-.14-7.27-1-7.19-1-7.47H53l1,7,.66,7.22.1,7.27.75,7.21,1.28,7.16Zm9-.79.54,7.24.28,7-4.63.63-.39-7.24-.57-7.22-.83-7.21-.75-7.21-.8-7.21-.15-7.26-1-7.2-1-7.46h5.13l1,7,.65,7.22.11,7.26.74,7.21,1.29,7.17Zm297.28-18.72.19,6.95-6.25,1h-6.69L344,234l-6.58,1.25-6.63.62-6.93.67,0-5.68-8.07,1.06.45,5-7.33.12-7.22.75-7.17,1.29-7.25.38L280,240l-7.27.23-7.19,1-7.25.39-7.24.57-7.21.83-7.22.75-7.22.8-7.27.15-7.2,1-7.27.26-7.2.93-7.23.66-7.26.44-7.21.81-7.19,1.07-7.3-.09-7.17,1.31-7.3-.12-7.16,1.49-7.26.4-7.27.21-7.08.54-.49-4.9-8,1,.54,5.09-6.83,0-6.61.88L93,256.86l-6.7-.07-6.6,1.06-6.58.16-.6-7.13-.43-7.24-1.16-7.17-.57-7.23L69.63,222l-.49-7.24-.42-7.24L67.6,200l7-.61,6.69,0,6.58-1.25,6.65-.45,6.69-.13,6.48-.55.36,5.17,8.18-1.14-.62-5.2,7.45-.14,7.17-1.29,7.25-.31,7.26-.23,7.23-.73,7.23-.59,7.18-1.23,7.27-.15,7.18-1.18,7.29.14,7.25-.53,7.17-1.33,7.24-.45,7.24-.54,7.21-.87,7.28-.14,7.19-1.08,7.28-.12,7.18-1.23,7.23-.64,7.22-.76,7.26-.36,7.2-1,7.27-.29,7.21-.9,7.25-.53,7.33-.5.28,5.28,8.29-.55-.84-5.49,6.82-.27,6.65-.43,6.58-1.17,6.67-.34,6.68-.14,6.86-1.21.78,7.46-.07,7.28.45,7.23.73,7.21,1.43,7.16-.13,7.29Zm10.54-8.21.55,7.24.26,7.06-3.82.53-.38-7.24-.57-7.23-.84-7.2-.74-7.21-.8-7.21-.15-7.26-1-7.2-1-7.43,4.33,0,1,7,.66,7.21.1,7.27.75,7.21,1.28,7.17ZM380,231.09l-1-7-.66-7.22-.1-7.26-.75-7.21-1.28-7.17-.38-7.24-.55-7.24-.26-7.06,3.62-.51.38,7.24.57,7.22.84,7.2.74,7.22.8,7.21.15,7.26,1,7.19,1,7.43Zm9.17-38.46.7,6.63.75,6.63.09,6.68.94,6.62-.15,0,.67,4.23-4.1,8.07-.33-7.72-1-7.18-.66-7.22-.1-7.27-.75-7.21-1.28-7.16-.38-7.25-.54-7.25,5,6,.33,0-.47,0,.52,6.65Z" style="fill:#fff"/><polygon points="102.24 349.93 94.42 349.96 95.89 358.39 95.73 366.66 96.78 374.78 93.43 382.93 88.2 375.66 87.85 367.36 87.24 359.16 86.53 350.79 78.44 351.45 79.03 358.3 80.02 364.9 80.5 371.55 80.88 378.21 82.14 380.13 85.92 385.55 90.23 390.3 98.22 390.34 100.92 384.03 103.97 378.18 104.54 376.11 104.07 369.5 104.01 362.82 103.37 356.18 102.24 349.93" style="fill:#231f20"/><polygon points="119.31 361.46 118.55 354.85 118.27 348.35 110.32 348.75 111.29 355.47 111.95 362.09 111.91 368.76 113.06 375.34 113.21 382 114.13 388.33 121.63 387.68 121.53 381.28 121.13 374.65 119.98 368.08 119.31 361.46" style="fill:#231f20"/><polygon points="152.28 363.67 150.78 356.59 150.49 349.43 146.16 346.12 138.27 345.96 130.2 346.79 126.27 351.38 127.33 358.63 128.39 365.74 128.15 372.96 129.35 380.06 129.75 387.32 137.64 386.78 137.18 379.98 135.95 373.48 136.11 366.85 135.02 360.33 134.33 353.52 143.07 353.22 144.12 359.52 144.06 366.14 145.19 372.65 145.55 379.24 145.81 386.18 153.62 385.1 152.71 378.03 152.32 370.87 152.28 363.67" style="fill:#231f20"/><path d="M182.87,351.38l-1.8-2.46-4.92-4.79-2.94-.79-7.53.77-7.72.41.72,6.81.14,6.66.88,6.59.74,6.61.8,6.61.14,7,7.81-.57,7.43-1.4,2.43-1.34,4.59-5,1-2.84-.3-7.42-.8-7.38Zm-6,21.19L174,376.22l-5.59.57-.26-6.47-.77-6.4-.12-6.45-.9-6.26,5.4-.57,3.84,2.95,0,6.43.54,6.31Z" style="fill:#231f20"/><polygon points="199.13 354.48 198.9 347.82 197.64 341.58 189.9 341.87 190.59 348.53 190.94 355.18 191.68 361.78 192.38 368.4 192.77 375.04 193.32 381.81 201.36 380.96 201.2 374.31 199.85 367.76 199.65 361.11 199.13 354.48" style="fill:#231f20"/><polygon points="217.84 339.97 209.87 340.24 206.56 344.62 206.7 352.5 207.71 360.42 208.72 368.34 209.04 376.3 213.41 379.56 221.27 379.18 229.09 378.24 232.64 374.2 232.09 366.33 224.3 366.65 224.71 371.32 216.5 372.08 215.62 366.11 215.56 359.71 214.66 353.39 214.38 347.4 222.76 346.2 222.94 351.45 230.95 350.57 230.31 342.33 225.73 338.85 217.84 339.97" style="fill:#231f20"/><path d="M262.64,354l-.06-7.2-1-7-4.05-3.7-7.93.75-8.12.18-3.7,4.69.7,7.21.73,7.13.79,7.14.29,7.18.72,7.27,8-.64-1.28-8.12-.34-8,8.39-.67.64,7.93.92,7.84,7.65-.49-.48-7.22-.87-7.12Zm-7.75-1.37-7.95.83-.88-9.39,8.3-.79Z" style="fill:#231f20"/><polygon points="275.88 334.85 268.06 335.26 268.3 343.01 276.24 342.3 277.28 350.03 278.35 358.03 278.96 366.08 279.08 374.42 287.42 373.59 286.1 365.46 286.22 357.35 284.98 349.36 284.14 341.04 292.41 340.62 291.89 332.81 283.75 333.23 275.88 334.85" style="fill:#231f20"/><polygon points="322.44 337.01 321.7 330.69 314.01 331.5 306.04 332.04 298.2 332.58 298.59 340.17 306.77 338.96 315.14 338.27 315.62 347.13 309.56 348.15 303.25 348.08 304.26 355.61 310.16 354.98 316.4 354.61 317.29 363.47 308.95 363.93 300.84 364.63 301.65 372.07 309.46 371.12 317.45 370.87 325.09 369.82 324.37 363.54 323.91 356.9 324.14 350.21 322.87 343.65 322.44 337.01" style="fill:#231f20"/><path d="M354.72,336.33l-2-2.37-5.12-4.47-2.7-1.39-7.5,1.29-7.49.36.82,6.52.12,6.66.56,6.62.27,6.66,1.26,6.57.2,6.88,7.73-.56,7.49-1.06,2.47-1.52,4.89-4.87.56-3.1-.27-7.41L355,343.79ZM345.65,361l-5.71,1-.4-6.67-.78-6.39-.1-6.45-.57-6.31,5.3-.12,3.95,2.51.08,6.42.51,6.33,1.15,6.35Z" style="fill:#231f20"/><path d="M398.67,340.08l-.3-7.2-.28-7.21-1.32-7.05L390.93,314l-5.65-4.78-6-.27-6,.94-6,.55-7,.09-6.63.69L347,312.41l-6.66.33-6.65.5-6.68.18-6.61,1-8,.45-7.23.58-7.22.83-7.21.75-7.21.8-7.28.14-7.19,1-7.27.25-7.2.93-7.23.66-7.24.45-7.22.8-7.19,1.08-7.3-.09-7.17,1.3-7.3-.12-7.15,1.49-7.26.41-7.27.2-7.24.5-7.22.74-7.21.93-7.22.78H146.1l-7.21.93-7.18,1.21-7.3,0-7.2,1.11-8,.24-6.63.6-6.66.37-6.59,1.11-6.65.52L76,336l-6.66.44-7,.4-6,1.11-6.06.37-6.17-.06-4.52,6.37-5,5.66-.07,4.14.51,6.65.37,6.66,1.09,6.59.86,6.62,0,6.69,1.24,6.59.22,6.18,5.56,5.19,6,4.88,6.1-.48,6-1.13,6.08,0,6.93-1.17,6.7.2,6.65-.47,6.58-1.28,6.66-.41,6.65-.48,6.63-.82,8-.21,7.19-1.08L138,403l7.17-1.23,7.23-.64,7.22-.76,7.25-.36,7.2-1,7.26-.28,7.21-.9,7.23-.53,7.25-.52,7.25-.3,7.25-.43,7.18-1.28,7.27-.26,7.24-.47,7.18-1.23,7.26-.4,7.27-.18,7.16-1.36,7.23-.66,7.3.07,7.25-.45,7.23-.73,7.16-1.44,7.31.14,7.2-1.07,8-.16,6.58-1.21H340l6.63-.6,6.59-1.25,6.64-.62,6.67-.3,7-.82,6.11.2,6-1.2,5.95-.65,4.71-5.8,5.15-5.6-.21-7.19-.59-7.18-1.33-7.11ZM51.29,402.74l-6.12-5.52.44-3.57-1-6.61L44,380.41l0-6.69-.7-6.63L42,360.5l-.33-6.67,0-1.3,4.6-6.23.66,6.7.37,7.12.56,7.1.82,7.08.74,7.08.79,7.08.13,7.15Zm7.82-14.8.55,7.23.28,7-4.64.64-.38-7.25-.58-7.22-.83-7.2L52.76,374l-.8-7.21-.14-7.27-1-7.19-1-7.47H55l1,7,.66,7.22.1,7.27.75,7.21,1.28,7.16Zm9-.79.54,7.24.28,7-4.63.63-.39-7.24-.57-7.22-.83-7.21-.75-7.21-.8-7.21-.15-7.26-1-7.2-1-7.46h5.13l1,7,.65,7.22.11,7.26.74,7.21,1.29,7.17Zm297.28-18.72.19,6.95-6.25,1h-6.69L346,377l-6.58,1.25-6.63.62-6.93.67,0-5.68-8.07,1.06.45,5-7.33.12-7.22.75-7.17,1.29-7.25.38L282,383l-7.27.23-7.19,1-7.25.39-7.24.57-7.21.83-7.22.75-7.22.8-7.27.15-7.2,1-7.27.26-7.2.93-7.23.66-7.26.44-7.21.81-7.19,1.07-7.3-.09-7.17,1.31-7.3-.12-7.16,1.49-7.26.4-7.27.21-7.08.54-.49-4.9-8,.95.54,5.09-6.83,0-6.61.88L95,399.86l-6.7-.07-6.6,1.06-6.58.16-.6-7.13-.43-7.24-1.16-7.17-.57-7.23L71.63,365l-.49-7.24-.42-7.24L69.6,343l7-.61,6.69,0,6.58-1.25,6.65-.45,6.69-.13,6.48-.55.36,5.17,8.18-1.14-.62-5.2,7.45-.14,7.17-1.29,7.25-.31,7.26-.23,7.23-.73,7.23-.59,7.18-1.23,7.27-.15,7.18-1.18,7.29.14,7.25-.53,7.17-1.33,7.24-.45,7.24-.54,7.21-.87,7.28-.14,7.19-1.08,7.28-.12,7.18-1.23,7.23-.64,7.22-.76,7.26-.36,7.2-1,7.27-.29,7.21-.9,7.25-.53,7.33-.5.28,5.28,8.29-.55-.84-5.49,6.82-.27,6.65-.43,6.58-1.17,6.67-.34,6.68-.14,6.86-1.21.78,7.46-.07,7.28.45,7.23.73,7.21,1.43,7.16-.13,7.29Zm10.54-8.21.55,7.24.26,7.06-3.82.53-.38-7.24-.57-7.23-.84-7.2-.74-7.21-.8-7.21-.15-7.26-1-7.2-1-7.43,4.33,0,1,7,.66,7.21.1,7.27.75,7.21,1.28,7.17ZM382,374.09l-1-7-.66-7.22-.1-7.26-.75-7.21-1.28-7.17-.38-7.24-.55-7.24-.26-7.06,3.62-.51.38,7.24.57,7.22.84,7.2.74,7.22.8,7.21.15,7.26,1,7.19,1,7.43Zm9.17-38.46.7,6.63.75,6.63.09,6.68.94,6.62-.15,0,.67,4.23-4.1,8.07-.33-7.72-1-7.18-.66-7.22-.1-7.27-.75-7.21-1.28-7.16-.38-7.25-.54-7.25,5,6,.33,0-.47,0,.52,6.65Z" style="fill:#231f20"/><path d="M541.73,360.28l-1.17-7.12.16-7.24-1-7.15-.85-7.09-5.74-4.8-5.66-5.3-7.17,1.06-7.22.08L505.93,324l-8,.72-7-.14-6.92.57-6.77,1.35-4.74,5.76-5.66,5.55.88,7.26.73,7.16,1.12,7.12.53,7.18-.06,7.23.92,7.16.8,7.15,6,4.74,5.7,5,6.93-.21,6.86-1.14,7-.07,7.89-1.5,7.17-.6,7.22-.08,7.2-.57,5-5.91,4.92-5.92-.74-7.19-.54-7.18ZM480.4,379.46l.62,7.06-2.08-2.08-.87-7.28-.76-7.4-1.14-7.36-.55-7.41,0-7.47-.87-7.35,1.86-2.32.09,7,1.24,6.87.63,6.92-.14,7,.57,6.92Zm3.76-25-.06,7.28.93,7.2.8,7.21.83,7.21.46,7.25-1.26-.19-1.1-.73-1-6.88-.07-7-1.24-6.9-.63-6.95.13-7-.57-7L480,341.05l-.63-7,1.57-.74.85-.47.73,7.17,1.13,7.18Zm39.32,11.12.08,7.26.57,7.24.68,7.13-6.58.55-6.66.69-.4-5-8.12.62.71,5.31-6.67.09-6.69,1.12-.76-7.44.12-7.28-.6-7.23-1.39-7.15-.65-7.22.19-7.3-.88-7.2-.76-7.14,6.36-1,6.66-.41.1,5.58,8.23-1-.54-5.12,6.68-.79,6.75-.39.26,7.3,1.17,7.17.09,7.27,1.44,7.15ZM528,350.75l-.06,7.11.9,7,.79,7,.81,7,.45,7.08-.83.46-1.37.39-1.06-7.14-.09-7.27-1.27-7.16-.65-7.22.11-7.29-.6-7.23-1.39-7.16-.65-7.3,1.94.37.63.21.72,7,1.11,7Zm7.24,13.93,0,7.46.87,7.35-2.19,2.76-.11-7.18-1.26-7-.63-7L532,354l-.59-7-1.37-7-.61-7.2,2.48,2.46.87,7.27.75,7.4,1.15,7.36Z"/><polygon points="515.95 338.74 508.24 339.98 508.43 347.98 509.71 356.11 510.5 364.4 506.61 372.29 501.7 365.07 501.03 356.88 500.35 348.69 499.81 340.22 491.94 341.27 492.4 347.81 493 354.44 493.27 361.11 493.77 367.78 495 369.88 499.17 375.03 503.28 380.19 511.12 379.36 514.13 373.56 517.91 368.03 517.93 365.63 517.65 358.99 516.86 352.37 516.43 345.72 515.95 338.74"/><path d="M541.73,217.28l-1.17-7.12.16-7.24-1-7.15-.85-7.09-5.74-4.8-5.66-5.3-7.17,1.06-7.22.08L505.93,181l-8,.72-7-.14-6.92.57-6.77,1.35-4.74,5.76-5.66,5.55.88,7.26.73,7.16,1.12,7.12.53,7.18-.06,7.23.92,7.16.8,7.15,6,4.74,5.7,5,6.93-.21,6.86-1.14,7-.07,7.89-1.5,7.17-.6,7.22-.08,7.2-.57,5-5.91,4.92-5.92-.74-7.19-.54-7.18ZM480.4,236.46l.62,7.06-2.08-2.08-.87-7.28-.76-7.4-1.14-7.36-.55-7.41,0-7.47-.87-7.35,1.86-2.32.09,7.05,1.24,6.87.63,6.92-.14,7,.57,6.92Zm3.76-25.05-.06,7.28.93,7.2.8,7.21.83,7.21.46,7.25-1.26-.19-1.1-.73-1-6.88-.07-7-1.24-6.9-.63-7,.13-7-.57-7L480,198.05l-.63-7,1.57-.74.85-.47.73,7.17,1.13,7.18Zm39.32,11.12.08,7.26.57,7.24.68,7.13-6.58.55-6.66.69-.4-5.05-8.12.62.71,5.31-6.67.09-6.69,1.12-.76-7.44.12-7.28-.6-7.23-1.39-7.15-.65-7.22.19-7.3-.88-7.2-.76-7.14,6.36-1,6.66-.41.1,5.58,8.23-1-.54-5.12,6.68-.79,6.75-.39.26,7.3,1.17,7.17.09,7.27,1.44,7.15ZM528,207.75l-.06,7.11.9,7,.79,7,.81,7,.45,7.08-.83.46-1.37.39-1.06-7.14-.09-7.27-1.27-7.16-.65-7.22.11-7.29-.6-7.23-1.39-7.16-.65-7.3,1.94.37.63.21.72,7,1.11,7Zm7.24,13.93,0,7.46.87,7.35-2.19,2.76-.11-7.18-1.26-7-.63-7L532,211l-.59-7-1.37-7-.61-7.2,2.48,2.46.87,7.27.75,7.4,1.15,7.36Z" style="fill:#fff"/><polygon points="515.95 195.74 508.24 196.98 508.43 204.98 509.71 213.11 510.5 221.4 506.61 229.29 501.7 222.07 501.03 213.88 500.35 205.69 499.81 197.22 491.94 198.27 492.4 204.81 493 211.44 493.27 218.11 493.77 224.78 495 226.88 499.17 232.03 503.28 237.19 511.12 236.36 514.13 230.56 517.91 225.03 517.93 222.63 517.65 215.99 516.86 209.37 516.43 202.72 515.95 195.74" style="fill:#fff"/><path d="M485.49,40l6.45-.53,6.52.13,7.43-.67,6.64-1.19,6.74-.07,6.71-1,5.24,4.89,5.39,4.51.79,6.63,1,6.66-.16,6.77,1.1,6.64.56,6.7.51,6.7.68,6.7-4.59,5.53-4.63,5.52-6.73.53-6.74.07-6.69.57-7.37,1.4-6.5.06-6.41,1.06-6.47.2-5.32-4.69-5.56-4.42-.74-6.67-.86-6.68.05-6.75-.49-6.7L471,65.26l-.68-6.68-.82-6.77,5.28-5.19,4.43-5.37L485.49,40m4.91,63,6.69-1.12,6.67-.09L503,96.51l8.13-.62.4,5,6.66-.69,6.58-.55-.68-7.13-.57-7.23-.08-7.27-.61-7.23-1.44-7.15-.09-7.27-1.17-7.17-.26-7.3-6.75.39-6.68.79.54,5.12-8.23,1-.1-5.58-6.66.42-6.36,1,.76,7.13.88,7.21-.19,7.29.65,7.22,1.38,7.16.61,7.22-.12,7.28.76,7.44m38.29-3.62,1.37-.38.83-.47-.45-7.07-.81-7-.79-7-.9-7,.06-7.11-.51-7-1.11-7-.72-7L525,42l-1.94-.37.65,7.31,1.39,7.16.6,7.22-.11,7.29.65,7.22L527.54,85l.09,7.27,1.06,7.14m-41.57,3.69-.46-7.25-.83-7.21-.8-7.21-.93-7.2.06-7.28-.53-7.23-1.13-7.17-.73-7.17-.85.46-1.57.75.63,7,1.37,6.89.57,7-.13,7,.63,7,1.24,6.89.07,7,1,6.89,1.1.72,1.26.19m46.77-8.31L536.08,92l-.87-7.35,0-7.47-.54-7.41-1.15-7.36-.75-7.39-.87-7.27-2.48-2.47.61,7.2,1.37,7,.59,7-.13,7.09.63,7,1.26,7,.11,7.18M481,99.06,480.4,92,479,85.14l-.57-6.93.14-7L478,64.31l-1.24-6.86-.09-7.06-1.86,2.32.87,7.36,0,7.46.55,7.41,1.14,7.36.76,7.4.87,7.28L481,99.06m3.78-61.64-.1,0-6.46,1.28-.67.13-.43.53-4.45,5.41L467.37,50l-.67.65.11.93.83,6.92.7,6.79v.1l1.06,6.72.49,6.68-.06,6.82v.13l0,.13.88,6.82.75,6.78.09.79.62.49,5.64,4.49,5.4,4.75.57.5.75,0,6.61-.21h.12l.13,0,6.4-1.06,6.49-.07h.17l.16,0,7.44-1.41,6.66-.56,6.8-.07h.14l6.86-.54.8-.07.51-.61,4.73-5.63,4.7-5.65.52-.62-.09-.8-.7-6.82-.51-6.82-.57-6.85v-.15l-1.09-6.61.15-6.73V59l0-.15L540,52l-.8-6.72-.09-.75-.58-.48-5.44-4.55-5.36-5L527,33.9l-.91.13-6.7,1-6.75.08h-.16l-.15,0-6.7,1.19-7.41.67-6.54-.13h-.2l-6.59.55Zm3.06,9.33,4.39-.7,4.48-.28.06,3.49,0,2.2,2.19-.25,8.23-1,2-.24L509,48l-.34-3.15,4.67-.55,4.64-.27.2,5.25v.13l0,.12,1.14,7,.09,7.12v.18l0,.18,1.41,7,.6,7,.08,7.2v.14l.57,7.23.5,5.15-4.57.38-4.66.48-.23-3-.16-2-2,.16-8.13.62-2.11.16.28,2.1.42,3.07-4.42.06h-.15l-.15,0-4.59.76-.53-5.19.12-7.17v-.2l-.6-7.22v-.11l0-.1-1.37-7.06-.63-7,.19-7.18v-.3l-.88-7.2-.56-5.22Z"/><path d="M514.1,53.61l.33,4.78.43,6.65v.11l.79,6.54.27,6.52V80l-3.44,5-.07.1-.06.11L509.83,90l-5.67.61-3.44-4.31-4.07-5-.92-1.57-.46-6.17L495,66.9v-.09l-.59-6.6-.34-4.66L498,55l.41,6.37.67,8.19.67,8.19.05.53.3.43L505,86l1.93,2.83,1.51-3.08,3.89-7.88.26-.51-.06-.57-.79-8.29v-.12l-1.27-8-.14-6.12,3.82-.61M516,51.28l-7.71,1.24.19,8,1.28,8.13.79,8.29-3.89,7.89-4.91-7.21L501,69.43l-.68-8.2-.54-8.47-7.88,1.05.47,6.54L493,67l.27,6.66.5,6.68,1.23,2.1,4.17,5.15,4.11,5.16,7.84-.84,3-5.8,3.78-5.52,0-2.4-.28-6.65-.79-6.62-.43-6.65-.48-7Z"/></svg>