<svg xmlns="http://www.w3.org/2000/svg" xmlns:xlink="http://www.w3.org/1999/xlink" viewBox="0 0 95.06 133.74"><defs><linearGradient id="b08e77bc-906d-4470-84f0-5b4c312dcaa2" x1="14.72" y1="89.54" x2="92.95" y2="89.54" gradientUnits="userSpaceOnUse"><stop offset="0" stop-color="#da9127"/><stop offset="0.04" stop-color="#e5b144"/><stop offset="0.08" stop-color="#efcd5d"/><stop offset="0.12" stop-color="#f6e16f"/><stop offset="0.16" stop-color="#faed79"/><stop offset="0.2" stop-color="#fbf17d"/><stop offset="0.28" stop-color="#e7bd4a"/><stop offset="0.34" stop-color="#d99a28"/><stop offset="0.36" stop-color="#cb8f29"/><stop offset="0.4" stop-color="#b77f29"/><stop offset="0.43" stop-color="#ab762a"/><stop offset="0.47" stop-color="#a7732a"/><stop offset="0.51" stop-color="#ac782e"/><stop offset="0.56" stop-color="#b98738"/><stop offset="0.61" stop-color="#cea04a"/><stop offset="0.67" stop-color="#ecc362"/><stop offset="0.68" stop-color="#f6ce6a"/><stop offset="0.72" stop-color="#f3c963"/><stop offset="0.78" stop-color="#ebba50"/><stop offset="0.85" stop-color="#dda232"/><stop offset="0.87" stop-color="#d99a28"/><stop offset="1" stop-color="#f6ce6a"/></linearGradient><linearGradient id="af1c2ffd-ddba-4e3b-86ad-eabd4bd3b299" x1="13.64" y1="66.87" x2="89.43" y2="66.87" xlink:href="#b08e77bc-906d-4470-84f0-5b4c312dcaa2"/><linearGradient id="bcf3c327-5dd0-4d8b-a60d-dcd14f4f8570" x1="14.72" y1="44.2" x2="92.95" y2="44.2" xlink:href="#b08e77bc-906d-4470-84f0-5b4c312dcaa2"/></defs><g id="aad56d4b-1333-4238-8c94-315b8d3d5ba7" data-name="Layer 2"><g id="b3d5faba-7ccb-4039-86f8-9332a8c6d4e5" data-name="Business Card Front"><g id="fd7ba046-f5b0-42f7-afbe-e5623e5c3e9a" data-name="Front content"><path d="M61.91,93.68c.68-.41,7.77-6.84,3.91-4q-1.54-3.11-3.1-6.2c0-.1-3.2,2.4-3.45,2.61-.77.65-1.55,1.31-2.29,2-.13.11-.95.78-.88.93l3.24,6.48A31.75,31.75,0,0,0,61.91,93.68Z" style="fill:url(#b08e77bc-906d-4470-84f0-5b4c312dcaa2)"/><path d="M94.83,95.33c-3.69-5.1-14.14.36-18.07,3.19V94.88c4.43-2.12,11-5,10.35-10.91A1.38,1.38,0,0,0,86,83.09c-3.38-.6-7.3,1.68-7.38,5.35,0,.42-.16,1.08.34,1.28.79.23,1.94-.73,2.51-1.2S82,87,81,87.27a1.83,1.83,0,0,0-1,.8c-.35.51,1,.35.55.87-.42.13-1,.44-1.39.3a5.52,5.52,0,0,1,1.36-3.71,5.38,5.38,0,0,1,.86-.72c1.25-.6,3.4-.65,3.38,1,.41,4.4-4.84,6.1-8,7.76v-39a4.09,4.09,0,0,0-4.74-4,6.69,6.69,0,0,0-2.85,1.49,59.19,59.19,0,0,0-5.37,4.37V54.74a4.08,4.08,0,0,0-5.25-4,9.18,9.18,0,0,0-2.77,1.68,58,58,0,0,0-4.93,4,7.45,7.45,0,0,0-1.34-5c-.63-.85-1.27-1.69-1.9-2.53a24.8,24.8,0,0,0-4.12,3.2c-1.75,1.54-3.51,3.22-4.33,4.06h0c-.4.37-.45.55-.13.36l.27-.19v0h0l.42-.29a3.3,3.3,0,0,1,2-.51,13.55,13.55,0,0,1,1.9,2.94A8.17,8.17,0,0,1,44.21,61V61c0,5.25,0,10.5,0,15.75a4,4,0,0,1-5.77-1.18c-1.07-2.09-.38-5.06-.57-7.4V49s-1,.66-1.08.71h0c-1.61,1.24-3.17,2.54-4.66,3.92-.2.18-.87.65-.87.93q0,11.12,0,22.25c-2.54,2.07-6.4-.14-6.33-3.33V37.24c2.37-1.18,6.74-2.58,7.66-5.24.43-4-5.62-2.47-7.66-1.34-.12-2.41.54-2.6-1.08-1.49h0c-1.5,1.14-2.94,2.36-4.34,3.61C16,34.17,9.86,36.68,7,33.09c7.59-3.42,15.74-5.17,23.9-6.55,7.44-1.09,15.16-2.7,20.81-8,4.21-3.54,9.86-8,9.08-14.17-1.2-3.23-5.14-4-8.19-4.25C42-.8,32.11,4.83,24.09,11.22c-1,1-6.8,4.69-5.07,6.1.75.44,2.52-.7,2.44-1.54-.26-.27-.74-.26-1-.54-.16-.62.71-1,1.12-1.39l0,0h0l.22-.15,0,0h0l-.27.2.28-.2h0c6.71-4.79,14.78-8.46,23.17-8.07,3.41,1.58,6.36,5.31,6,9.06a7.44,7.44,0,0,1-2.22,3.87,67.82,67.82,0,0,1-10.14,2.27c-9.81,1.56-19.62,3.8-28.53,8.32A34.87,34.87,0,0,0,.51,36.33a1.74,1.74,0,0,0-.29,2.08c3.7,5.1,14.15-.35,18.08-3.19v3.64c-4.43,2.13-11,5-10.36,10.91a1.39,1.39,0,0,0,1.14.88c3.39.6,7.3-1.68,7.38-5.34,0-.43.17-1.09-.33-1.29-.79-.23-1.94.73-2.52,1.2s-.5,1.56.46,1.25a1.93,1.93,0,0,0,1-.79c.35-.52-1-.35-.55-.88.42-.12,1-.43,1.39-.29a5.51,5.51,0,0,1-1.36,3.7,5.38,5.38,0,0,1-.86.72c-1.25.61-3.4.66-3.39-1-.4-4.4,4.85-6.09,8-7.76v39a4.09,4.09,0,0,0,4.74,4,6.78,6.78,0,0,0,2.85-1.48,60.91,60.91,0,0,0,5.36-4.38c0,.59,0,1.18,0,1.77a4.09,4.09,0,0,0,5.25,4,9.42,9.42,0,0,0,2.76-1.68,58.21,58.21,0,0,0,4.94-4.06,7.4,7.4,0,0,0,1.34,5l1.9,2.54a25.42,25.42,0,0,0,4.12-3.21c1.74-1.54,3.5-3.21,4.32-4v0c.4-.37.46-.55.14-.35l-.27.18v0h0a4,4,0,0,1-.43.29,3.21,3.21,0,0,1-2,.51,13.73,13.73,0,0,1-1.9-2.93,8.67,8.67,0,0,1-.52-2.39.28.28,0,0,1,0-.09c0-5.25,0-10.5,0-15.74a4,4,0,0,1,5.77,1.17c1.06,2.1.38,5.06.56,7.4V84.76s1-.66,1.08-.71h0c1.61-1.24,3.17-2.54,4.66-3.91.19-.19.87-.66.87-.93V57c2.54-2.08,6.41.13,6.34,3.32V96.5c-2.37,1.18-6.74,2.59-7.66,5.25-.43,4,5.61,2.46,7.66,1.34.12,2.41-.54,2.59,1.08,1.48h0c1.5-1.14,2.94-2.36,4.34-3.62,3.52-1.37,9.63-3.89,12.51-.29-7.59,3.41-15.74,5.16-23.9,6.54-7.44,1.09-15.17,2.7-20.81,8-4.22,3.54-9.86,8-9.08,14.17,1.2,3.23,5.14,4,8.18,4.25,10.6.89,20.49-4.74,28.51-11.13,1-1,6.8-4.69,5.07-6.09-.76-.45-2.52.69-2.44,1.53.26.27.73.26,1,.55.16.61-.71,1-1.12,1.38l0,0h0l-.21.16h0l.27-.2a2.68,2.68,0,0,0-.28.21h0c-6.71,4.78-14.78,8.45-23.17,8.06-3.42-1.58-6.37-5.3-6-9.06a7.46,7.46,0,0,1,2.23-3.87A70.1,70.1,0,0,1,56.35,113c9.81-1.56,19.62-3.79,28.52-8.32a34.73,34.73,0,0,0,9.67-7.23A1.73,1.73,0,0,0,94.83,95.33ZM83.47,84a3.58,3.58,0,0,1,2.54.31,5.2,5.2,0,0,1-1,3.58,6.33,6.33,0,0,0,.22-2A1.82,1.82,0,0,0,83.47,84ZM29.81,30.47c2.66.15,1.74,2,.11,3,1.24-1.26.8-2.46-.84-3C29.32,30.44,29.57,30.45,29.81,30.47Zm-4.89,1a14.51,14.51,0,0,1,2.63-.88c2.21.31,3.69,1.16,1.39,3.06a11.67,11.67,0,0,1-4,2.34ZM52.1,14.79c.41-3.37-1.84-6.95-4.59-8.95,3.15.34,7.56,2.25,6.7,6.11-.34,1.92-1.33,5.22-3.39,5.8A7,7,0,0,0,52.1,14.79Zm-40.52,35a3.51,3.51,0,0,1-2.53-.31,5.23,5.23,0,0,1,1-3.58,6.33,6.33,0,0,0-.22,2A1.81,1.81,0,0,0,11.58,49.78Zm19,27.49c-.2.15-.69.46.08-.06Zm13,0c-.2.15-.68.46.09-.06Zm7.85-20.73.08-.07C51.69,56.32,52.18,56,51.41,56.54Zm13,0,.09-.07C64.65,56.32,65.14,56,64.36,56.54Zm.88,46.73c-2.65-.15-1.73-2-.1-3-1.24,1.26-.8,2.47.84,3A4.63,4.63,0,0,1,65.24,103.27Zm4.9-1a14.48,14.48,0,0,1-2.63.87c-2.22-.31-3.69-1.16-1.4-3.06a12,12,0,0,1,4-2.34ZM43,119c-.41,3.37,1.84,7,4.59,9-3.15-.35-7.56-2.26-6.7-6.11.33-1.93,1.33-5.22,3.38-5.81A6.94,6.94,0,0,0,43,119Z" style="fill:url(#af1c2ffd-ddba-4e3b-86ad-eabd4bd3b299)"/><path d="M33.15,40.07c-.68.4-7.78,6.83-3.92,3.94l3.11,6.21c0,.09,3.2-2.41,3.44-2.61.78-.66,1.56-1.32,2.3-2,.12-.12,1-.79.87-.93l-3.24-6.48A29.39,29.39,0,0,0,33.15,40.07Z" style="fill:url(#bcf3c327-5dd0-4d8b-a60d-dcd14f4f8570)"/></g></g></g></svg>