<svg xmlns="http://www.w3.org/2000/svg" viewBox="0 0 137.94 194.08"><g id="b3873593-84c7-4bfd-8b16-4703f53c4547" data-name="Layer 2"><g id="e6c5e3fa-be83-4f90-8608-25a84322a004" data-name="Business Card Front"><g id="b441a022-1de6-4ffd-8cd7-00b6b85064b9" data-name="Front content"><path d="M89.83,135.94c1-.59,11.29-9.92,5.69-5.73l-4.5-9c-.07-.13-4.65,3.49-5,3.79-1.13,1-2.26,1.91-3.33,2.92-.18.17-1.37,1.14-1.27,1.35l4.7,9.4A43,43,0,0,0,89.83,135.94Z" style="fill:#e8e6e3"/><path d="M137.61,138.33c-5.35-7.39-20.52.52-26.23,4.64v-5.29c6.44-3.08,16-7.26,15-15.83a2,2,0,0,0-1.65-1.27c-4.92-.87-10.6,2.43-10.71,7.75,0,.62-.25,1.57.49,1.86,1.15.34,2.81-1.05,3.64-1.74s.74-2.25-.66-1.81a2.75,2.75,0,0,0-1.49,1.15c-.51.75,1.42.51.79,1.27-.6.19-1.42.63-2,.43a8,8,0,0,1,2-5.37,7.82,7.82,0,0,1,1.25-1.05c1.81-.88,4.93-.95,4.91,1.51.6,6.39-7,8.84-11.56,11.26q0-28.26,0-56.53a5.93,5.93,0,0,0-6.88-5.81,10,10,0,0,0-4.13,2.15A87.69,87.69,0,0,0,92.59,82c0-.86,0-1.72,0-2.58A5.93,5.93,0,0,0,85,73.68a13.79,13.79,0,0,0-4,2.44A84,84,0,0,0,73.78,82a10.69,10.69,0,0,0-1.94-7.26c-.91-1.23-1.84-2.46-2.76-3.68a36.1,36.1,0,0,0-6,4.65C60.57,78,58,80.39,56.83,81.6l0,0c-.58.54-.66.79-.2.51l.39-.26,0,0h0a5.65,5.65,0,0,1,.62-.42,4.73,4.73,0,0,1,2.95-.74A18.83,18.83,0,0,1,63.41,85a12.25,12.25,0,0,1,.75,3.46v.13c0,7.61,0,15.23,0,22.85-2.57,2.17-6.73,1.13-8.38-1.71-1.55-3-.56-7.35-.82-10.74V71.08c0-.06-1.46,1-1.57,1h0q-3.51,2.69-6.77,5.68c-.28.26-1.26.95-1.26,1.35q0,16.14,0,32.29c-3.68,3-9.3-.2-9.19-4.83,0-5.85,0-11.71,0-17.56v-35c3.44-1.72,9.78-3.76,11.12-7.62.62-5.74-8.15-3.57-11.12-1.94C36,41,37,40.72,34.6,42.33h0c-2.17,1.65-4.26,3.42-6.3,5.24-5.11,2-14,5.65-18.15.43,11-4.95,22.84-7.49,34.69-9.49,10.78-1.59,22-3.93,30.19-11.66C81.14,21.72,89.33,15.18,88.2,6.29,86.45,1.61,80.74.53,76.32.13,60.94-1.15,46.6,7,35,16.28c-1.44,1.44-9.87,6.81-7.35,8.85,1.1.65,3.65-1,3.54-2.23-.37-.39-1.07-.37-1.42-.79-.24-.89,1-1.5,1.62-2a.1.1,0,0,1,.05,0h0l.32-.22,0,0h0l-.4.29.41-.3h0C41.49,12.86,53.19,7.53,65.37,8.09c5,2.3,9.24,7.71,8.74,13.15-.3,2.08-1.57,3.85-3.23,5.62a99.92,99.92,0,0,1-14.71,3.3c-14.24,2.26-28.47,5.5-41.39,12.07-5.35,2.46-9.89,6.38-14,10.49a2.52,2.52,0,0,0-.43,3c5.36,7.4,20.53-.51,26.23-4.63v5.28c-6.43,3.08-15.95,7.27-15,15.84a2,2,0,0,0,1.65,1.27c4.91.87,10.59-2.44,10.71-7.76,0-.62.24-1.57-.49-1.86-1.15-.34-2.81,1.06-3.65,1.74s-.73,2.26.67,1.82a2.77,2.77,0,0,0,1.49-1.16c.51-.75-1.43-.51-.8-1.27.61-.18,1.43-.63,2-.43a8,8,0,0,1-2,5.38,7,7,0,0,1-1.25,1c-1.81.88-4.92,1-4.91-1.5-.59-6.39,7-8.85,11.56-11.27q0,28.28,0,56.54a5.93,5.93,0,0,0,6.89,5.8,9.76,9.76,0,0,0,4.13-2.15,87.58,87.58,0,0,0,7.78-6.35c0,.86,0,1.72,0,2.57A5.92,5.92,0,0,0,53,120.39,13.75,13.75,0,0,0,57,118a85.94,85.94,0,0,0,7.17-5.89,10.7,10.7,0,0,0,1.94,7.26c.91,1.23,1.84,2.45,2.76,3.68a37.26,37.26,0,0,0,6-4.65c2.53-2.24,5.09-4.67,6.28-5.89l0,0c.58-.54.66-.8.2-.52l-.39.27,0,0,0,0h0c-.21.15-.41.29-.62.42a4.8,4.8,0,0,1-2.95.74,19,19,0,0,1-2.76-4.26,12.25,12.25,0,0,1-.75-3.46v-.13c0-7.62,0-15.23,0-22.85,2.57-2.18,6.73-1.14,8.38,1.7,1.54,3,.55,7.35.82,10.74V123c0,.07,1.46-.95,1.57-1h0q3.51-2.7,6.77-5.68c.28-.27,1.26-1,1.26-1.35q0-16.15,0-32.29c3.68-3,9.3.2,9.19,4.83V140c-3.44,1.71-9.78,3.75-11.12,7.61-.62,5.74,8.15,3.58,11.12,2,.17,3.5-.79,3.76,1.56,2.15h0c2.17-1.66,4.26-3.43,6.3-5.25,5.1-2,14-5.64,18.15-.43-11,4.95-22.84,7.49-34.69,9.5-10.79,1.58-22,3.92-30.2,11.65-6.11,5.14-14.3,11.69-13.17,20.57,1.75,4.68,7.46,5.76,11.88,6.16C77,195.23,91.34,187.06,103,177.79c1.45-1.44,9.87-6.8,7.36-8.84-1.1-.65-3.65,1-3.54,2.22.37.39,1.07.38,1.42.8.24.89-1,1.49-1.62,2l0,0h0l-.31.22,0,0h0l.4-.28-.41.29h0c-9.74,6.94-21.44,12.27-33.62,11.71-5-2.29-9.24-7.7-8.75-13.15.31-2.08,1.58-3.84,3.24-5.62a99.89,99.89,0,0,1,14.71-3.29c14.24-2.27,28.47-5.51,41.39-12.08,5.35-2.45,9.88-6.38,14-10.48A2.53,2.53,0,0,0,137.61,138.33Zm-16.48-16.5a5.11,5.11,0,0,1,3.67.46,7.53,7.53,0,0,1-1.43,5.2,9.48,9.48,0,0,0,.32-2.95A2.63,2.63,0,0,0,121.13,121.83ZM43.26,44.22c3.85.21,2.52,2.92.15,4.32,1.8-1.82,1.17-3.57-1.22-4.37A9.58,9.58,0,0,1,43.26,44.22Zm-7.1,1.49A21.07,21.07,0,0,1,40,44.43c3.22.45,5.36,1.69,2,4.45-1.6,1.67-3.76,2.48-5.84,3.39ZM75.6,21.46c.59-4.89-2.67-10.09-6.66-13,4.57.5,11,3.28,9.72,8.86-.48,2.8-1.93,7.58-4.91,8.43A10,10,0,0,0,75.6,21.46ZM16.81,72.24a5.19,5.19,0,0,1-3.68-.45,7.58,7.58,0,0,1,1.44-5.2,9.49,9.49,0,0,0-.33,3A2.63,2.63,0,0,0,16.81,72.24Zm27.6,39.89c-.29.22-1,.66.13-.09Zm18.81,0c-.3.22-1,.66.12-.09ZM74.6,82l.12-.1C75,81.73,75.72,81.28,74.6,82Zm18.8,0,.12-.1C93.81,81.73,94.52,81.28,93.4,82Zm1.28,67.82c-3.86-.22-2.53-2.92-.16-4.32-1.79,1.82-1.16,3.57,1.23,4.36A9.48,9.48,0,0,1,94.68,149.86Zm7.1-1.49A21.67,21.67,0,0,1,98,149.64c-3.21-.45-5.35-1.68-2-4.44,1.6-1.68,3.76-2.48,5.84-3.4ZM62.34,172.61c-.59,4.89,2.67,10.09,6.66,13-4.57-.5-11-3.28-9.72-8.87.48-2.79,1.93-7.57,4.91-8.42A9.94,9.94,0,0,0,62.34,172.61Z" style="fill:#e8e6e3"/><path d="M48.11,58.14c-1,.59-11.29,9.92-5.69,5.72l4.5,9c.07.14,4.65-3.49,5-3.79,1.12-1,2.26-1.9,3.33-2.92.18-.16,1.37-1.13,1.26-1.35l-4.7-9.4A44.65,44.65,0,0,0,48.11,58.14Z" style="fill:#e8e6e3"/></g></g></g></svg>